<?xml version="1.0" encoding="utf-8"?>
<!-- Generator: Adobe Illustrator 16.0.4, SVG Export Plug-In . SVG Version: 6.00 Build 0)  -->
<!DOCTYPE svg PUBLIC "-//W3C//DTD SVG 1.1//EN" "http://www.w3.org/Graphics/SVG/1.1/DTD/svg11.dtd">
<svg version="1.1" id="Ebene_1" xmlns="http://www.w3.org/2000/svg" xmlns:xlink="http://www.w3.org/1999/xlink" x="0px" y="0px"
	 width="302.22px" height="183.126px" viewBox="0 0 302.22 183.126" enable-background="new 0 0 302.22 183.126"
	 xml:space="preserve">
<metadata><?xpacket begin="﻿" id="W5M0MpCehiHzreSzNTczkc9d"?>
<x:xmpmeta xmlns:x="adobe:ns:meta/" x:xmptk="Adobe XMP Core 5.3-c011 66.145661, 2012/02/06-14:56:27        ">
   <rdf:RDF xmlns:rdf="http://www.w3.org/1999/02/22-rdf-syntax-ns#">
      <rdf:Description rdf:about=""
            xmlns:dc="http://purl.org/dc/elements/1.1/">
         <dc:format>image/svg+xml</dc:format>
         <dc:title>
            <rdf:Alt>
               <rdf:li xml:lang="x-default">Logo-Effinger</rdf:li>
            </rdf:Alt>
         </dc:title>
         <dc:creator>
            <rdf:Seq>
               <rdf:li>Hélène</rdf:li>
            </rdf:Seq>
         </dc:creator>
      </rdf:Description>
      <rdf:Description rdf:about=""
            xmlns:xmp="http://ns.adobe.com/xap/1.0/"
            xmlns:xmpGImg="http://ns.adobe.com/xap/1.0/g/img/">
         <xmp:MetadataDate>2016-02-23T11:36:26+01:00</xmp:MetadataDate>
         <xmp:ModifyDate>2016-02-23T11:36:26+01:00</xmp:ModifyDate>
         <xmp:CreateDate>2016-02-23T11:36:26+01:00</xmp:CreateDate>
         <xmp:CreatorTool>Adobe Illustrator CS6 (Macintosh)</xmp:CreatorTool>
         <xmp:Thumbnails>
            <rdf:Alt>
               <rdf:li rdf:parseType="Resource">
                  <xmpGImg:width>256</xmpGImg:width>
                  <xmpGImg:height>156</xmpGImg:height>
                  <xmpGImg:format>JPEG</xmpGImg:format>
                  <xmpGImg:image>/9j/4AAQSkZJRgABAgEASABIAAD/7QAsUGhvdG9zaG9wIDMuMAA4QklNA+0AAAAAABAASAAAAAEA&#xA;AQBIAAAAAQAB/+4ADkFkb2JlAGTAAAAAAf/bAIQABgQEBAUEBgUFBgkGBQYJCwgGBggLDAoKCwoK&#xA;DBAMDAwMDAwQDA4PEA8ODBMTFBQTExwbGxscHx8fHx8fHx8fHwEHBwcNDA0YEBAYGhURFRofHx8f&#xA;Hx8fHx8fHx8fHx8fHx8fHx8fHx8fHx8fHx8fHx8fHx8fHx8fHx8fHx8fHx8f/8AAEQgAnAEAAwER&#xA;AAIRAQMRAf/EAaIAAAAHAQEBAQEAAAAAAAAAAAQFAwIGAQAHCAkKCwEAAgIDAQEBAQEAAAAAAAAA&#xA;AQACAwQFBgcICQoLEAACAQMDAgQCBgcDBAIGAnMBAgMRBAAFIRIxQVEGE2EicYEUMpGhBxWxQiPB&#xA;UtHhMxZi8CRygvElQzRTkqKyY3PCNUQnk6OzNhdUZHTD0uIIJoMJChgZhJRFRqS0VtNVKBry4/PE&#xA;1OT0ZXWFlaW1xdXl9WZ2hpamtsbW5vY3R1dnd4eXp7fH1+f3OEhYaHiImKi4yNjo+Ck5SVlpeYmZ&#xA;qbnJ2en5KjpKWmp6ipqqusra6voRAAICAQIDBQUEBQYECAMDbQEAAhEDBCESMUEFURNhIgZxgZEy&#xA;obHwFMHR4SNCFVJicvEzJDRDghaSUyWiY7LCB3PSNeJEgxdUkwgJChgZJjZFGidkdFU38qOzwygp&#xA;0+PzhJSktMTU5PRldYWVpbXF1eX1RlZmdoaWprbG1ub2R1dnd4eXp7fH1+f3OEhYaHiImKi4yNjo&#xA;+DlJWWl5iZmpucnZ6fkqOkpaanqKmqq6ytrq+v/aAAwDAQACEQMRAD8A9U4q7FXYq7FXYq7FXYq7&#xA;FXYq7FXYq7FXYq7FXYqoS6hZRbSToD4VBP3DMLN2lp8f1TiPjv8AJtjhnLkCgpfMVgn2Och7UFB+&#xA;NM1Wb2n00fp4pe4frpvjoZnnso/prUJv95bMkdmNWH4cRmJ/L2qy/wBzhPvNn9TZ+VhH6pO9LzHP&#xA;9qRYFPaoH/EeRx8HtXNzkMY+H6LK8WCPS0vvbG6W8it/WM87jluTsfmT7Zpdd2fmjnji4zkyS367&#xA;fElycWWJgZVUU30jU2mra3Pw3Me2/VqfxGdN2L2qcv7nLtlj9tfpHX5uFqdPw+qP0lM86Fw3Yq7F&#xA;XYq7FXYq7FXYq7FXYq7FXYq7FXYq7FXYq7FXYq7FXYq7FVKW7tYf72VEI7FhX7sxs2tw4vrnGPxZ&#xA;xxSlyCDl8wacn2WaQ/5K/wBaZqs3tJpYciZe4frpyI6LIfJDfp+5l2tbRn9zU/gB/HMH/RHlybYc&#xA;Jl8z9w/S2/k4x+qTq+Y7jssCn5D/AJqbBfa2buxj4f8AHiv+Dx83foK7m3urxm/yRVv1n+GH/Q9n&#xA;y/32Yny3P3n9C/nIx+mKIi8v6cn2g0h/ym/5ppmbh9mtLDmDL3n9VNUtbkPkjIrK0h/u4UU+IAr9&#xA;+bTDocGL6IRHw/S0SyylzJVsy2t2KpJpX+l6rcXh3RNkPz2H/CjOR7H/AMJ1uTUfwx2H3D/Yh2Go&#xA;9GIQV9X0xpqXVt8NzHvt1an8RmZ212Ucv77Ftlj9tfpH7GvTajh9MvpKrpOpreRcX+G4QfGvj/lD&#xA;MjsftUaqFS2yx5jv8/xyYanT8B2+lH5unGdirsVdirsVdirsVdirsVdirsVdirsVdirsVdirsVdi&#xA;rsVSLVVnm1aK1aZo4ZFHGnTv2qO4zje2I5MutjhMzGEgK+3p73ZaciOIyqyETF5csE3cvIfAmg/C&#xA;mZ+H2Y00fqMpfGvu/W0y10zyoIyLTrGL7ECA+JFT95rm1w9mabH9MI/K/vaJZ5y5lEdMzgGp2Kux&#xA;V2KrXkjjFZGCDxYgD8cryZYwFyIA89kiJPJCS6zpsfWYMfBKt+I2zW5u3NJj5zB92/3bN8dLkPRA&#xA;XfmGOSGSK3icsykczQUr3oK5pdZ7SwnCUMUZWQRfd59XJx6IggyIRHl30fqFENZORMo7g9B+AzO9&#xA;mfD/AC3pPq4jxfo+xq1t8e/JNM6Jw0j00C41q4uUFIo6gU6En4R99Cc4/suIz9oZM0doRvl16fbu&#xA;XY5zw4RE8ynmdg652KuxV2KuxV2KuxV2KuxV2KuxV2KuxV2KuxV2KuxV2KuxVJfMA9KW0uh1RqH6&#xA;CGH8c5P2kHhzxZh/DL9RH6XP0W4lHvToEEAjcHcZ1YNiw4DiQBU7AdTiTW5VCS6tp0X2p1J8F+L/&#xA;AIjXNbm7Y0uPnMfDf7rb46bIeiDl8yWo2ijeQ/Qo/ic1eX2pwjaEZSPy/X9zfHQy6kBSj1fVruv1&#xA;S3XiNi3Wh+ZIGYuPtrW6n+4xivn9poMzpsUPqK76lr8/99ciIHspof8AhB/HLPyHaeb68nAPI/8A&#xA;Ej9KPFwR5Rv8ea5PLcJPKed5G70oP18ssx+y0CbyTlI/L77Qdcf4QAi4tG02PpCGPi9W/A7Zs8PY&#xA;ekx8oA+/f79miWqyHqi0jjReKIFXwAAH4ZsoYoQFRAA8mgyJ5pJe20umXQvbUVgY0lj7Cvb5HtnI&#xA;6/Sz7PzfmMP92fqj+j3d3cXY4pjNHgl9SOu9Si/Rb3MLfbHFPEMdqfMZuNZ2pD8mc0DzFD3n9Icb&#xA;HgPiCJW6FbejYKxHxSnmfken4ZD2e0vhaYE85+r9X2J1mTin7kxzeuK7FXYq7FXYq7FXYq7FXYq7&#xA;FXYq7FXYq7FXYq7FXYq7FXYql+vRepprnqYyrj76fqOaP2iw8ekkf5pB/R+lytHKsg81fTJfVsIH&#xA;78AD81+E/qzM7KzeJpscv6NfLb9DXqI1MhvUY2ksJ1XqUJFPYVph7UxmemyRHPhKMBqYPmleiafY&#xA;T2glkiDyBirEk0236dOhzn+wOzdNmwcco8UwSDz+7lyczV5pxlQOycxwQRCkcaoP8kAfqzqcWnx4&#xA;xUIxj7hTgSmTzKUaF+5vLy1P7LVX5KSP4jOY9nv3WfNh7jt8DX6nO1nqjGSdZ1rr3Yq7FVCW/soq&#xA;+pOgI6ioJ+4b5hZu0dPj+qcR8d/k2RwzlyBQNxr+m8GSjTKwoQFoCD/rUzUan2j0nCY0Zg+W3205&#xA;MNHku+STQWs9zMIoUkW1dw29SFHiT02Gcpp9Jk1E+DHGYwylfkPO+Wwc+eSMBZI4qZaqhVCqKKBQ&#xA;D2GemxiIgAcg6Qm28kh2KuxV2KuxV2KpT5r80aR5W8v3mvavIY7CyQNJwHJ2LEKiIu1WZiAPx2xV&#xA;hv5T/nbpX5iXupWlrps+ny2CrKvqusgkidioNVA4tXqu/wA8U09IxQ7FXYq7FXYq7FXYq7FXYq7F&#xA;XYqp3MXq20sX86FR8yMx9Xh8TFKH86JH2M8cuGQKXeXJeVk8Z6xudvYiv665ovZfNxacx/my+/8A&#xA;BcrXRqd94TUgEUPQ9c6Qi9nCSXy+TFNd2p6o1R9BKn+Gcp7Nnw55cJ/hl+sH9Dn63cRl3p1nWOAk&#xA;N1OthrrTsCY5EqQvXcU7/wCUucXrNQNF2ichB4ZR6e79Ydljh4mGhzBVDr9xKaWtoz+BNT+Cj+OZ&#xA;B9o8uTbDiMvmfsA/Sx/JxH1Sdy8xz9AsCn5D9fJsHF2tm6DGPh/x4rWnj5u/QV5NvdXhb/JFWH4k&#xA;fqx/0PZ8v99mJ+Z+/wDUv5uEfpiiIvL2nJ9oNIf8pqf8Rpmbh9mtLDmJS95/VTVLW5Dy2RkVlZxf&#xA;3cKKfGgr9+bXDoMGL6IRHw/S0SyylzJVsy2t2KuxV2KuxVQvr+x0+zlvb64jtbSBec1xMwSNFHdm&#xA;YgDFXmr/APOS35RpqP1P9KSsvLgbtbeb0AeleXHlT3C4pp6db3EFzBHcW8izQTIskMqEMjowqrKw&#xA;2IINQcUPNv8AnI220qf8pdX/AEhcG29IwyWZG5e4WQenHx786kHwHxdsUh8faBp3nWO3l1zy/b6i&#xA;kFq3pzalYLMBE1A3FpYfs7UO5xS9X/KL/nIvzjaeYdP0bzNdnVtIvZktjPOB9YgMrBVk9UAM6gn4&#xA;g9TTocUU+tsUOxV2KuxV2KuxV2KuxV2KuxV2Ksci1PTtFudQl1K6hsrGP43uLiRYo1HKi8nchR9v&#xA;OS7G/c63Ni6Hf5Hb7JOw1PqxRkndhqFhqNnFe6fcxXdnOOUNzA6yRuK0qrqSp3zrXXpan7jzGw6L&#xA;Ov6xX9a5yWP9z2qR0yD9F/eHYH1af3J1nWuvSXzAvpz2lzSoVqN9BBH8c5L2kjwZMWbuO/wIP63Y&#xA;aI2JRToUoKdO1M6wVWzr3YVdiq2SWKMVkdUHixA/XleTNCAuREfeaSIk8lOG8tZ2Kwyq7LuQDXKc&#xA;Gtw5SRCQkR3M54pR5hWzKa3Yql03mTy7DefUptVs47ytPqzzxLLXw4FuX4Yqk3lL80fI/m3U73TP&#xA;L+oi9u7Ac5wI5FUoG4c0dlVXXl3U4qyO+vrSwsp768lWC0tY2muJnNFSNByZj8gMVfH/AJ185+dP&#xA;zr86p5f8uxyLoqPWysiSsaomzXd2wrTr/sa8Vqx+JSk/5wflFa/l1FosLawNR1LUUle6gWL01jEZ&#xA;QKy/ExKsWIFaVpil9TfkfFeRflN5ZW75eqbMOvLr6TuzRfR6ZWntixLwD8/vPN95/wDPVp5L8u1u&#xA;rKwuPq0CRmq3F854O9enGPdFb/WNaHFIfSf5d+SrDyV5QsNBteLNbpzvLgCnq3D7yyGu+7bLXooA&#xA;7YofKkFvaefP+ci+WkxKNNuNWE5aIBUa2syGll+EUHqrCWr4t44sn2hixdirsVdirsVdirsVdiql&#xA;d3dtZ2s13dSLDbW6NLPM5oqRoCzMx7AAVOKvj7zj/wA5MefL/wA1Ne6BeHTtEtZf9CsOCN6san7V&#xA;xyBLGQdVrRe2+5U0+xI2Zo1ZlKMwBKHcgkdNvDFD5E/5yl85/pLzr/h60lJstJVDdqp+Frt0BNex&#xA;9OMhR4EtmHj0cI5p5f4p0Pk2nITER6B7Z/zjTYXNp+UWltPUfWpbm4iQ1HFGmZV/4Lhy+nMxrLN9&#xA;c/c31nddgaMfZSD/ABOcl2/+61GHN3Hf4G/0lz9J6oSinWda69Ltfi56czd42Vh+r+OaH2kw8elJ&#xA;/mkH9H6XL0Uqye9CReYokt4oxE8kqqFboASB9P6s12H2mhDFGIhKUxEA9N6+P3N0tETIm6C79I63&#xA;P/cWnpg9CwP624jJfyn2jm/u8XCPMfpNBHgYY/VK3fUNdn3muhGD1Cmh+5QB+OP8ndpZv7zLwDyP&#xA;/E0PtXxsMeUbXR+W4K8ppnkbvSi/r5ZZj9lsV3knKR+X62MtdLoAFO+0prLjd2FQYvtrWu3j/XKO&#xA;0OyDpaz6axwcxz+P6wzw6jxPTPq1qnnPQdH8v3GuatcraWdotbgtueR+yiL1ZmOygdc3/ZvaMNVj&#xA;4htIcx3H9Xc4mbCYSp8s+dvzr/MX8yNXbQvKcF1Z6bMSsOnWPI3UydC9xIm4FD8SghAOteubFqpg&#xA;vnf8sfNvkqCwl8xRQ20uo8zDbrMkso9OnLmELAfbG9cUvf8A/nEryZ9S8u6h5snB9bVZPqtmD0Fv&#xA;bt8bA/5ctR/sMUFT/wCctPPU1jpFh5Qs5Ckmp/6XqPE0P1eNuMSH2kkBJ/1MVCS/l55u8jflB+Xy&#xA;3t4yah521yMXL6bAQZYomFbeKZ9/RUKQ7Bviq3Q0xVivkjyl5t/Ozz9L5h19mXRoZF/SNyoZYljT&#xA;4ks7UEmlQfH4QeRqT8Sl6z/zkJ+bVv5O0FfKfl6RYdcvIRGxh2+pWlOIIp9l3A4oOw+Lb4aqAln/&#xA;ADjH+Uj6XaDztrUHHULxCujwON4rdxvOQejSjZf8n/WxUsq/5yN/MI+VPIz2NpJx1fXedpbUNGSH&#xA;j/pEo+SsFHuwPbFQxX/nFH8vmsNHuvOd9HxudUBttNDdVtUb94//AD0kWg9l98VKD/Nr8/PNlv5/&#xA;t/KvkOSJmtZo7a5f0lmNzdu3E245g0RSQp40blXfFafRmKHYqo3t7Z2NpLeXs6W1pApknnlYIiKu&#xA;5ZmagAxV8/efv+csrCzmksvJlkt+6EqdUvAywE+McIKSOPdivyOKaeUt/wA5HfnC16Lr9OAAHa3F&#xA;tbelSv2ePp1PzrX3xTT6w/Kvzz/jfyTY6+8It7qXnFdwoSUWaJirFK78W+0PCtMWLLcVeJf85U+d&#xA;zo/kyHy7aycb3XnKzcTutpCQ0nTpzcqvuOWKQ+cvyl8qv5o/MPRdJ4F7drhZ7zwFvB+9lr4clXiP&#xA;c4pfcvmrzBa+XfLepa5dbw6dbyTla05FF+FB7u1FHzxYvz/RdV8zeZKMTPqms3dXc/tTXElWY/7J&#xA;qnKs2UY4GcuURbZGNmg/QXy9pNno+g6dpVn/ALy2NtFbwmlKrGgUE+5pU5OExKII5FgRReVf85Kf&#xA;mVceVNAsdO0mYRa7qUheOSisYbeMUd6MCKszBVqP5u4zF1mhx6gRGQWIm/sbMWUwumV/klqPmnU/&#xA;y20nUPM0xuNRuleSOV1VXa3Ln0S/EAElKGvhSu+ZUCCNuX6tmuXNnLKrKVYBlOxB3BGMoiQoiwVB&#xA;pbHDDGKRoqDwUAfqyGLBDH9ERH3CkykTzK/LWKU3vm/ynY3y2F7rVha3zHitpNdQxyk+AjZg34Yq&#xA;mwIIqOmKrJ5oYIZJ5nWOGJS8sjkBVVRVmYnoAMVfH35gN51/NPzl6WiaZdQeV45vT06WWOSK2C9G&#xA;upGYBasKsB1C/CBXrpQdJouOca4pb0Nz7g5X7zJQL6K/LjyR5O/L7yk0lmUXhCZtX1icBZJDGCzs&#xA;7fsxpvxWtAPE1J2Gj1cNRjGSHI/imnLjMZUXyH+aXnq98/8Anm51RFc2zMLXSLU7sturUjFB+05J&#xA;dvc5lMX2fo8GjeQPy9s4dQnS20/QrGNbu4OylkUeow8WkkJoB1JoMWL4t/Mvzve/mB54uNXWAxpO&#xA;UtdOta1ZYUPGNT/lMTybtU4snqv5ef8AOKGq3UkV952uBY2oPI6VbOrzv7SSrVEH+ryPyxRb1j8x&#xA;vzB8qflL5RisNKtoEvzH6ejaNHsvgZZafFwXqSd3O1epCrxL8lPyw1X8x/NE/nTzaXudISczTPKK&#xA;fXrkGvpjoPST9qm37A70VL64VVVQqgBQKADYADFD4y/5yN1s6r+cV1ZX8jx6dpYtrNSoqyRMiyyu&#xA;q9OXKVqeO2LIMy/MD/nJXSLPy9F5Z/LiF4IY4FtV1SVDGIYUUIFt42+Llx25tSnYE7hRSZf842/k&#xA;zd2U0fnnzJCUuZELaLaSj41Eg3uZAehZTRAex5eGKl9FYoUL6+s7Cynvb2Zbe0tkaW4nc0VEQVZi&#xA;fADFXx/+Yn5iebfzg82xeWvLUUp0Uy8dP09fhMhXrc3J7Add9kHvUlS9n/Lb/nGzyd5at4rvXoo9&#xA;e1ugMjTrytIm8IoWFGp/NICe4C9MVtgf/OWfm7R2GleS7GKM3OnuL27ZFUCANGVihWg25K/Nh4cf&#xA;oVD1/wDIzypd+WPyy0jT71DHfTK95dRmoKNcMXVCD0KoVVh44oLPcVfDf5++b/8AE/5m6nNE/Oy0&#xA;0jTrPw4W5Icj2aYuw9jiyD2T/nE7yEbHRbzzjeR0uNUra6dyG4to2/eOP+Mki0/2Hvigq3/OW3m0&#xA;WXlXT/LMD0n1eb17pR/yz2xBAP8ArSlSP9U4qHn/APzjT5CbUr/UfNtzGfqukKILEno11LTmff04&#xA;W/4YHtmp7cgZaSYHl94cjTSrIH1fpMvqafCT1UcD/sdv1ZPsfLx6aHkK+W33MNQKmWDfmP8Akn5V&#xA;88a1aa5q0t0tzY2/1f6vC6rFNGjNIivVWYfE5qVINMzNSZDFIw+rhNe+tmGOuIXyZf5ZMa6WkEah&#xA;I7cmNEUUAUbgAeG+ab2bzmemo84yI/T+lyNbGp+9jf5ufmjp/wCX3lwX8ka3Wp3TelptiW4+o43Z&#xA;2pU8Ixu30DvnQOIkX5HfnHfee9J1W416G1sbnTZkUNb8kieOVSR8MjyNyUoamuUZ9TjxfXIR95Zx&#xA;xylyFvN/za/P3XPMWrHyf+XjS+jK5t5dRt6+tdOdisBFDHGN6vWp67L1nPLGMeImooESTSQWv/OP&#xA;dnY6emqedPMkWmJIw9ZBwCh2Bbh9ZmYKz7HYKfauc/Lt6U5EYcZl57/cP1uWNMAPUae/fl1IsvlG&#xA;ytfLmqSappFkGtYL+Z0dyIz9kuFTkErxFB0FMrke0svIcAPuH65J/cx82G/nD+b8Pka6g0tQur65&#xA;KvqTW5kZY7eMj4C5oxLP2QU238Kxh2DnmbzZeL5n7/1JOqiPpjSdfltreteYPIkHmTWo4YLnU5pP&#xA;qFtbqyolvExTk3NnZmZlbetKU2zD7Z0GHS4QYkmcjQv7fx5tmmyynLfkHmv/ADkX+a0aWS+QNDnD&#xA;BaN5guIzUcweQtQw/lbeT6F/mGdP2ZpfA08Yda3955uFmnxTJeZfkjpFpqP5k6VLfukOmaUzapfz&#xA;ykLHHFZr6oZyduPqBQa+OZ7WWV/m3+aGt/mp5otfKvlaKWTRROEsbZQVe7mFR68g/ZRRUqD9las3&#xA;soYx+bH5V6l+XWo6XBJM1xHeWqTfXUBVPrSH99Gh2PwHiR3oQcUvQZv+cvPMZ8vRWkGi26a4Iwku&#xA;pySs8RYCnqLbhVoT1oXIB8Rtiikn/Lf8ofOH5o643mjzbcXEejzuJLi/m2mu6U/d24NAqU25AcVG&#xA;yjwVfW+l6Xp+ladb6bp0CWtjaIIre3jFFRFFABihFYq8l/NX/nHjRPPes/pyHUpNI1WREjupBEtx&#xA;FKIxxRmTlEwcKONefQDbFNu8hf8AONnkTytdpqF4X13UomDQyXaqII2HRkgFQWHi5b2pitvWsUOx&#xA;V85f85Y/mHJBBaeSLCUq1yq3mrlTSsYb9xCafzMpdh7L44pDPPyC/K2DyX5TivbyGnmLV41mv3Yf&#xA;FFG3xR248OI3f/K9gMVL1HFDzef8h/Jl1+Yc3na9M93cyyLONPlKtbCdAAJKU5MPhBCk0r7bYpt6&#xA;RihjP5meah5V8iazroYLPa27C0r/AMtEtI4du/7x1r7Yq+Ify98mah5284WOhW3L/SX53twN/St1&#xA;NZZSTtsOlerEDviyffemabZaZp1tp1jEsFnZxJBbwr0VIxxUfcMWL4x/PbW7jzh+cF3ZWDCdLWSL&#xA;SLAVAXlGeL/Edqeu77+GLIPc9N/ML8oPyy8l2vlhNbhvrm2gK3CaeDdPLcOCZnLJ+7UlyaB3FBQd&#xA;sqz4+PHKP84EfNYmiClP5q/nZ5g8jWenQaHZW066tG88OoXHN1XjwBCxqUBPF1NS3fpmj9np/u5w&#xA;POMvv/scrVjcFmn5DedPNPnDyMdY8xLH9YN3LDazxJ6YlhjVBzKj4a+oXWq+HTOhcQsgj1fT9Bg1&#xA;a61KZbewsUaeaVuipGTWniTUUHc7ZyXs/wDutRmw9x2+Br9Ic/V+qEZPiz80fzC1Lz55rudZuA0d&#xA;kh9HTrQmqwwAniPDk32mPj7AZ1rgofTfOd1pXkm98v6czR3Gr3JbUJlqD9WSNVWJT/lsW5e23c5r&#xA;sugGTURyy3EI7Dzvn8Nqbo5agYjq+l/+cffyUi8raYnmHXoA3mK/jBit5AD9UhajBaEbSt+34fZ8&#xA;a508cZCpCw08RHJ5/wD85V+bpNX81ab5M04GUaaBJcRR7l7y5AEcYUdSkZFP9cjJAUgPTNX8y6X+&#xA;Sf5SaVpjcJ9dFuY7O0rUS3j1knlalD6SSOST8h3wq+TtZt/M+p28nm/VI5p7fUruSJ9TkHwyXIHN&#xA;1HyB2pt2HTFLNv8AlfXmWHyPpnlXSbVLCWwg+qnUo3ZpWWp+KNaD03IIFanxFO2t1PZkM+aOSZsQ&#xA;5R6X3n9TdDMYxIHVGQ/lPdeWPyz1Xzz5siMWpXUS22haZNtIsl03ptPOrDZ1jLPGvUfaNCBTZNLz&#xA;TQ7LXNSvRpGjRzXF3qVIPqlvUmZQwk4sB1UMgc12FKnpir7I/JX8ldO8hacL29CXXme6Sl1dDdYV&#xA;O5ggJ7fzN+18qDFBLO/M3lTy75n0xtM16wjv7JiGEclQVYftI6lXRvdSDihiOi/84/8A5TaReLeW&#xA;+hJPOhBT63JLcopH/FcrNGfpXFNvQlVUUIgCqooqjYADoAMUN4q7FXYq7FXYq7FXxncBfOf/ADku&#xA;8V1+9t5NbMRU9Gt7BuIXfs0dviyfZmLFZFcQSsyxSJIyGjhWBKn3p06YqvxV2Kvm3/nLfzxAYtO8&#xA;m2kwaYOL7VEU/YAUrbo3+tyZyP8AVOKQzL/nG/8ALH/CnlX9N6jFx13XEWRww+KG1+1FF7Fvtv8A&#xA;QD9nFSmv58fmcnkfyhItnKBr+qhrfTFH2oxSklx/zzB+H/KI7VxUPj7yj5O8x+cta/RWhwC6v2Rp&#xA;3DyJGAikBnZpCvdh74pe2eW/+cQNVl4SeZNchtV6tbWCNMxHh6snpqp/2DYotH/m75Jj17yx5e0j&#xA;y5I19JpuqLotvPKwZ+KlrR2lZQBVZIV5Gg8c5rs+8WuyQP8AFZ+2x9hczLvjBe/+WvL+n+XdAsNE&#xA;09eNpp8KwReLcR8Tt/lO1Wb3OdK4T5Z/P/8AMCfzZ5v/AMHeWC91ZpOkEog3+t3lQojWn2kjfYdi&#xA;2/QA5rsPZ8Iaief+KdfDlfzLfLKTAR7mO/m75UsvIukeXvKCMkusSRNqvmC4TcNNKfSgjB68YVSQ&#xA;L48i37WbFqTb8gfyyl1a6/xhqUNdJ02YJYo42mugOXP3WHb/AGVPA5ovaHU5MOnuHWQB92/9jk6S&#xA;AlPd9b6jq1rp+j3OrXB42trbvdSn/IjQyH8Bm4x5oyhGfSQH2uMYkEh8hfk1b3nmr80L/wA5albN&#xA;fPprS6q1uhVfUvZWJtolZyFWjVdSTQcPoyrVa3FgAOQ1bOGOUuTKdc/J3z95681Nr/nLVLa2ilZR&#xA;9TtGkmaG3U1EEXJVRfnU7nka5qMvtFiH0xMvs/W3x0h6l7RN5T0u+8qQ+VP0FA/l+FFjhtXUgAJu&#xA;GVyVIetSXB5Vqa5iHtPtDL/dY6HfX6SQGYw4Y/VJ5Zrd1+TX5OzySWukQ6p5xFDa2fqNO1sSKh5Z&#xA;JDIsPXbiOf0Gubns2GqAJ1EgZHkBW3yaMxgfoeE+evzG82ed9S+u67dmREJ+rWUdUt4Ae0cdT9LG&#xA;rHuc2bS+uvyR/K/R/J/lSxu2s1XzFqFskup3T/FKpkAf0AT9hUqAQvUiprigvSMUOxV2KuxV2Kux&#xA;V2KuxV2KuxV8Nedm1XyD+duo6hHHWex1VtRtVevGSGaT10BNOjI/FiPfFkr/AJi/n75584zSQR3L&#xA;6PopJCadaOVLL/xdKOLyfLZf8nFaTT/nFyy1ub80re5seY0+1t5zqzKSEMTxMkSN2NZuDAe1e2KC&#xA;+ysUMX/Mnz7pvkfypda5e0klUenY2taGe4YfAg9u7HsoOKvjnyHpmo/mL+a9iuqMbqTUrw3mquRs&#xA;YYz6sw8FUovBR22GLJ9t+ZfMekeWtCu9a1aYQWFknORtqnsqINqszUVR44sXwh+YvnvVfPHmm612&#xA;/qiufTs7YGqwQKT6cYP4se7EnFkzf/nFlmX814QCQGsrkMB3FFND9IxUvrjzTrH6F8s6trFATp1n&#xA;cXYU9CYYmkA+njixeEf84weYJL3Rby2un9W5tNRMzSPueN2oNd+/NZDXOa7R/da3HkH8VD9B+wub&#xA;i9WMhM/+ciPzti0Kym8peXbgNrlypTUbqM72kTDdAR0lcH5qN+pGdK4YCR/kN+U1xoNnaedtbgKa&#xA;hdGul2zj4oYSAfVYHo8o6eC/623N+0WpyYRjMT6eOz8KI/S5mkgJcQPOnm/ma21b81PzvvrOwBX6&#xA;5eNbRyEVWG0tP3RlYdqRx8yK7sadTnRguI+vbXy1pmheUYdD0uIQ2OnwqkCd6IeTMx7sxqzHuTmq&#xA;7bw+JpJjuF/Lf7m7SyrIEn1nylJ5j8n6pYx3RjuL6zuLWAnZUd42ROR3PGpFads0PYnZMcsYZ5TJ&#xA;MTy7uE/jucvU6gxJiA8E/LT8j/zrstTubQzt5W0u5KLqN4skMskixFqCFY2duXxmjVUb9c6zPpce&#xA;WuOPFXJwI5DHk+oNB0Gx0TTYbG1aWURLR7m5kaa4lbu8sr/EzH7uwoNsnjwQh9MRH3BiZE8y8Q/P&#xA;v/nIGXRJ7jyp5SmH6VWqalqikH6se8UPb1f5m/Y6fa+zagBiX5X/APOPU2oW7eb/AMxJXstHRGvH&#xA;spWZZ5kAMjy3L/ajSm5H2z/k91bYx5I0q1/Mj86I5UtUtPLtvP8AWjaqoSKHT7QgQQFR8I58URqd&#xA;2JyGTJGAuRAHmyAJ5Ps+K7tZXKRSo7jcqpByjFrcOSXDCcZS8issUoiyFXMpg7FXYq7FXYq7FXYq&#xA;7FXYqkvnPzdpPlHy5ea9qr8bW0WojWnOSRtkjQHqzNt+PTFXyRo+i+dPz2/MG4v7uQW9lFxF1cgV&#xA;is7XkTHDENuTHfiO5qx74snqem/84geVIrnnqOu3t1bg1EMKRQEjsGc+t9NAMUW9l8qeTfLXlPTB&#xA;pugWMdja15Scas8j0pzkdiWdvcnFCZX19Z2FlPe3sy29pbI0txO5oqIgqzE+AGKvh385vzTvPP8A&#xA;5ma4QtFodjyi0q1bshPxTOP55KAnwFB2riyZZ/zjx5i8leSrbW/N/mS+SK5ZVsNNso/3l1INpZik&#xA;Q3oSIwHai9RXFBS/zV5u89/nj5ut9H0i1aLTIWLWtgGPpQpXi11dSAU5UPXt9lRU/EpS38wfKOmW&#xA;PnbR/wAvNDcSvY+jbX9+V3lv7sq08ppWiIhRQv7IU96nFU2/5xXid/zVjZekVjcu/wAjxX9bDFBf&#xA;WHnPRH13yjrWjRkCbUbG4toSxoBJLEyoTTsGIOKHwz5d80+dvJOoajpumc7HUbki2u7d4g0qyRsQ&#xA;vFWBo6ljTbvmHq9HizUcn8PwboZJR5dXs35Jf8493t3eR+bPPcDFCRcWWlXHxSTSMeXrXQbeld+D&#xA;bsftbbHKjISAI3Bazts+iNfi56a57xsrD76fxzSe0eHj0hP80g/o/S5GjlWT3oPyz5a8tafz1PTd&#xA;LtbO/vl/026ghSOSVq1bmygE1bc++Z3ZebxNNCX9H7tmvPGpkJ5IgdGQ9GBB+nbMzJATiYnkRTUD&#xA;RtJ/LsnCK4gc0MT1Ne1dj/xHOX9mMnDDJjl/BL9n6HO10bII6hHy6pp8X250r4KeR/4WubrN2tpc&#xA;f1ZI/Df7rcaOnmeQYX+af5jR+W/Iur6pYBjfRxelZuQAFmmYRI9D14F+VKdsxtP27hz5RixiRJ68&#xA;ht9v2Nk9LKMeIvBP+cbvIp1zWbvzbewfX202YLaLN8am7cc2lfkd2QEFa9zXqBku09VqYERwQ4ie&#xA;Z6D7ha4YQO8zT0b8yvzz8raLd3Pl7VEfWZwvC9s7YQyWymu8MzFuJYU+JaNTofDNfDSdo5d8k+D3&#xA;H/if1thnhjyFvQPJGjPd+XLK9u9OGhtdJ6o0qLjyiRt0DkKgDlaFl4/D07ZYPZ0SN5Mhl+O82xOr&#xA;rkE4vdGNsq3NgWEkW7LWpI8R/TMTX9h/lwMumvihz8/x1HUNuLVcZ4Z8ij9M1GO9h5fZlXaRPfxH&#xA;tm77K7Tjqsd8pj6h+Oji58BxnyRmbRodirsVdirsVdirsVdir5N/5yR83ah5s/MGz8j6Rylg06WO&#xA;3WFekuoXFFJ2/wB9hgg8Dy8cUh9G/l15G03yT5Ts9CsgpeJfUvbgChmuXA9SQ99yKL4KAO2KGS4q&#xA;7FXyt/zkL+bs/mfU18ieVXa5sVmWK9lt6sby55USCPj9pEb/AIJvYCqkPOvzM8qW3kuLSfLD8Zdc&#xA;9Aahr060PGa42itlP8sMa1r+0XJ8AFKE/KnyPZedvOdr5fu9R/RqTo8iyBPUeQxDm0SAkAMUDGp6&#xA;U6HFX2dofljyd+W3lS7bTLVbWwsYHur64b4p5RChZnlkO7NQGg6DsBixfMP5N2115h85ea/PWoiv&#xA;6Isb/VJXG4F1cpJwArtspkZa/wAoxSmX/OItqZPzC1O5IBWDSpFB3qGkuIaU/wBirYqX1vihLtY0&#xA;60ltprj0IzdKlRPxHqUXenKlemartvD4mkmO4X8t2/TSrIF+iy+ppsXilUP0Hb8Mh2Dm8TSQ8tvl&#xA;+xOqjWQom6i9W2li/nRlHzIzYavD4uGcP50SGrHLhkCl/lyXlZNGesbkfQd/11zR+y+bi05j/Nl9&#xA;+/63K10anfeE1zpHCY3Jp8cuty20jFVcl1IpuSOVP15wOTs2GXtGeKRIErlt5+r9bthmMcIkE0i0&#xA;HTY6VQyEd3J/UKDOiw+zukhziZe8/qoOHLWZD1pjP5teRJfNf5fapoWlrHDfzLHLa1oitJDIsgRm&#xA;ptz48a+ObXDpcWP6Ixj7gA0HJI8y+RdP8o/nRo1zc6Tpmma9YSXVEuoLRLqOOUCoHNoqRuu5+KtM&#xA;vQ9n/Jf/AJxsuNMv7fzH51VDdQMJbLRwRIEkBqslw6kqxU7hFqPE9sUEvonFDsVSHU4RYXQvbR1U&#xA;k/vIajv7eBzi+1sA0eYajBIA/wAUb/R3HqOnP3bLTy8SPBIfFN7K8iu7cTR7dmXuG7jOo0GuhqcQ&#xA;nH4juPc4OXEYSoq+ZjW7FXYq7FXYq7FXYq+NPyAP+Ivzxh1XUP3lwzXupMG+KszqxqT7NJX6MWRf&#xA;ZeLF2KvnT8//AM/YoIbjyj5Qued29YtV1WE7RAGjQQsOrno7Dp0G/wBlSAmP/OPP5KL5dtU84+Zo&#xA;gmryxlrC1lFPqkLDeSQMPhlZf+BX3JoqS8m8r2w/NP8APo3V1H62nXl7Je3Mbg0+pW28cb96MiJG&#xA;fnilCeUNL/w7/wA5BWOk2rlY7DXms4mrUmETtEKnf7UZ3xV7/wD85ReaDpH5avp0TlbnXLhLUAdf&#xA;RT97Kfl8AQ/62KA8/wDIdinln/nGHzRrsgCXHmBZokYjcwyMLFF/4JpD9OKo3/nDvSCIvMusOpoz&#xA;W1pC3aqh5JB/wyYqX0lihp0DoyHowIPyOQyQEomJ5EUkGjaUeXHZY7i3b7Ub1p89j/xHOY9l5kRy&#xA;YjzjL9n6HO1wsiXeE4zqnASXSP3GqXlt0BJZR7A7fg2cl2L+61mbD05/I7fZJ2Gp9WOMk6zrXXpL&#xA;qn7jWLO46BqKx+RofwbOS7X/AHOvw5eh2+2j9hdhp/VilFOs6116ySeGIVlkVB/lED9eU5dRjx7z&#xA;kI+80yjAnkEHLrmmx7erzPggJ/Hpmrze0Gkh/Fxe4fgN8dJkPRCt5i5njbWzyHtXr9y8s10vafjN&#xA;YcUpH8dBbcNDX1Spr6x5in/u4RCviQAf+HJ/VkfzPaub6YDGPdX+6/UngwR5m/x5O/RGqTf703hA&#xA;PVVJI+74Rj/Imsy/32b4Cz/xIX8zjj9MVDUNIs7KzaUuzykhUqQBU+w9sxO0uxcGk05ncpT5Duv+&#xA;xsw6meSddE00a29DT4wRRpP3jf7Lp+FM6HsLS+DpYg85eo/H9lOHqp8Uz5I3Nu47sVdirsVdirsV&#xA;dir4M0+/1v8AKn80Gl9HneaHdSQyQSfCs8DAod6dJYm5K1O4OLJ9Fx/85YflmbBbh4dRW541azEC&#xA;Fw3cB/UCEe9cUU8q/MH/AJyK85edm/QHlezl0yxvD6Po25aW+ueW3Dkg+EN/Igr2LEYrT0D8kP8A&#xA;nHVNDkt/MvnCJZdYQiSw0skPHbHqJJeoeUfsgbL13b7KpLP/AM9vMx8vflbrdzG/G5u4hYW3Y8ro&#xA;+mxB8VjLN9GKA8u/5xF8tR2+na75uugEVyLC3lagCxxATXB37EmP/gTiksG/Jm3fzf8An8daVCbd&#xA;bu91mfb7KsztHX/nrKgxUpz/AM5e6zJP5x0fSAT6NjYm4p29S6lKt/wsC4qFb8+PMFlon5beUfy6&#xA;spEa6itbW61VYyDxCQ0VWpUfvZHaT6AehxUPZPyA8pSeWfyx0yC4T073UeWo3aHYhrgD0wR2IhVA&#xA;R44qXouKHYqktp+48wXEXaYEj5mj/wBc5LR/ue1MkOkwT8/V+t2GT1YAe7+xOs6116S3P7jzFDJ2&#xA;mAB+ZBT+AzktV+57UhLpkH/Hf1Owh6sBHd/anWda69LtasZruCP0QDJG1QCabEb75ou3uz8mpxx8&#xA;P64n7PxTlaXMIE3yKG/RutT/AN/d8AeoUn9S8Rmv/kvtDN/e5eEeX6hQbvHwx+mK+Py3ajeWV5G7&#xA;0oo/ifxy7F7LYRvOUpH5fr+9jLXS6ABGRaTp0VOMCkju3xf8Srm0w9jaXHygPjv99tEtTkPVFKqq&#xA;KKAB4DbNjGIiKAoNJNt5JDsVSTVibvU7eyH2V+KSnvuf+FGcj2yfzOsx6cchufjz/wBiPtdhpvRj&#xA;M07AAFB0zrgKde7FXYq7FXYq7FXYq7FWC/mN+TXkvz7wn1WKS21OJeEWpWrBJuAqQj8gyuoJ/aFR&#xA;2IxV53bf84f+U1mDXOu38sNd0jSGNiP9YiQf8Lim3qfkn8rvI/kuM/oHTUhumXjLfSky3LjuDK9S&#xA;oP8AKtF9sUMrxV85f85h646WPl3QkY8ZpJr6de1YlEUR/wCSkmKQhfMPmq28gf8AOO2heXLSQLrv&#xA;max9XiPtpb3pM08reHwSekvv/qnFWTf84r+QZNG8q3Hma9j4XuulfqoPVbOOvA+3quS3yCnFSx7/&#xA;AJyY/Krznrvmmz8w6Dp8mp2rWiWtxFbgNLHJG7sCUryKsr9QNqGvbFQlv5Rf84169PrEGt+eYBa2&#xA;Fs6yxaW7LJNcOtCvqhSwSPxUnkelAMVt9SYodirsVSXVf3Gr2dx0DUVj8jQ/g2cl2x+512HL0O32&#xA;0fsk7DT+rFKKdZ1rr0m8xKUFtcr1jen/ABsP+I5yntPEx8PKOcZftH3OfoTfFHvThWDKGHRhUfI5&#xA;1MJCQBHIuCRTeSQ7FXYq7piSqHl1Gxi+3OgI6gGp+4VzAzdqabH9U4/O/sDbHBOXIFBS+Y7FPsB5&#xA;D7Cg/HNXm9p9NH6RKXwr7/1N8dDM86Cl+mNTn/3msyAejMCw+/4RmL/Lesy/3OH4mz+oNn5XHH6p&#xA;KulWF2t1LeXgAlk2UVB69emZPY/Z2aOaefOKnL8dGGozRMRCHIJrnSOE7FXYq7FXYq7FXYq7FXYq&#xA;7FXYq7FXzD/zl55f1V9Z0TXI4Hk0/wCqtZyTIpZUlWUuA5HTmJPhr1ocUhj/AOUv5I+afO2rWmte&#xA;bkuYfLtqkSIbouJrmKFQsUEIf4lhCgDl0psu+4Vt9dwwxQQpDCixwxKEjjUAKqqKAADoAMUL8Vdi&#xA;rsVdirsVS/WbCW7t19KnqxtUA7VB6iuaTt3s6epxDg+uJtytLmEJb8ihBrOoWx431sadOa7f1U5r&#xA;B25qtPtqMW3eNv1g/Y3flYT+iTtS1KxvdPkVH4yijKjih2P3dMHanaum1elkImpiiAdv2cr6pwYJ&#xA;48gJ5IrT9RtV06AzTKjBeJBIr8O3Tr2zZdm9p4Y6WBnOIIjXPfbblzaM2CRyGg1L5h05PslpD/kr&#xA;T/iVMhm9pdLDkZS9w/XSY6LIfJD/AKdvJtrWzZv8o1YfgB+vML/RDny/3OEnz3P3frbfycY/VJ1P&#xA;Mdx3WBT8h/zU2PD2tm7sY+H/AB4renj5uGgXEprdXbP4gVP4sf4YR7OZcm+bKZfM/ef0L+cjH6Yo&#xA;mLQNOT7StIfFm/pTM7D7N6WHMGXvP6qapa3IfJGRWlrDT0okQjuAK/fm1w6PDi+iEY/Bx5ZJS5lV&#xA;zJYOxV2KuxV2KuxV2KuxV2KuxV2KuxV2KuxV2KuxV2KuxV2KuxV2KuxV2KubjQ8qce9emCVVvyUJ&#xA;LqH+H9+VPU/4o6/h8P35yfaX8l73XF/tfP8A4n5uww+P8PP8Wg7b/D1f3nrf89On/CZqtL/Jd+vx&#xA;P87/AI43z8fpX496b2v6F29D0eXbpy/4bfOo0f8AJ/8AkvDv4X9u7g5PG/itHj2zdBxnYq7FXYq7&#xA;FXYq7FXYq7FXYq7FXYq7FXYq7FX/2Q==</xmpGImg:image>
               </rdf:li>
            </rdf:Alt>
         </xmp:Thumbnails>
      </rdf:Description>
      <rdf:Description rdf:about=""
            xmlns:xmpMM="http://ns.adobe.com/xap/1.0/mm/"
            xmlns:stRef="http://ns.adobe.com/xap/1.0/sType/ResourceRef#"
            xmlns:stEvt="http://ns.adobe.com/xap/1.0/sType/ResourceEvent#">
         <xmpMM:InstanceID>xmp.iid:0280117407206811822AC0054167556E</xmpMM:InstanceID>
         <xmpMM:DocumentID>xmp.did:0280117407206811822AC0054167556E</xmpMM:DocumentID>
         <xmpMM:OriginalDocumentID>uuid:5D20892493BFDB11914A8590D31508C8</xmpMM:OriginalDocumentID>
         <xmpMM:RenditionClass>proof:pdf</xmpMM:RenditionClass>
         <xmpMM:DerivedFrom rdf:parseType="Resource">
            <stRef:instanceID>uuid:cc3b445b-db04-2e48-b05f-b81f2ba4a110</stRef:instanceID>
            <stRef:documentID>xmp.did:00d20aae-a8ce-4965-a380-22a76784d910</stRef:documentID>
            <stRef:originalDocumentID>uuid:5D20892493BFDB11914A8590D31508C8</stRef:originalDocumentID>
            <stRef:renditionClass>proof:pdf</stRef:renditionClass>
         </xmpMM:DerivedFrom>
         <xmpMM:History>
            <rdf:Seq>
               <rdf:li rdf:parseType="Resource">
                  <stEvt:action>saved</stEvt:action>
                  <stEvt:instanceID>xmp.iid:4459d695-bf4c-4619-bcac-aa6112e695d3</stEvt:instanceID>
                  <stEvt:when>2015-11-26T14:15:39+01:00</stEvt:when>
                  <stEvt:softwareAgent>Adobe Illustrator CC 2015 (Macintosh)</stEvt:softwareAgent>
                  <stEvt:changed>/</stEvt:changed>
               </rdf:li>
               <rdf:li rdf:parseType="Resource">
                  <stEvt:action>saved</stEvt:action>
                  <stEvt:instanceID>xmp.iid:0280117407206811822AC0054167556E</stEvt:instanceID>
                  <stEvt:when>2016-02-23T11:36:26+01:00</stEvt:when>
                  <stEvt:softwareAgent>Adobe Illustrator CS6 (Macintosh)</stEvt:softwareAgent>
                  <stEvt:changed>/</stEvt:changed>
               </rdf:li>
            </rdf:Seq>
         </xmpMM:History>
      </rdf:Description>
      <rdf:Description rdf:about=""
            xmlns:illustrator="http://ns.adobe.com/illustrator/1.0/">
         <illustrator:StartupProfile>Print</illustrator:StartupProfile>
      </rdf:Description>
      <rdf:Description rdf:about=""
            xmlns:xmpTPg="http://ns.adobe.com/xap/1.0/t/pg/"
            xmlns:stDim="http://ns.adobe.com/xap/1.0/sType/Dimensions#"
            xmlns:xmpG="http://ns.adobe.com/xap/1.0/g/">
         <xmpTPg:HasVisibleOverprint>False</xmpTPg:HasVisibleOverprint>
         <xmpTPg:HasVisibleTransparency>False</xmpTPg:HasVisibleTransparency>
         <xmpTPg:NPages>1</xmpTPg:NPages>
         <xmpTPg:MaxPageSize rdf:parseType="Resource">
            <stDim:w>302.219727</stDim:w>
            <stDim:h>183.125977</stDim:h>
            <stDim:unit>Pixels</stDim:unit>
         </xmpTPg:MaxPageSize>
         <xmpTPg:PlateNames>
            <rdf:Seq>
               <rdf:li>Cyan</rdf:li>
               <rdf:li>Magenta</rdf:li>
               <rdf:li>Yellow</rdf:li>
               <rdf:li>Black</rdf:li>
            </rdf:Seq>
         </xmpTPg:PlateNames>
         <xmpTPg:SwatchGroups>
            <rdf:Seq>
               <rdf:li rdf:parseType="Resource">
                  <xmpG:groupName>Standard-Farbfeldgruppe</xmpG:groupName>
                  <xmpG:groupType>0</xmpG:groupType>
               </rdf:li>
            </rdf:Seq>
         </xmpTPg:SwatchGroups>
      </rdf:Description>
      <rdf:Description rdf:about=""
            xmlns:pdf="http://ns.adobe.com/pdf/1.3/">
         <pdf:Producer>Acrobat Distiller 10.1.16 (Macintosh)</pdf:Producer>
      </rdf:Description>
   </rdf:RDF>
</x:xmpmeta>





















<?xpacket end="w"?>
	</metadata>
<path fill="#fbdb00" d="M154.727,136.8c-0.877,0-1.662-0.614-1.847-1.506l-8.147-39.256c-0.212-1.021,0.444-2.021,1.466-2.233
	l52.709-10.937c1.013-0.213,2.021,0.444,2.232,1.465c0.212,1.021-0.443,2.022-1.466,2.233L148.816,97.12l7.762,37.407
	c0.213,1.021-0.443,2.021-1.465,2.232C154.984,136.787,154.854,136.8,154.727,136.8"/>
<path fill="#fbdb00" d="M137.855,57.659c-0.877,0-1.663-0.614-1.847-1.505l-4.332-20.876c-0.213-1.022,0.443-2.022,1.465-2.234
	c1.014-0.209,2.022,0.444,2.233,1.466l4.332,20.876c0.213,1.021-0.444,2.021-1.465,2.233
	C138.112,57.646,137.982,57.659,137.855,57.659"/>
<g>
	<defs>
		<rect id="SVGID_1_" x="0.06" width="302.16" height="183.066"/>
	</defs>
	<clipPath id="SVGID_2_">
		<use xlink:href="#SVGID_1_"  overflow="visible"/>
	</clipPath>
	<path fill="#fbdb00" clip-path="url(#SVGID_2_)" d="M142.77,183.126c-0.196,0-0.392-0.032-0.579-0.092l-21.511-6.922
		c-0.648-0.208-1.133-0.748-1.27-1.414L87.82,22.46c-0.213-1.022,0.444-2.022,1.465-2.234l97.247-20.18
		c0.307-0.07,0.633-0.062,0.955,0.033h0.002l0.001,0.001c0.032,0.009,0.064,0.02,0.096,0.031v0.001c0.002,0,0.004,0.001,0.008,0.002
		c0,0,0,0,0.001,0c0.317,0.116,0.586,0.309,0.79,0.55l16.367,18.546c0.455,0.516,0.594,1.238,0.362,1.885l-8.365,23.458
		c-0.226,0.635-0.773,1.101-1.437,1.223c-0.661,0.123-1.341-0.118-1.777-0.631l-15.796-18.482c-0.43-0.502-0.565-1.192-0.357-1.819
		l6.746-20.44L91.903,23.542l30.981,149.311l19.99,6.433l75.737-15.717l6.864-19.438l-65.992,13.694
		c-0.485,0.104-1.001,0.005-1.421-0.271c-0.419-0.274-0.711-0.705-0.812-1.195l-4.37-21.065c-0.212-1.02,0.444-2.021,1.466-2.232
		l57.256-11.882c0.664-0.138,1.353,0.093,1.801,0.601l16.364,18.545c0.223,0.243,0.384,0.547,0.455,0.893
		c0.075,0.361,0.041,0.719-0.078,1.04l-8.324,23.573c-0.222,0.623-0.75,1.086-1.398,1.22l-77.268,16.035
		C143.027,183.112,142.898,183.126,142.77,183.126 M156.963,136.377l3.603,17.365l64.238-13.329l-13.509-15.312L156.963,136.377z
		 M181.303,25.018l12.984,15.193l6.895-19.336L187.709,5.608L181.303,25.018z"/>
	<path fill="#fbdb00" clip-path="url(#SVGID_2_)" d="M142.767,183.126c-0.876,0-1.662-0.614-1.847-1.506L111.428,39.495
		c-0.212-1.022,0.444-2.022,1.466-2.234l65.897-13.674c1.011-0.211,2.021,0.444,2.233,1.465c0.213,1.022-0.444,2.022-1.467,2.234
		l-64.046,13.291l29.108,140.275c0.212,1.021-0.444,2.021-1.466,2.233C143.025,183.112,142.895,183.126,142.767,183.126"/>
</g>
<path fill="#fbdb00" d="M150.912,118.442c-0.876,0-1.662-0.614-1.847-1.507c-0.212-1.02,0.444-2.021,1.466-2.231l39.035-8.102
	l7.621-21.479L182.33,68.294l-40.146,8.331c-0.489,0.101-1.003,0.004-1.42-0.27c-0.419-0.275-0.711-0.705-0.813-1.196l-3.943-19.006
	c-0.213-1.021,0.444-2.021,1.466-2.233l57.113-11.851c1.015-0.212,2.021,0.444,2.233,1.465c0.212,1.022-0.444,2.022-1.467,2.234
	l-55.263,11.467l3.175,15.307l39.37-8.17c0.666-0.136,1.352,0.092,1.8,0.599l16.32,18.486c0.454,0.514,0.594,1.234,0.364,1.882
	l-8.352,23.53c-0.22,0.621-0.75,1.083-1.396,1.217l-40.075,8.316C151.169,118.429,151.04,118.442,150.912,118.442"/>
<path fill="#231F20" d="M120.287,88.524c0.943-0.253,1.894-0.955,2.54-2.243l2.157-4.144c0.431-0.784,0.651-1.513,0.66-2.073
	c0.032-1.904-1.621-2.798-3.298-2.349c-0.944,0.253-1.894,0.955-2.542,2.242l-2.155,4.146c-0.431,0.784-0.651,1.512-0.66,2.071
	C116.957,88.078,118.61,88.974,120.287,88.524"/>
<g>
	<defs>
		<rect id="SVGID_3_" x="0.06" width="302.16" height="183.066"/>
	</defs>
	<clipPath id="SVGID_4_">
		<use xlink:href="#SVGID_3_"  overflow="visible"/>
	</clipPath>
	<path clip-path="url(#SVGID_4_)" fill="#231F20" d="M299.024,68.818c-0.943,0.253-1.999,0.981-2.648,2.382
		c-0.648,1.287-1.184,2.212-1.934,3.304c-3.207,4.65-6.901,7.201-9.417,7.876c-2.097,0.561-2.606-0.083-2.586-1.313
		c0.061-3.584,9.44-15.574,9.584-24.196c0.121-7.278-8.423-7.887-12.573-9.227c-0.104-0.084-0.205-0.28-0.413-0.335
		c0.111-0.365,0.12-0.925,0.128-1.372c0.058-3.473-3.182-3.048-3.812-2.879c-1.362,0.365-4.209,2.13-4.266,5.489
		c-0.028,1.681,0.784,3.023,1.917,3.946c-2.694,5.181-6.666,11.819-9.867,16.022l-1.706,2.242
		c-4.692,6.162-13.224,17.257-20.037,19.082c-4.506,1.208-5.898-2.879-6.043-6.741c10.704-3.761,21.509-13.457,21.654-22.191
		c0.084-5.04-3.304-8.256-8.545-6.851c-6.555,1.757-16.406,11.929-18.824,24.279l-0.901,1.186
		c-5.229,6.864-10.435,12.495-15.836,17.399c2.652-8.961,4.881-17.474,7.179-23.774c0.762-1.988,1.09-2.857,1.844-4.285
		c0.214-0.392,0.22-0.728,0.437-1.121c0.323-0.644,0.438-1.232,0.447-1.792c0.031-1.903-1.518-2.825-3.194-2.376
		c-1.048,0.281-2.001,1.094-2.651,2.495l-0.104,0.139c-1.969-0.921-4.471-1.03-7.091-0.328c-8.396,2.25-19.126,12.141-23.593,23.117
		c-0.056,0.069-0.111,0.122-0.167,0.196l-1.706,2.242c-2.133,2.8-11.623,15.042-16.821,20.115c-0.741,0.757-1.271,1.119-1.479,1.175
		c-0.105,0.029-0.207-0.054-0.204-0.278c0.006-0.335,0.118-0.812,0.341-1.651c1.666-6.133,6.694-13.501,6.785-18.874
		c0.097-5.823-3.294-9.041-8.954-7.525c-6.707,1.798-13.623,9.784-19.5,18.159c0.899-3.806,1.481-7.419,1.528-10.218
		c0.015-0.896-0.239-4.507-3.697-3.58c-1.677,0.449-2.954,2.018-3.49,2.831c-2.57,3.922-6.738,9.831-8.871,12.633l-1.706,2.242
		c-0.22,0.287-0.393,0.563-0.542,0.832c-3.885,5.205-12.238,16.974-16.886,18.22c-0.637,0.171-1.053-0.131-1.323-0.635
		c-0.487-0.906-0.504-2.467-0.493-3.115c0.033-1.974,0.639-4.317,1.523-6.771c1.573-4.365,4.024-9.077,5.686-12.664
		c0.435-1.006,0.764-1.875,0.776-2.658c0.008-0.448-0.088-0.981-0.393-1.456c-0.407-0.672-1.235-1.007-2.175-0.977l-1.362,0.364
		c-5.14,1.711-11.961,3.986-20.765,6.457c6.231-10.811,14.334-27.475,14.467-35.427c0.059-3.471-2.125-4-3.592-3.606
		c-1.573,0.421-2.532,1.681-3.064,2.381l-0.108,0.14l-0.106,0.141c-2.247,3.388-9.114,20.948-13.421,35.145
		c-3.866,6.61-7.822,12.464-10.384,15.827l-0.816,1.072l-0.887,1.057c-4.16,5.462-9.339,9.414-14.687,11.071
		c1.974-5.771,4.381-12.436,6.682-19.07c8.894-13.979,18.576-31.512,18.72-40.134c0.045-2.686-1.059-5.29-4.099-4.475
		c-1.362,0.365-2.528,1.458-3.166,2.187c-5.315,5.883-13.02,29.909-15.212,36.295c-0.109,0.251-0.547,1.483-1.311,3.471
		c-4.179,6.583-8.027,12.186-10.375,15.269l-1.706,2.24c-7.679,10.084-19.743,26.473-31.061,29.507
		c-8.174,2.19-11.963-2.145-11.859-8.416c0.13-7.726,5.592-16.214,12.264-22.126c2.077,0.558,4.583,0.442,7.413-0.316
		c6.603-1.771,9.384-5.858,9.436-8.995c0.048-2.91-2.108-5.008-5.776-4.026c-3.353,0.899-7.354,3.088-10.417,5.357
		c-1.646-1.454-2.442-3.805-2.394-6.715c0.17-10.191,9.888-23.497,22.673-26.924c3.668-0.984,4.369,0.725,4.349,1.957
		c-0.023,1.343-0.787,3.443-2.809,5.767c-0.85,1.01-1.283,1.906-1.298,2.801c-0.03,1.792,1.512,3.162,3.189,2.712
		c0.629-0.167,1.368-0.699,2.006-1.428c3.188-3.531,5.137-7.732,5.201-11.538c0.097-5.823-4.238-8.675-10.527-6.989
		C23.777,82.511,10.772,99.15,10.53,113.596c-0.063,3.808,0.918,7.446,3.069,9.88c-7.634,7.397-13.438,17.536-13.596,26.941
		c-0.168,10.079,6.401,16.568,18.034,13.45c13.728-3.681,26.324-20.656,35.497-32.702l0.108-0.14
		c-5.587,15.878-11.743,34.693-11.854,41.302c-0.067,4.032,1.331,7.781,5.732,6.601c7.861-2.106,16.887-17.791,17.104-30.782
		c0.065-3.918-0.709-7.612-2.434-10.495c3.403-1.24,10.992-6.299,16.214-12.981c0.315-0.351,0.66-0.773,1.053-1.274l1.042-1.242
		c0.211-0.277,0.38-0.543,0.526-0.804l0.113-0.147c-4.509,13.918-10.401,29.319-11.584,37.774c-0.118,0.813-0.131,1.597-0.145,2.382
		c-0.076,4.591,1.75,7.668,6.565,6.711l0.629-0.167c11.422-3.063,13.534-23.249,14.201-31.9c0.271-3.863,0.552-8.175,0.621-12.317
		c0.075-4.479-0.061-8.791-0.519-12.57c6.602-1.77,13.732-3.903,17.195-5.055c-2.704,5.741-5.312,11.903-5.404,17.39
		c-0.089,5.377,2.334,10.3,7.992,8.783c7.965-2.135,16.529-15.133,21.969-22.275l1.707-2.242c0.212-0.279,0.382-0.546,0.529-0.807
		c1.017-1.341,2.324-3.087,3.636-4.991c-1.354,6.16-3.562,13.44-5.308,18.034c-0.221,0.615-0.333,1.203-0.342,1.762
		c-0.033,1.905,1.517,2.826,3.193,2.378c1.154-0.31,1.79-0.927,2.54-2.13c5.357-8.46,17.172-28.683,25.243-30.846
		c1.886-0.505,2.815,0.026,2.775,2.49c-0.062,3.694-7.122,14.171-7.255,22.122c-0.056,3.358,1.785,5.541,5.138,4.643
		c4.975-1.333,14.013-12.294,19.768-19.717c0.758,3.698,3.669,6.634,8.434,5.356c4.192-1.123,9.269-5.159,14.814-12.441
		c-0.662,2.183-1.324,4.367-1.886,6.636c-0.223,0.951-0.559,2.266-0.997,3.61c-9.189,6.7-27.601,15.871-27.825,29.31
		c-0.108,6.495,5.6,8.308,10.105,7.101c10.795-2.894,17.61-17.429,22.881-33.11c5.834-4.203,11.279-8.991,19.583-19.367
		c1.062,6.452,4.96,10.671,11.892,8.812c9.118-2.443,18.287-14.155,24.473-22.278l1.707-2.242c0.005-0.006,0.008-0.012,0.013-0.018
		c3.624-4.763,7.802-11.67,10.708-17.236c3.738,1.117,7.589,1.645,7.553,3.772c-0.109,6.606-9.472,17.365-9.585,24.196
		c-0.099,5.935,4.257,7.555,8.764,6.347c4.61-1.236,9.999-5.244,14.169-11.38c0.965-1.484,1.93-3.08,2.687-4.621
		c0.325-0.756,0.439-1.344,0.449-1.904C302.251,69.29,300.7,68.369,299.024,68.818 M48.785,171.901
		c-0.63,0.169-0.723-0.363-0.709-1.26c0.053-3.135,1.405-9.184,5.02-19.404c0.326-0.868,1.318-4.032,2.963-8.822
		c1.226,1.567,2.229,3.974,2.172,7.332C58.021,162.402,50.462,171.452,48.785,171.901z M84.522,137.239
		c-0.28,4.312-1.937,22.369-7.806,23.941l-0.21,0.057c-0.523,0.027-0.829-0.335-0.81-1.454c0.005-0.336,0.013-0.784,0.125-1.26
		c1.504-8.876,4.362-17.558,7.878-28.198l1.762-5.488L84.522,137.239z M187.039,133.505c-2.515,0.674-3.953-0.725-3.931-2.068
		c0.056-3.358,2.619-6.834,8.011-11.065c4.123-3.223,7.606-5.719,10.669-7.877C198.401,121.651,193.327,131.819,187.039,133.505z
		 M192.827,99.289c-1.363,0.366-2.495-0.557-2.463-2.46c0.162-9.742,11.22-22.07,19.289-24.234c1.467-0.393,2.82-0.31,3.854,0.305
		C208.013,83.292,199.429,97.52,192.827,99.289z M248.348,60.774c1.678-0.45,2.395,0.361,2.371,1.818
		c-0.069,4.142-6.748,10.392-14.31,13.422C238.396,69.573,243.213,62.15,248.348,60.774z"/>
</g>
<polyline fill="#F8DD48" points="165.983,93.572 165.216,89.872 178.624,87.09 179.391,90.789 165.983,93.572 "/>
<polyline fill="#F8DD48" points="168.094,114.891 166.895,111.312 182.093,108.146 182.386,111.996 168.094,114.891 "/>
<polyline fill="#F8DD48" points="192.995,128.82 191.796,125.242 206.994,122.075 207.287,125.925 192.995,128.82 "/>
<path fill="#F8DD48" d="M165.216,89.872c-1.773,0.263-3.724,1.122-7.498,5.344l8.825-3.823"/>
<path fill="#F8DD48" d="M168.094,114.891c-0.409,0.357-4.097,1.874-2.13-3.396l2.505-0.5L168.094,114.891"/>
<polyline fill="#F8DD48" points="184.423,89.739 183.656,86.039 197.906,83.082 198.673,86.782 184.423,89.739 "/>
<path fill="#F8DD48" d="M105.623,89.659l-3.699,0.768l7.182,33.618c0,0,0.178,3.113,3.743,0.437"/>
</svg>
