<?xml version="1.0" encoding="utf-8"?>
<!-- Generator: Adobe Illustrator 16.0.0, SVG Export Plug-In . SVG Version: 6.00 Build 0)  -->
<!DOCTYPE svg PUBLIC "-//W3C//DTD SVG 1.1//EN" "http://www.w3.org/Graphics/SVG/1.1/DTD/svg11.dtd">
<svg version="1.1" id="Ebene_1" xmlns="http://www.w3.org/2000/svg" xmlns:xlink="http://www.w3.org/1999/xlink" x="0px" y="0px"
	 width="302.221px" height="183.125px" viewBox="0 0 302.221 183.125" enable-background="new 0 0 302.221 183.125"
	 xml:space="preserve">
<metadata><?xpacket begin="﻿" id="W5M0MpCehiHzreSzNTczkc9d"?>
<x:xmpmeta xmlns:x="adobe:ns:meta/" x:xmptk="Adobe XMP Core 5.3-c011 66.145661, 2012/02/06-14:56:27        ">
   <rdf:RDF xmlns:rdf="http://www.w3.org/1999/02/22-rdf-syntax-ns#">
      <rdf:Description rdf:about=""
            xmlns:dc="http://purl.org/dc/elements/1.1/">
         <dc:format>image/svg+xml</dc:format>
         <dc:title>
            <rdf:Alt>
               <rdf:li xml:lang="x-default">Logo-Effinger</rdf:li>
            </rdf:Alt>
         </dc:title>
         <dc:creator>
            <rdf:Seq>
               <rdf:li>Hélène</rdf:li>
            </rdf:Seq>
         </dc:creator>
      </rdf:Description>
      <rdf:Description rdf:about=""
            xmlns:xmp="http://ns.adobe.com/xap/1.0/"
            xmlns:xmpGImg="http://ns.adobe.com/xap/1.0/g/img/">
         <xmp:MetadataDate>2016-03-18T18:17:35+01:00</xmp:MetadataDate>
         <xmp:ModifyDate>2016-03-18T18:17:35+01:00</xmp:ModifyDate>
         <xmp:CreateDate>2016-03-18T18:17:35+01:00</xmp:CreateDate>
         <xmp:CreatorTool>Adobe Illustrator CS6 (Macintosh)</xmp:CreatorTool>
         <xmp:Thumbnails>
            <rdf:Alt>
               <rdf:li rdf:parseType="Resource">
                  <xmpGImg:width>256</xmpGImg:width>
                  <xmpGImg:height>156</xmpGImg:height>
                  <xmpGImg:format>JPEG</xmpGImg:format>
                  <xmpGImg:image>/9j/4AAQSkZJRgABAgEASABIAAD/7QAsUGhvdG9zaG9wIDMuMAA4QklNA+0AAAAAABAASAAAAAEA&#xA;AQBIAAAAAQAB/+4ADkFkb2JlAGTAAAAAAf/bAIQABgQEBAUEBgUFBgkGBQYJCwgGBggLDAoKCwoK&#xA;DBAMDAwMDAwQDA4PEA8ODBMTFBQTExwbGxscHx8fHx8fHx8fHwEHBwcNDA0YEBAYGhURFRofHx8f&#xA;Hx8fHx8fHx8fHx8fHx8fHx8fHx8fHx8fHx8fHx8fHx8fHx8fHx8fHx8fHx8f/8AAEQgAnAEAAwER&#xA;AAIRAQMRAf/EAaIAAAAHAQEBAQEAAAAAAAAAAAQFAwIGAQAHCAkKCwEAAgIDAQEBAQEAAAAAAAAA&#xA;AQACAwQFBgcICQoLEAACAQMDAgQCBgcDBAIGAnMBAgMRBAAFIRIxQVEGE2EicYEUMpGhBxWxQiPB&#xA;UtHhMxZi8CRygvElQzRTkqKyY3PCNUQnk6OzNhdUZHTD0uIIJoMJChgZhJRFRqS0VtNVKBry4/PE&#xA;1OT0ZXWFlaW1xdXl9WZ2hpamtsbW5vY3R1dnd4eXp7fH1+f3OEhYaHiImKi4yNjo+Ck5SVlpeYmZ&#xA;qbnJ2en5KjpKWmp6ipqqusra6voRAAICAQIDBQUEBQYECAMDbQEAAhEDBCESMUEFURNhIgZxgZEy&#xA;obHwFMHR4SNCFVJicvEzJDRDghaSUyWiY7LCB3PSNeJEgxdUkwgJChgZJjZFGidkdFU38qOzwygp&#xA;0+PzhJSktMTU5PRldYWVpbXF1eX1RlZmdoaWprbG1ub2R1dnd4eXp7fH1+f3OEhYaHiImKi4yNjo&#xA;+DlJWWl5iZmpucnZ6fkqOkpaanqKmqq6ytrq+v/aAAwDAQACEQMRAD8A9U4q7FXYq7FXYq7FXYq7&#xA;FXYq7FXYq7FXYq7FXYqh5dQsov7ydAfCoJ+4Zh5e0MGP6pxHxbI4pHkEHL5j09Psc5D2oKD/AIam&#xA;a3L7RaeP08Uvh+tujo5nnsofpvUJ/wDeWzJHZjyYfgFGYv8ALWpy/wB1i+O5/Uz/AC0I/VJv0vMd&#xA;x9qRYFPaoH/EeRw+F2nl5yEB8P0WV4sMelpfe2N0t5FbGcz3DjluTsfmT7Zp9bocsc0cXGcmQ7+7&#xA;4kuRjyxMTKqCbaRqbTVtbn4bqPbfqwH8RnQ9kdpnJ+6y7ZY/b+3+1xNRhr1R+lNM3ziuxV2KuxV2&#xA;KuxV2KuxV2KuxV2KuxV2KuxV2KuxV2KuxV2KuxV2KqUt5aw/3syIR2LCv3Zj5dXix/XKI+LOOOR5&#xA;BBS+YNOT7LNIf8lf60zWZfaDTQ5Ey9w/XTdHSTPkh/0/cy7Wtmz+5qfwUfxzD/l/Lk/usRPzP3D9&#xA;LZ+ViPqk6vmS47LAp+Q/5qbBfaebuxj4ftK/uY+bv0Ddzb3V4zf5Iq36z/DD/IWbJ/fZSfmfv/Uv&#xA;5qI+mKIi8vacn2g0h/ym/wCaaZl4vZ/TR5gy95/VTXLVzPkjIrK0h/u4UU+IAr9+bPFosOP6YRHw&#xA;aZZJHmVbMlg7FUk0r/S9Wubw7om0Z+ew/wCFGct2V/hGryZ+g2H3D7A52f0YxFX1fTGmpdW3w3Ue&#xA;+3VqfxGZfa/ZhyfvcW2WP2/ta9Pmr0y+kquk6mt5Fxf4bhB8a+P+UMv7J7TGphUtskef62OfDwHb&#xA;kj827juxV2KuxV2KuxV2KuxV2KuxV2KuxV2KuxV2KuxV2KuxV2KpDqyzzatFatM0cMijjTp37VHc&#xA;ZyfascmTWRxGZjCQH6envc/AQMZlVkImLy5YJu5eQ+BNB+FMzcXs5p4/VxS+P6v1tctZM8tkbFp1&#xA;jF/dwID4kVP3mubLF2dp8f0wj9/3tEs0zzKI6bDM1rdirsVdiq15I4xykYIPFiAPxyE8kYC5EAea&#xA;QCeSEl1rTYuswY+CVb8Rtmuy9s6WH8d+7dujppnogLvzDFJDJFbxOWZSOZoKV70Fc1Or9oYzhKGO&#xA;MrI5/p6t+PSEEElEeXfR+oUQ1k5EyjuD0H4DMz2d4Py/pPqv1fo+xr1d8e6aZvnFSPTVFzrVxcoK&#xA;RR1Ap0JPwj76E5yvZoGbXZMsdox/s+3cudm9OIRPNPM6pwXYq7FXYq7FXYq7FXYq7FXYq7FXYq7F&#xA;XYq7FXYq7FXYq7FUl8wj0pbS6HVGofoIYfxzmPaAcE8WUfwn9o/S5uk3Eop0CCARuDuM6YGxbhOJ&#xA;AFTsB1OJNKhJdW06L7U6k+C/F/xGua/L2tpsfOY+G/3N0cEz0QcvmW1G0UbyH6FH8T+Ga7L7SYRt&#xA;CMpfZ+Pk3R0cuppRj1jVruv1S2XiNi3Wh+ZIGY2PtfWaj+5xivx12DM6fHD6iv8AqOvz/wB9ciIH&#xA;spof+EA/Xln5LtDL9eThHkf+J/Wx8XDHkLXJ5bhJ5TzvI3elB+vlkoezcDvknKR+X60HWHoKRcWj&#xA;abH0hDHxerfgds2OLsbSw5Qv37tUtRM9UWkUaLxRAq+AAA/DNjDHGIqIADSSTzSO9tpdLuhe2orA&#xA;xpLH2Fe3yPbOW1umnocvj4v7s/UPx07u5zscxljwy5o671KL9FPcwt9scU8Qx2p8xm11faUPyhyw&#xA;PMUPef1NGPCfE4S1oNt6NgrEfHMeZ+R6fhkewtN4enBPOe/6vsTqp8U/cmOblxnYq7FXYq7FXYq7&#xA;FXYq7FXYq7FXYq7FXYq7FXYq7FXYq7FUu1+L1NNc9TGVcffT9RzTdvYuPSk/zSD+j9Lk6WVTRGmS&#xA;+rp8D9TwAJ91+E/qzL7My+Jp4S/o/ds15o1MhvUo2ksJ1XqUJFPYVph7RxmenmBz4SjCamEr0PT7&#xA;C4tBLJEHkDFWJJptv06dDmi7E7P0+XDxyjcgSOv3OVqcs4yoHZOY7eCIUjjVB/kgD9WdLjwY4fTE&#xA;R9wcMzJ5lKNB/c3l5an9lqr8lJH8RnO9hfu82XD3H7jX6nL1W8YyTrOncJ2KuxVQlv7KKvqTopHU&#xA;VBP3DfMTLr8GP6pxHxbI4pHkEDca/pvBko0ysKEBaAg/61M1Wo7f0vCY0Zg+X66b4aSd3ySWC1nu&#xA;ZhFAki2ruG3qQo8SemwzmcGlyZ58GOMhilK/Ied8uTmymIiyRxMuVVVQqiigUA9hnosYgChyDpyb&#xA;bwq7FXYq7FXYq7FXYq7FXYq7FXYq7FXYq7FXYq7FXYq7FXYqp3UXrW0sX86Mo+ZGUanF4mKUP50S&#xA;GUJVIFLfLcvKyeM9Y3O3sRX9dc0vs5lvAY/zZff+C5OsjUr702IBFD0PXOgItxEl8vExTXdqeqNU&#xA;fQSp/hnM+z58OeXEf4T+w/oc3V7iMk6zp3CSC6uFsNdadgTHIlSF67inf/KXOR1WcaTXnIR6ZR6e&#xA;79Ydhjh4mKu5VPmC4lNLW0Z/Amp/BR/HLz2/kybYsRl9v3frYflAPqk7l5kuOgWBT8h+vk2Di7Ty&#xA;9BjHw/aVrBHzd+grybe6vC3+SKsPxI/Vh/kLNk/vspPzP3/qX81EfTFXi8vacn2g0h/ymp/xGmZe&#xA;L2e00edy95/VTCWrmfJGxWNnD/dwop8QBX7+ubLFosOP6YRHwaJZZHmVbMpg7FXYq7FXYq7FXYq7&#xA;FXYq7FXYq7FXYq7FXYq7FXYq7FXYq7FXYq7FUl0j9xq15bdAaso+R2/Bs5fsn91rMuLod/kdvsLm&#xA;6j1Y4yTrOocJJU/0fzIy9FnX9Yr+tc5iH7rtMjpkH6L+8OafVh9ydZ07hJJ5hX057S5pUK1G+ggj&#xA;+Ocv7QR4MmLL3H9v63O0hsSinYpQU6dqZ04qtnBdhV2KrZJYoxWR1QeLED9eV5MsIC5ED3pESeSn&#xA;DeWs7FYZVdl3IU1yrDrMWUkQkJEdzKWOUeYVsyWDsVdirsVdirsVdirsVdirsVdirsVdirsVdirs&#xA;VdirsVdirsVdirsVUY7SJLqW5p+8lCgnwCimYuPSRjmll/ilQ+X4+xmchMRHoFbMpgkuufub6zuu&#xA;wNGPspB/ic5jtz93nxZu4/cb/SXN03qhKKdZ07hJb5gi9TTWbvGysP8AiP8AHNJ2/i49MT/NIP6P&#xA;0uTpJVP3oWLzFElvFGInklVQrdACQKe+YGL2ihHHGIjKUwAPj9v3NstGSSboLv0jrk/9xaemD0LA&#xA;/rbiMl/KOvy/3eLhHn+2gjwcUecnfUNen3muhED1Cmh+5QB+OH8h2hl+vJwjyP8AxNfevi4o8ha6&#xA;Py1b15TzPI3elF/XyyeP2bx3eScpH5frQdYegpTv9Kay43dhUGL7a1rt4/1yjXdlHTVm09jh5j9P&#xA;6wyxZ+P0z6plp9/FewCRdnG0ieB/pm87P18NTj4hz6jucbNiMDSKzPanYq7FXYq7FXYq7FXYq7FX&#xA;Yq7FXYq7FXYq7FXYq7FXYq7FXYq7FVs0qxRPK+yoCx+jK82UY4GZ5RFpjGzTaMHRWXowBHyOShIS&#xA;AI5FSKUbuygulRZhyVG5U6V2Ipt88xtXoseoAE9wDf2M8eQw5KyFSvwmoG33bZkwII25fqYFzKrK&#xA;VYBlOxB3BGGURIURYUGlscMMYpGioPBQB+rIY8MIfSBH3ClMiea/LEOxV2KuxVLw2l6f60qMod9y&#xA;gILf6oHzzTg6XR8c4kcR6Dn7g5HryUCi7S6iuoFmjPwt1HcHuMz9JqoZ8YnHkWrJAxNFVzJYOxV2&#xA;KuxV2KuxV2KuxV2KuxV2KuxV2KuxV2KuxV2KuxV2KuxVBa0rNpkwXr8J+gMK5q+2YGWlmB5feG/T&#xA;mphdpEvqafCT1UcD/sdv1ZPsrJx6eHkK+WyM4qZV7gyC3lMZpIEbgfem2ZeoMhjlw/VwmvfTXCrF&#xA;8kB5emMlhxJqY3Yff8X8c1Ps/m49PR/hkR+n9LkauNTTPN44qnNcQQgGWRUr05ECvyynNqceIXOQ&#xA;j72UYGXILnljSMyOeKAVJO22SlljGPETUUAEmkqbXZJHK2ls0o7Man8AP45o5dtymawwMvP9g/W5&#xA;I0wH1GlhbzDP0AhU+HEU++rZWT2jl5egH3D9rL91HzcNCu5TW7uy58BVvurT9WCPYmae+bJfzP3/&#xA;AKlOpiPpCH1bTrSytlKMzTO1F5EdBuTQDMPtbQ4tNiBiSZyO36fx5tmnySnLfknOnW31ayiiIowF&#xA;X/1juc6Ts7TeDgjDrW/vPNxM0+KRKJzNanYq7FXYq7FXYq7FXYq7FXYq7FXYq7FXYq7FXYq7FXYq&#xA;7FXYqsnj9WCSPpzUrX5imVZ8fHCUf5wI+bKJogpZ5ec+hNEeqPUj5in/ABrmm7Al6JQPSX3/ANjk&#xA;aobgptm+cVJdC/c3t5an9k1Ueykj+IzmOw/3efLh7j9xr9Ic3VeqMZJ1nTuEhZbJZb6O4koViWka&#xA;/wCUSTX6M1+XQjJqBllyhHYed8/ubY5agYjqiXRHFHUMOtCK5nThGQqQtrBI5NgACg6ZIBDsVdiq&#xA;EuNOjuLqOeZiyRD4Iu3KtanxzXajs6ObNHJM2Ico+fef1N0MxjEgdUXmxaXYq7FXYq7FXYq7FXYq&#xA;7FXYq7FXYq7FXYq7FXYq7FXYq7FXYq7FXYqk9hWHWbqE7CSrAfTyH4HOd0N49Zkgf4rP6R9hcvLv&#xA;jBTjOicRCw2Mcd7Nd1+OWgA8BQV+8jMDDoYwzzzdZV8OV/MtsspMRHuRWZ7Ul2u3E0FjWI0LsFZv&#xA;AEE/wzS9u6ieLBcOpo+5ydLASnujo5UeJJKgK4BFf8oVGbXHlEoCXSQH2tBjRpZdXttahTM/HlXi&#xA;KE1p8sr1Osx4QOM1aYYzLkl8vmK2G0Ubufeij+OarJ2/jH0xJ+z9beNKepUv0jrc4/0e1CqejEH9&#xA;bEDMY9o67L/d46HfX6yAz8LEOZTDT01AKzXrhnNOKLSgH0DNt2fDUgE5zZPIbbfJoymH8KLzYtLs&#xA;VdirsVdirsVdirsVdirsVdirsVdirsVdirsVdirsVdirsVdirsVSfUKwaxazjYPRWP08T+Bzndf+&#xA;61mOf86h+g/YXLxb4yE4zonESrXriaBbZkNI/UDOPErQgZz/AG9qJ4hjI+nis/CiHL0sBK++k165&#xA;0ALiILWYvV02cd1HMf7E1P4ZrO2MXHpZjuF/Ldu08qmEt0bS0nSG8eZiUb4Y+w4HYVNc0fY/Zccs&#xA;YZpTNxPLu4S5WozmJMQE6ntLecqZkD8K8a9q51GbS48tcYunBjMx5Lo4IY/7uNU7fCAP1ZLHhhD6&#xA;Yge4IMiea/LUOxVa8kcY5SMEXxYgD8chPJGAuRAHmkAnksivLWVykUyO434qQcqxavFklwwlGR8i&#xA;yljkBZCrmQwdirsVdirsVdirsVdirsVdirsVdirsVdirsVdirsVdirsVdiqhdWdtccGnFRESQa0+&#xA;dcxNVpMWWjk/h+DOEzHl1VlZWUMpBVhUEbgg5lRkJCxuCwIpL9fi9TTXPeNlYffT+Oabt/Fx6Yn+&#xA;aQf0fpcnSyqaI02X1bCB61JQAn3XY/qzM7Ny+Jp4S/o/ds15o1MhESIHRkPRgQfp2zLyQEomJ6hr&#xA;Bo2k/lyThFcQOaGJ6mvaux/4jnOezuThhkxy/hl+z9DmawWQR1R8uqafF9udK+Cnkf8Aha5t8vam&#xA;mx/VOPw3+5x44JnkFK31q0uLlbeEMzNX4iKCgFfnmPg7aw5soxwBJPXp3s56aUY2W9Sub+MpHZw+&#xA;ozAlnI2HhvUCuS7R1OogRHBDiJ5noPuCMMIHeRpCC016feacQ/5KtT/iH9cwI6XX5d5z4Pcf+J/W&#xA;2meKPIWuXy8rNWe4Z69aCh+8lsmOwATc5k/jvNo/NdwUr7RjaqtzYFhJDuy1qSPEf0zH1vY3gAZd&#xA;PfFD8fgdQzxaji9M+RTDTNRjvYOWyyrtInv4j2zb9mdox1ML5THMfjo4+bCYHyRmbJpdirsVdirs&#xA;VdirsVdirsVdirsVdirsVdirsVdirsVdirsVQesRerps47qvIf7E1zWdsYuPTTHcL+W7dp5VMLdE&#xA;l9TTYfFKof8AYnb8Mj2Ll49LHy2+X7E6mNTKJuovWtpYv50ZR8yNsztVi8TFKH86JDXCVSBS/wAt&#xA;y8rFoz1jcj6Dv+uuab2cy8WAx/my+/8ABcjWRqV96a50DiMak0+ObXJraRiquS6kU3JHKn684jJ2&#xA;fHJr5YpEgSuX6f1uzGUjEJBNYtB02OlUMhHd2P6hQZvsXYOlhzBl7z+qg4ktVM9UZFbW8X91Eqf6&#xA;qgfqzZ4tNjx/RER9waZTJ5lUy5i7FXYq7FUg1OEWF0L20dVJP7yGoHX28DnI9p4RpMoz4SAesb/R&#xA;3Hr3c/dn4ZeJHhl804sryK7t1mj27MvcN3GdHotZDUYxOPx8i4mTGYGir5ltbsVdirsVdirsVdir&#xA;sVdirsVdirsVdirsVdirsVdirsVadA6Mh6MCD8jkZwEomJ5FING0n8tuyx3Fu32o3rT57H/iOc57&#xA;OTIjPGecZfs/Q5msG4PenOdK4SS6P+41W8tugJLKPYHb8GzmOyP3Wry4unP5H9Rc3UerHGSdZ07h&#xA;JLqv7jWLO46BqKx+RofwbOY7U/da3Fk79vto/YXNwerHIJ1nTuEslnhiFZZFQf5RA/XlWTPDH9Uh&#xA;H3mmUYk8gg5dc02Pb1eZ8EBP49M1uXtzSw/i4vcPwG6OmmeiFbzHzPG2tnkPavX7l5ZgS9ouI1ix&#xA;ykfx0Fto0dfUaa+seYp/7uEQL4kAH/hyf1YPzHaWX6YiA/H879S8GGPM279D6pP/AL03hAPVVLEf&#xA;d8Ix/kfV5f73L8rP6gv5jHH6YqGo6PZ2Vk0pdnlJCpUgCp9h7ZidodkYNNgMrMp8g2YdRKcq6Jno&#xA;tt6GnxgijSfvG+bdPwpm97G03haaIPOXqPx/ZTi6mfFMo7Nq0OxV2KuxV2KuxV2KuxV2KuxV2Kux&#xA;V2KuxV2KuxV2KuxV2KpLafuPMNxF2mBI+Zo/9c5jSfuu0Zw6Ts/779bm5PVhB7k6zp3CSW5/ceYo&#xA;ZP2ZgAfmQU/gM5jU/uu0oS6TH/Hf1ObD1YSO5Os6dwku1uwmu4I/RAMsbVAJpsRvvmm7a0M9Rjjw&#xA;fVE/j9Dk6bKIE3yQ36N1uf8A3ou+APVVJ/UvEZgfybrsv95l4R5fqFBs8bFHlFfH5atRvLK8jd6U&#xA;UfxP45bj9m8Q3nKUj8v1/eg6yXQIyLSdOipxgUkd2+L/AIlXNli7J02PlAfHf72mWeZ6opVVRRQF&#xA;HgNsz4xERQFNRNt5JDsVSTVybvU7exH2V+KSnvuf+FGct2sfzGqx4ByG5/Hu+9ztP6IGSdgACg6Z&#xA;1IDguxV2KuxV2KuxV2KuxV2KuxV2KuxV2KuxV2KuxV2KuxV2KuxVJdV/caxZ3HQNRWPyND+DZy/a&#xA;v7rW4svft9u/2FzcHqxyinWdQ4STeY1KC2uV6xvT/jYf8RzmfaOPD4eUc4y/b+hzdGbuPenCsGUM&#xA;OjCo+RzpIyEgCORcMim8kh2KuxV3Tc4qhpdSsIvtzoCOoBqfuFcwsvaOnx/VOPzv7myOGZ5BBy+Y&#xA;7FPsB5D7Cg/HNbl9o9PH6RKX2ff+pvjo5nnspfpnU5/95rMgHozBmH3/AAjMf+WNVl/usXzs/qDL&#xA;8vCP1SVdKsLtbqW8vABLJsoqD169Mv7K0GaOWWbMPXJjnyxMRGPJNc6BxHYq7FXYq7FXYq7FXYq7&#xA;FXYq7FXYq7FXYq7FXYq7FXYq7FXYql+tWEt3bp6NPVjaoB2qD1Fc0/bOgnqMY4PqiXI02UQO/IoQ&#xA;a1qFseN9amnTmu39VOa8ds6jBtnx/EbfsLd+WhL6C1qWp2N7p0io/GVaMqOKHY/d0yPaXaWn1Omk&#xA;ImpCiAdv2clw4ZwmL5IvT9RtV06AzTKjBeJUkV+Hbp17ZsOz+0cQ00DOQBque+23Jqy4ZcZoLZfM&#xA;OnJ9ktIf8laf8SpkcvtDpo8iZe4frpY6SZ8lD9PXk21rZs3+UasPwA/XmJ/LubJ/c4ifmfu/W2fl&#xA;Yj6pOp5kuOpWBT8h+rk2Ndp5u7GPh+0r+4j5uGgXEprdXbP4gVP4sf4YjsDJk3zZTL7fv/Uv5sD6&#xA;YoiLy/psf2laQ+LN/wA00zMxdgaaHMGXvP6qa5auZ8kbFaWsNPSiRCO4UV+/Nni0mLH9EYj4NMsk&#xA;jzKrmQwdirsVdirsVdirsVdirsVdirsVdirsVdirsVdirsVdirsVdirsVdirsVc3Gh5U4969MEqr&#xA;fkoSTUP8Pb8qep/xR1/D4fvzmO0P5O6/V/Q/HD83OxeN8PNB23+Hq/vPW/56dP8AhN81um/k2/V4&#xA;n+d/x1un43Svx704tf0Jt9X9Hl26cv8Aht86PS/kf8n4d/C/t3cPJ4vW0ePbNu47sVdirsVdirsV&#xA;dirsVdirsVdirsVdirsVdir/AP/Z</xmpGImg:image>
               </rdf:li>
            </rdf:Alt>
         </xmp:Thumbnails>
      </rdf:Description>
      <rdf:Description rdf:about=""
            xmlns:xmpMM="http://ns.adobe.com/xap/1.0/mm/"
            xmlns:stRef="http://ns.adobe.com/xap/1.0/sType/ResourceRef#"
            xmlns:stEvt="http://ns.adobe.com/xap/1.0/sType/ResourceEvent#">
         <xmpMM:InstanceID>xmp.iid:018011740720681183D1DD4881E4FD58</xmpMM:InstanceID>
         <xmpMM:DocumentID>xmp.did:018011740720681183D1DD4881E4FD58</xmpMM:DocumentID>
         <xmpMM:OriginalDocumentID>uuid:5D20892493BFDB11914A8590D31508C8</xmpMM:OriginalDocumentID>
         <xmpMM:RenditionClass>proof:pdf</xmpMM:RenditionClass>
         <xmpMM:DerivedFrom rdf:parseType="Resource">
            <stRef:instanceID>xmp.iid:0280117407206811822AC0054167556E</stRef:instanceID>
            <stRef:documentID>xmp.did:0280117407206811822AC0054167556E</stRef:documentID>
            <stRef:originalDocumentID>uuid:5D20892493BFDB11914A8590D31508C8</stRef:originalDocumentID>
            <stRef:renditionClass>proof:pdf</stRef:renditionClass>
         </xmpMM:DerivedFrom>
         <xmpMM:History>
            <rdf:Seq>
               <rdf:li rdf:parseType="Resource">
                  <stEvt:action>saved</stEvt:action>
                  <stEvt:instanceID>xmp.iid:4459d695-bf4c-4619-bcac-aa6112e695d3</stEvt:instanceID>
                  <stEvt:when>2015-11-26T14:15:39+01:00</stEvt:when>
                  <stEvt:softwareAgent>Adobe Illustrator CC 2015 (Macintosh)</stEvt:softwareAgent>
                  <stEvt:changed>/</stEvt:changed>
               </rdf:li>
               <rdf:li rdf:parseType="Resource">
                  <stEvt:action>saved</stEvt:action>
                  <stEvt:instanceID>xmp.iid:018011740720681183D1DD4881E4FD58</stEvt:instanceID>
                  <stEvt:when>2016-03-18T18:17:35+01:00</stEvt:when>
                  <stEvt:softwareAgent>Adobe Illustrator CS6 (Macintosh)</stEvt:softwareAgent>
                  <stEvt:changed>/</stEvt:changed>
               </rdf:li>
            </rdf:Seq>
         </xmpMM:History>
      </rdf:Description>
      <rdf:Description rdf:about=""
            xmlns:illustrator="http://ns.adobe.com/illustrator/1.0/">
         <illustrator:StartupProfile>Print</illustrator:StartupProfile>
      </rdf:Description>
      <rdf:Description rdf:about=""
            xmlns:xmpTPg="http://ns.adobe.com/xap/1.0/t/pg/"
            xmlns:stDim="http://ns.adobe.com/xap/1.0/sType/Dimensions#"
            xmlns:xmpG="http://ns.adobe.com/xap/1.0/g/">
         <xmpTPg:HasVisibleOverprint>False</xmpTPg:HasVisibleOverprint>
         <xmpTPg:HasVisibleTransparency>False</xmpTPg:HasVisibleTransparency>
         <xmpTPg:NPages>1</xmpTPg:NPages>
         <xmpTPg:MaxPageSize rdf:parseType="Resource">
            <stDim:w>302.220703</stDim:w>
            <stDim:h>183.125488</stDim:h>
            <stDim:unit>Pixels</stDim:unit>
         </xmpTPg:MaxPageSize>
         <xmpTPg:PlateNames>
            <rdf:Seq>
               <rdf:li>Cyan</rdf:li>
               <rdf:li>Magenta</rdf:li>
               <rdf:li>Yellow</rdf:li>
            </rdf:Seq>
         </xmpTPg:PlateNames>
         <xmpTPg:SwatchGroups>
            <rdf:Seq>
               <rdf:li rdf:parseType="Resource">
                  <xmpG:groupName>Standard-Farbfeldgruppe</xmpG:groupName>
                  <xmpG:groupType>0</xmpG:groupType>
               </rdf:li>
            </rdf:Seq>
         </xmpTPg:SwatchGroups>
      </rdf:Description>
      <rdf:Description rdf:about=""
            xmlns:pdf="http://ns.adobe.com/pdf/1.3/">
         <pdf:Producer>Acrobat Distiller 10.1.16 (Macintosh)</pdf:Producer>
      </rdf:Description>
   </rdf:RDF>
</x:xmpmeta>
                                                                                                    
                                                                                                    
                                                                                                    
                                                                                                    
                                                                                                    
                                                                                                    
                                                                                                    
                                                                                                    
                                                                                                    
                                                                                                    
                                                                                                    
                                                                                                    
                                                                                                    
                                                                                                    
                                                                                                    
                                                                                                    
                                                                                                    
                                                                                                    
                                                                                                    
                                                                                                    
                           
<?xpacket end="w"?>
	</metadata>
<path fill="#FDD900" d="M154.727,136.799c-0.877,0-1.662-0.613-1.848-1.506l-8.146-39.256c-0.212-1.021,0.443-2.021,1.466-2.232
	l52.709-10.937c1.013-0.213,2.021,0.444,2.232,1.465c0.212,1.021-0.443,2.022-1.467,2.233L148.816,97.12l7.762,37.407
	c0.213,1.021-0.443,2.021-1.465,2.231C154.984,136.788,154.854,136.799,154.727,136.799"/>
<path fill="#FDD900" d="M137.855,57.659c-0.877,0-1.663-0.614-1.848-1.505l-4.332-20.876c-0.213-1.022,0.443-2.022,1.466-2.234
	c1.014-0.209,2.021,0.444,2.232,1.466l4.332,20.876c0.213,1.021-0.443,2.021-1.465,2.233
	C138.112,57.646,137.982,57.659,137.855,57.659"/>
<g>
	<g>
		<defs>
			<rect id="SVGID_1_" x="0.06" width="302.16" height="183.066"/>
		</defs>
		<clipPath id="SVGID_2_">
			<use xlink:href="#SVGID_1_"  overflow="visible"/>
		</clipPath>
		<path clip-path="url(#SVGID_2_)" fill="#FDD900" d="M142.77,183.125c-0.196,0-0.393-0.031-0.579-0.092l-21.511-6.922
			c-0.648-0.208-1.134-0.748-1.271-1.414L87.82,22.46c-0.213-1.022,0.444-2.022,1.465-2.234l97.247-20.18
			c0.307-0.07,0.633-0.062,0.955,0.033h0.002l0.001,0.001c0.032,0.009,0.064,0.02,0.096,0.031v0.001
			c0.002,0,0.004,0.001,0.008,0.002c0,0,0,0,0.002,0c0.316,0.116,0.586,0.309,0.789,0.55l16.367,18.546
			c0.455,0.516,0.595,1.238,0.362,1.885l-8.365,23.458c-0.226,0.635-0.772,1.101-1.437,1.223c-0.661,0.123-1.341-0.118-1.777-0.631
			l-15.796-18.482c-0.43-0.502-0.565-1.192-0.357-1.819l6.746-20.44L91.903,23.542l30.98,149.311l19.99,6.433l75.737-15.717
			l6.864-19.438l-65.992,13.693c-0.485,0.104-1.001,0.006-1.421-0.271c-0.419-0.274-0.711-0.705-0.812-1.195l-4.37-21.065
			c-0.212-1.02,0.444-2.021,1.467-2.231l57.256-11.882c0.664-0.139,1.353,0.093,1.801,0.602l16.364,18.545
			c0.223,0.242,0.384,0.547,0.455,0.893c0.074,0.361,0.041,0.719-0.078,1.039l-8.324,23.574c-0.222,0.623-0.75,1.086-1.398,1.219
			l-77.268,16.035C143.027,183.112,142.898,183.125,142.77,183.125 M156.963,136.377l3.604,17.365l64.238-13.33l-13.51-15.312
			L156.963,136.377z M181.303,25.018l12.983,15.193l6.896-19.336L187.709,5.608L181.303,25.018z"/>
	</g>
	<g>
		<defs>
			<rect id="SVGID_3_" x="0.06" width="302.16" height="183.066"/>
		</defs>
		<clipPath id="SVGID_4_">
			<use xlink:href="#SVGID_3_"  overflow="visible"/>
		</clipPath>
		<path clip-path="url(#SVGID_4_)" fill="#FDD900" d="M142.767,183.125c-0.876,0-1.662-0.613-1.848-1.506L111.428,39.495
			c-0.213-1.022,0.443-2.022,1.466-2.234l65.896-13.674c1.012-0.211,2.021,0.444,2.233,1.465c0.213,1.022-0.444,2.022-1.467,2.234
			l-64.046,13.291l29.107,140.275c0.212,1.021-0.444,2.021-1.466,2.232C143.025,183.112,142.895,183.125,142.767,183.125"/>
	</g>
</g>
<path fill="#FDD900" d="M150.912,118.442c-0.876,0-1.662-0.613-1.847-1.507c-0.212-1.021,0.443-2.021,1.466-2.231l39.035-8.102
	l7.621-21.479L182.33,68.294l-40.146,8.331c-0.489,0.101-1.003,0.004-1.42-0.27c-0.419-0.275-0.711-0.705-0.813-1.196l-3.943-19.006
	c-0.213-1.021,0.444-2.021,1.467-2.233l57.112-11.851c1.016-0.212,2.021,0.444,2.233,1.465c0.212,1.022-0.444,2.022-1.467,2.234
	L140.09,57.235l3.176,15.307l39.369-8.17c0.666-0.136,1.353,0.092,1.801,0.599l16.319,18.486c0.454,0.514,0.595,1.234,0.364,1.882
	l-8.352,23.531c-0.221,0.621-0.75,1.082-1.396,1.217l-40.075,8.315C151.169,118.429,151.04,118.442,150.912,118.442"/>
<path fill="#000000" d="M120.287,88.524c0.943-0.253,1.895-0.955,2.54-2.243l2.157-4.144c0.431-0.784,0.65-1.513,0.66-2.073
	c0.031-1.904-1.621-2.798-3.298-2.349c-0.944,0.253-1.895,0.955-2.542,2.242l-2.155,4.146c-0.432,0.784-0.651,1.512-0.66,2.071
	C116.957,88.078,118.61,88.974,120.287,88.524"/>
<g>
	<g>
		<defs>
			<rect id="SVGID_5_" x="0.06" width="302.16" height="183.066"/>
		</defs>
		<clipPath id="SVGID_6_">
			<use xlink:href="#SVGID_5_"  overflow="visible"/>
		</clipPath>
		<path clip-path="url(#SVGID_6_)" fill="#000000" d="M299.024,68.818c-0.943,0.253-1.999,0.981-2.648,2.382
			c-0.647,1.287-1.184,2.212-1.934,3.304c-3.207,4.65-6.901,7.201-9.417,7.876c-2.097,0.561-2.606-0.083-2.586-1.313
			c0.061-3.584,9.439-15.574,9.584-24.196c0.121-7.278-8.423-7.887-12.573-9.227c-0.104-0.084-0.205-0.28-0.413-0.335
			c0.111-0.365,0.12-0.925,0.128-1.372c0.059-3.473-3.182-3.048-3.812-2.879c-1.362,0.365-4.209,2.13-4.267,5.489
			c-0.027,1.681,0.784,3.023,1.917,3.946c-2.693,5.181-6.666,11.819-9.866,16.022l-1.706,2.242
			c-4.692,6.162-13.225,17.257-20.037,19.082c-4.506,1.208-5.898-2.879-6.043-6.741c10.704-3.761,21.509-13.457,21.653-22.191
			c0.084-5.04-3.304-8.256-8.545-6.851c-6.555,1.757-16.405,11.929-18.823,24.279l-0.901,1.186
			c-5.229,6.864-10.436,12.495-15.836,17.399c2.651-8.961,4.881-17.475,7.179-23.774c0.762-1.988,1.09-2.857,1.844-4.285
			c0.215-0.392,0.221-0.728,0.438-1.121c0.323-0.644,0.438-1.232,0.447-1.792c0.03-1.903-1.519-2.825-3.194-2.376
			c-1.048,0.281-2.001,1.094-2.651,2.495l-0.104,0.139c-1.969-0.921-4.471-1.03-7.091-0.328
			c-8.396,2.25-19.126,12.141-23.594,23.117c-0.056,0.069-0.11,0.122-0.167,0.196l-1.706,2.242
			c-2.133,2.8-11.623,15.042-16.82,20.114c-0.741,0.758-1.271,1.119-1.479,1.176c-0.104,0.029-0.207-0.055-0.204-0.278
			c0.006-0.335,0.118-0.812,0.342-1.651c1.666-6.133,6.693-13.5,6.784-18.874c0.098-5.823-3.294-9.041-8.954-7.525
			c-6.706,1.798-13.622,9.783-19.5,18.158c0.899-3.805,1.481-7.418,1.528-10.217c0.016-0.896-0.239-4.507-3.697-3.581
			c-1.677,0.449-2.953,2.018-3.489,2.831c-2.57,3.921-6.738,9.832-8.871,12.632l-1.706,2.242c-0.22,0.287-0.394,0.563-0.542,0.832
			c-3.885,5.205-12.238,16.975-16.886,18.221c-0.638,0.171-1.054-0.131-1.323-0.635c-0.487-0.906-0.504-2.467-0.493-3.115
			c0.033-1.975,0.639-4.317,1.523-6.771c1.572-4.365,4.023-9.076,5.686-12.664c0.435-1.006,0.764-1.875,0.776-2.658
			c0.008-0.447-0.089-0.98-0.394-1.455c-0.407-0.672-1.234-1.008-2.175-0.978l-1.362,0.364c-5.14,1.711-11.961,3.986-20.765,6.457
			c6.23-10.811,14.334-27.475,14.467-35.427c0.06-3.471-2.125-4-3.592-3.606c-1.573,0.421-2.532,1.681-3.064,2.381l-0.107,0.14
			l-0.106,0.141c-2.247,3.388-9.114,20.948-13.421,35.145c-3.866,6.61-7.822,12.465-10.384,15.828l-0.816,1.071l-0.887,1.058
			c-4.16,5.461-9.339,9.414-14.687,11.07c1.974-5.771,4.381-12.436,6.682-19.07c8.894-13.979,18.576-31.512,18.72-40.134
			c0.045-2.686-1.059-5.29-4.099-4.475c-1.362,0.365-2.528,1.458-3.166,2.187c-5.315,5.883-13.021,29.909-15.212,36.294
			c-0.109,0.252-0.547,1.483-1.312,3.471c-4.179,6.584-8.026,12.187-10.375,15.27l-1.706,2.24
			c-7.679,10.084-19.742,26.473-31.061,29.507c-8.174,2.19-11.963-2.146-11.859-8.416c0.13-7.726,5.592-16.214,12.265-22.126
			c2.076,0.559,4.583,0.441,7.413-0.316c6.603-1.771,9.384-5.857,9.436-8.994c0.048-2.91-2.108-5.008-5.776-4.026
			c-3.353,0.899-7.354,3.088-10.417,5.356c-1.646-1.453-2.441-3.805-2.394-6.715c0.17-10.19,9.888-23.497,22.673-26.924
			c3.668-0.984,4.369,0.725,4.349,1.957c-0.022,1.343-0.786,3.443-2.809,5.768c-0.85,1.01-1.283,1.906-1.298,2.801
			c-0.03,1.792,1.512,3.162,3.188,2.712c0.629-0.167,1.368-0.699,2.007-1.429c3.188-3.53,5.137-7.731,5.2-11.538
			c0.098-5.823-4.237-8.675-10.526-6.989c-15.826,4.24-28.831,20.879-29.073,35.325c-0.063,3.808,0.918,7.445,3.069,9.88
			c-7.635,7.397-13.438,17.536-13.597,26.94c-0.168,10.08,6.401,16.568,18.034,13.451c13.729-3.682,26.324-20.656,35.497-32.703
			l0.108-0.14c-5.587,15.878-11.743,34.692-11.854,41.302c-0.066,4.032,1.331,7.781,5.732,6.602
			c7.86-2.106,16.887-17.791,17.104-30.782c0.065-3.918-0.709-7.612-2.434-10.495c3.402-1.24,10.992-6.299,16.214-12.98
			c0.315-0.352,0.66-0.773,1.053-1.274l1.042-1.242c0.211-0.276,0.38-0.543,0.526-0.804l0.113-0.146
			c-4.51,13.918-10.401,29.318-11.584,37.773c-0.118,0.812-0.132,1.598-0.146,2.382c-0.076,4.591,1.75,7.668,6.565,6.711
			l0.629-0.167c11.422-3.062,13.534-23.249,14.201-31.9c0.271-3.862,0.552-8.174,0.62-12.316c0.075-4.479-0.061-8.791-0.519-12.57
			c6.602-1.77,13.732-3.902,17.195-5.055c-2.704,5.74-5.312,11.902-5.404,17.391c-0.089,5.377,2.334,10.299,7.992,8.782
			c7.965-2.135,16.528-15.133,21.969-22.274l1.707-2.242c0.212-0.279,0.382-0.547,0.529-0.807c1.017-1.342,2.324-3.088,3.636-4.992
			c-1.354,6.16-3.562,13.44-5.308,18.035c-0.222,0.614-0.333,1.203-0.343,1.762c-0.032,1.904,1.518,2.826,3.193,2.377
			c1.154-0.309,1.79-0.926,2.54-2.129c5.357-8.461,17.172-28.684,25.243-30.846c1.886-0.505,2.814,0.026,2.774,2.49
			c-0.062,3.694-7.122,14.171-7.255,22.122c-0.056,3.357,1.785,5.541,5.139,4.643c4.975-1.332,14.013-12.293,19.768-19.717
			c0.758,3.698,3.669,6.635,8.434,5.355c4.192-1.122,9.27-5.158,14.814-12.44c-0.662,2.183-1.324,4.367-1.886,6.636
			c-0.224,0.951-0.56,2.267-0.997,3.61c-9.189,6.7-27.602,15.871-27.825,29.31c-0.108,6.496,5.6,8.309,10.105,7.102
			c10.795-2.895,17.609-17.43,22.881-33.109c5.834-4.203,11.278-8.992,19.583-19.368c1.062,6.452,4.96,10.67,11.892,8.812
			c9.118-2.442,18.287-14.155,24.473-22.278l1.707-2.242c0.005-0.006,0.009-0.012,0.014-0.018
			c3.624-4.763,7.802-11.67,10.708-17.236c3.737,1.117,7.589,1.645,7.553,3.772c-0.109,6.606-9.472,17.365-9.585,24.196
			c-0.099,5.935,4.257,7.555,8.764,6.347c4.61-1.236,9.999-5.244,14.169-11.38c0.965-1.484,1.931-3.08,2.688-4.621
			c0.325-0.756,0.438-1.344,0.449-1.904C302.251,69.29,300.7,68.369,299.024,68.818 M48.785,171.901
			c-0.63,0.169-0.723-0.363-0.709-1.26c0.053-3.135,1.405-9.184,5.021-19.404c0.325-0.867,1.317-4.031,2.963-8.822
			c1.226,1.567,2.229,3.975,2.172,7.332C58.021,162.402,50.462,171.452,48.785,171.901z M84.522,137.239
			c-0.28,4.312-1.938,22.369-7.807,23.941l-0.21,0.057c-0.522,0.027-0.829-0.335-0.81-1.453c0.005-0.336,0.013-0.785,0.125-1.261
			c1.504-8.876,4.362-17.558,7.878-28.198l1.762-5.488L84.522,137.239z M187.039,133.504c-2.515,0.675-3.953-0.725-3.931-2.067
			c0.056-3.358,2.619-6.834,8.011-11.065c4.123-3.223,7.606-5.719,10.669-7.877C198.401,121.651,193.327,131.819,187.039,133.504z
			 M192.827,99.29c-1.363,0.365-2.495-0.558-2.463-2.461c0.162-9.742,11.22-22.07,19.289-24.233c1.467-0.393,2.82-0.31,3.854,0.305
			C208.013,83.292,199.429,97.52,192.827,99.29z M248.348,60.774c1.678-0.45,2.395,0.361,2.371,1.818
			c-0.069,4.142-6.748,10.392-14.311,13.422C238.396,69.573,243.213,62.15,248.348,60.774z"/>
	</g>
</g>
<polyline fill="#F8DD48" points="165.983,93.572 165.216,89.872 178.624,87.09 179.391,90.789 165.983,93.572 "/>
<polyline fill="#F8DD48" points="168.094,114.891 166.895,111.312 182.093,108.146 182.386,111.997 168.094,114.891 "/>
<polyline fill="#F8DD48" points="192.995,128.82 191.796,125.243 206.994,122.075 207.287,125.924 192.995,128.82 "/>
<path fill="#F8DD48" d="M165.216,89.872c-1.772,0.263-3.724,1.122-7.498,5.343l8.825-3.822"/>
<path fill="#F8DD48" d="M168.094,114.891c-0.408,0.357-4.097,1.874-2.13-3.396l2.505-0.5L168.094,114.891"/>
<polyline fill="#F8DD48" points="184.423,89.739 183.656,86.039 197.906,83.082 198.673,86.782 184.423,89.739 "/>
<path fill="#F8DD48" d="M105.623,89.659l-3.699,0.768l7.183,33.619c0,0,0.178,3.113,3.743,0.437"/>
</svg>
