<?xml version="1.0" encoding="utf-8"?>
<!-- Generator: Adobe Illustrator 16.0.4, SVG Export Plug-In . SVG Version: 6.00 Build 0)  -->
<!DOCTYPE svg PUBLIC "-//W3C//DTD SVG 1.1//EN" "http://www.w3.org/Graphics/SVG/1.1/DTD/svg11.dtd">
<svg version="1.1" id="Ebene_1" xmlns="http://www.w3.org/2000/svg" xmlns:xlink="http://www.w3.org/1999/xlink" x="0px" y="0px"
	 width="60px" height="60px" viewBox="0 0 60 60" enable-background="new 0 0 60 60" xml:space="preserve">
<path stroke="#000000" stroke-miterlimit="10" d="M48.864,21.134c0,9.778-17.706,33.855-17.706,33.855S13.453,30.912,13.453,21.134
	c0-9.779,7.927-17.706,17.706-17.706S48.864,11.355,48.864,21.134z"/>
<g>
	<path fill="#FFDB00" d="M29.794,28.762c-0.128,0-0.242-0.09-0.269-0.22l-1.188-5.717c-0.03-0.149,0.065-0.295,0.214-0.326
		l7.678-1.593c0.146-0.031,0.294,0.064,0.324,0.213c0.031,0.148-0.064,0.294-0.213,0.325l-7.408,1.537l1.131,5.448
		c0.032,0.149-0.064,0.295-0.214,0.327C29.831,28.76,29.813,28.762,29.794,28.762"/>
	<path fill="#FFDB00" d="M27.337,17.234c-0.129,0-0.242-0.089-0.269-0.219l-0.631-3.041c-0.032-0.149,0.064-0.294,0.213-0.326
		c0.148-0.03,0.295,0.065,0.325,0.214l0.632,3.041c0.031,0.148-0.065,0.294-0.214,0.325C27.374,17.232,27.355,17.234,27.337,17.234"
		/>
	<g>
		<defs>
			<rect id="SVGID_1_" x="7.258" y="8.837" width="44.017" height="33.496"/>
		</defs>
		<clipPath id="SVGID_2_">
			<use xlink:href="#SVGID_1_"  overflow="visible"/>
		</clipPath>
		<path clip-path="url(#SVGID_2_)" fill="#FFDB00" d="M28.052,35.509c-0.028,0-0.057-0.006-0.083-0.014l-3.134-1.008
			c-0.094-0.031-0.165-0.109-0.185-0.206l-4.601-22.173c-0.031-0.149,0.064-0.294,0.213-0.326l14.164-2.939
			c0.044-0.01,0.092-0.009,0.139,0.004l0,0c0.005,0.002,0.01,0.003,0.014,0.005c0.001,0,0.001,0,0.001,0l0,0
			c0.047,0.017,0.087,0.044,0.116,0.08l2.384,2.701c0.066,0.075,0.086,0.18,0.053,0.274l-1.219,3.417
			c-0.032,0.092-0.112,0.16-0.209,0.178s-0.195-0.017-0.259-0.092l-2.301-2.692c-0.062-0.073-0.082-0.173-0.052-0.265l0.982-2.977
			l-13.433,2.788l4.513,21.747l2.911,0.937l11.031-2.289l1-2.831l-9.612,1.994c-0.07,0.015-0.146,0.001-0.207-0.039
			c-0.061-0.04-0.104-0.103-0.117-0.174l-0.637-3.068c-0.032-0.149,0.063-0.294,0.214-0.325l8.339-1.73
			c0.097-0.02,0.196,0.013,0.262,0.087l2.384,2.702c0.032,0.035,0.056,0.079,0.065,0.129c0.012,0.053,0.007,0.104-0.012,0.152
			l-1.212,3.433c-0.031,0.091-0.109,0.159-0.202,0.178l-11.254,2.336C28.09,35.507,28.071,35.509,28.052,35.509 M30.12,28.699
			l0.524,2.529l9.356-1.941l-1.968-2.229L30.12,28.699z M33.665,12.48l1.891,2.213l1.004-2.816l-1.962-2.224L33.665,12.48z"/>
	</g>
	<path fill="#FFDB00" d="M28.052,35.509c-0.128,0-0.242-0.09-0.269-0.22l-4.296-20.7c-0.03-0.149,0.065-0.294,0.214-0.325
		l9.598-1.992c0.147-0.031,0.294,0.064,0.325,0.213c0.031,0.148-0.064,0.294-0.213,0.325l-9.329,1.936l4.24,20.432
		c0.031,0.148-0.065,0.294-0.214,0.325C28.089,35.507,28.071,35.509,28.052,35.509"/>
	<path fill="#FFDB00" d="M29.238,26.087c-0.128,0-0.242-0.089-0.269-0.219c-0.032-0.149,0.065-0.294,0.214-0.326l5.685-1.179
		l1.11-3.129l-2.164-2.451l-5.847,1.214c-0.071,0.015-0.146,0-0.208-0.04c-0.061-0.04-0.103-0.103-0.118-0.174l-0.574-2.768
		c-0.032-0.149,0.063-0.294,0.212-0.326l8.319-1.726c0.148-0.03,0.294,0.065,0.325,0.214c0.03,0.149-0.064,0.294-0.214,0.325
		l-8.049,1.67l0.463,2.229l5.733-1.19c0.098-0.02,0.197,0.014,0.263,0.087l2.377,2.693c0.066,0.074,0.087,0.18,0.054,0.273
		l-1.217,3.427c-0.033,0.091-0.109,0.158-0.203,0.178l-5.837,1.211C29.276,26.085,29.257,26.087,29.238,26.087"/>
	<g>
		<defs>
			<rect id="SVGID_3_" x="7.258" y="8.837" width="44.017" height="33.496"/>
		</defs>
		<clipPath id="SVGID_4_">
			<use xlink:href="#SVGID_3_"  overflow="visible"/>
		</clipPath>
	</g>
</g>
</svg>
