<?xml version="1.0" encoding="utf-8"?>
<!-- Generator: Adobe Illustrator 16.0.0, SVG Export Plug-In . SVG Version: 6.00 Build 0)  -->
<!DOCTYPE svg PUBLIC "-//W3C//DTD SVG 1.1//EN" "http://www.w3.org/Graphics/SVG/1.1/DTD/svg11.dtd">
<svg version="1.1" id="Ebene_1" xmlns="http://www.w3.org/2000/svg" xmlns:xlink="http://www.w3.org/1999/xlink" x="0px" y="0px"
	 width="100px" height="100px" viewBox="0 0 100 100" enable-background="new 0 0 100 100" xml:space="preserve">
<path fill="none" stroke="#000000" stroke-width="2" stroke-miterlimit="10" d="M40.87,52.619c0,0-7.464-4.537-7.464-14.322
	c0-9.786,5.275-16.234,16.155-16.234s17.141,7.224,17.229,16.384c0.087,9.161-7.513,14.221-7.513,14.221
	c11.714,2.746,20.362,13.421,20.047,22.232C79.009,83.712,68.986,85,68.986,85H32.482c0,0-11.394-1.077-11.394-10.256
	S30.9,54.149,40.87,52.619z"/>
<path fill="none" stroke="#000000" stroke-width="2" stroke-miterlimit="10" d="M63.711,22.193c10.88,0,18.184,7.225,18.271,16.385
	s-7.513,14.221-7.513,14.221c11.714,2.747,20.04,13.394,20.047,22.21c0.009,9.444-13.818,9.021-13.818,9.021"/>
<path fill="none" stroke="#000000" stroke-width="2" stroke-miterlimit="10" d="M35.174,22.193c-10.88,0-18.184,7.225-18.27,16.384
	c-0.087,9.161,7.512,14.221,7.512,14.221c-11.714,2.747-20.04,13.394-20.047,22.21c-0.008,9.444,13.819,9.021,13.819,9.021"/>
</svg>
