<?xml version="1.0" encoding="utf-8"?>
<!-- Generator: Adobe Illustrator 16.0.4, SVG Export Plug-In . SVG Version: 6.00 Build 0)  -->
<!DOCTYPE svg PUBLIC "-//W3C//DTD SVG 1.1//EN" "http://www.w3.org/Graphics/SVG/1.1/DTD/svg11.dtd">
<svg version="1.1" id="Ebene_1" xmlns="http://www.w3.org/2000/svg" xmlns:xlink="http://www.w3.org/1999/xlink" x="0px" y="0px"
	 width="100px" height="100px" viewBox="0 0 100 100" enable-background="new 0 0 100 100" xml:space="preserve">
<g>
	<path d="M-46.414,59.218c-0.68,0-1.257,0.074-1.257-0.605v-7.988c0-2.29-2.364-4.3-5.06-4.3h-5.882v-2.462h5.882
		c4.075,0,7.518,3.097,7.518,6.762v7.988C-45.213,59.292-45.735,59.218-46.414,59.218z"/>
	<path d="M-28.056,59.843h-19.006c-0.326,0-0.638-0.129-0.868-0.36l-12.454-12.472c-0.23-0.23-0.36-0.543-0.36-0.871V15.287
		c0-5.022,4.08-9.107,9.094-9.107h23.595c5.014,0,9.091,4.085,9.091,9.107v35.449C-18.965,55.757-23.042,59.843-28.056,59.843z
		 M-46.553,57.382h18.497c3.657,0,6.633-2.981,6.633-6.646V15.287c0-3.665-2.976-6.646-6.633-6.646H-51.65
		c-3.659,0-6.636,2.981-6.636,6.646v30.344L-46.553,57.382z"/>
	<path d="M-30.389,23.164h-19.66c-0.68,0-1.229-0.55-1.229-1.23c0-0.681,0.55-1.231,1.229-1.231h19.66
		c0.68,0,1.229,0.55,1.229,1.231C-29.16,22.614-29.709,23.164-30.389,23.164z"/>
	<path d="M-30.389,30.549h-19.66c-0.68,0-1.229-0.55-1.229-1.231c0-0.68,0.55-1.23,1.229-1.23h19.66c0.68,0,1.229,0.55,1.229,1.23
		C-29.16,29.999-29.709,30.549-30.389,30.549z"/>
	<path d="M-30.389,37.935h-19.66c-0.68,0-1.229-0.551-1.229-1.23c0-0.682,0.55-1.231,1.229-1.231h19.66
		c0.68,0,1.229,0.55,1.229,1.231C-29.16,37.384-29.709,37.935-30.389,37.935z"/>
</g>
<path fill="none" stroke="#000000" stroke-width="3" stroke-miterlimit="10" d="M239.5,38.5c0,2.761-2.238,5-5,5h-70
	c-2.762,0-5-2.239-5-5V32c0,0,4.625-0.125,4.625-9s-4.625-9-4.625-9V8.5c0-2.761,2.238-5,5-5h70c2.762,0,5,2.239,5,5V14
	c0,0-3.625,0.125-3.625,9s3.625,8.75,3.625,8.75V38.5z"/>
<g>
	<path fill-rule="evenodd" clip-rule="evenodd" fill="none" stroke="#000000" stroke-width="2" stroke-miterlimit="10" d="
		M176.012,145.719c-13.533,0-27.067,0.006-40.602-0.004c-3.97-0.004-4.986-1.032-5-5.004c-0.014-3.408,0.065-6.817-0.033-10.223
		c-0.047-1.609,0.428-2.4,2.076-2.889c3.954-1.165,6.155-4.17,6.131-7.884c-0.025-3.693-2.25-6.665-6.238-7.82
		c-1.558-0.451-1.988-1.175-1.96-2.653c0.067-3.602-0.021-7.206,0.036-10.808c0.045-2.872,1.241-4.134,4.084-4.136
		c27.652-0.027,55.305-0.026,82.955-0.001c2.85,0.003,4.069,1.259,4.115,4.112c0.061,3.697-0.052,7.4,0.048,11.098
		c0.044,1.626-0.464,2.394-2.095,2.877c-3.955,1.174-6.142,4.16-6.114,7.893c0.027,3.701,2.244,6.663,6.237,7.819
		c1.562,0.452,1.991,1.177,1.961,2.651c-0.067,3.311-0.011,6.622-0.023,9.932c-0.015,3.98-1.04,5.031-4.976,5.035
		C203.079,145.725,189.545,145.719,176.012,145.719z"/>
</g>
<path fill="none" stroke="#000000" stroke-width="2" stroke-miterlimit="10" d="M208,134.873c0,2.649-2.623,5.127-5.592,5.127
	h-53.775c-2.97,0-6.633-2.478-6.633-5.127v-28.787c0-2.648,3.663-4.086,6.633-4.086h53.775c2.969,0,5.592,1.438,5.592,4.086V134.873
	z"/>
<g>
	<path d="M164.134,117.16h9.058l2.801-8.619l2.799,8.619h9.059l-7.32,5.33l2.799,8.619l-7.336-5.33l-7.338,5.33l2.8-8.619
		L164.134,117.16z"/>
</g>
<g>
	<g>
		<path fill="none" stroke="#000000" stroke-width="2" stroke-miterlimit="10" d="M125,8c-1.65,0-3-1.35-3-3v-46c0-1.65,1.35-3,3-3
			h6c1.65,0,3,1.35,3,3v21c0,1.65,1.204,2.39,2.676,1.644l12.648-6.412c1.472-0.746,2.676-0.006,2.676,1.644V-20
			c0,1.65,1.207,2.396,2.684,1.658l12.633-6.316C168.793-25.396,170-24.65,170-23v3c0,1.65,1.204,2.39,2.676,1.644l12.648-6.412
			c1.472-0.746,2.676-0.006,2.676,1.644V5c0,1.65-1.35,3-3,3H125z"/>
	</g>
	<g>
		<path fill="none" stroke="#000000" stroke-width="2" stroke-miterlimit="10" d="M147-5c0,1.65-1.35,3-3,3h-3c-1.65,0-3-1.35-3-3
			v-3c0-1.65,1.35-3,3-3h3c1.65,0,3,1.35,3,3V-5z"/>
	</g>
	<g>
		<path fill="none" stroke="#000000" stroke-width="2" stroke-miterlimit="10" d="M165-5c0,1.65-1.35,3-3,3h-3c-1.65,0-3-1.35-3-3
			v-3c0-1.65,1.35-3,3-3h3c1.65,0,3,1.35,3,3V-5z"/>
	</g>
	<g>
		<path fill="none" stroke="#000000" stroke-width="2" stroke-miterlimit="10" d="M183-5c0,1.65-1.35,3-3,3h-3c-1.65,0-3-1.35-3-3
			v-3c0-1.65,1.35-3,3-3h3c1.65,0,3,1.35,3,3V-5z"/>
	</g>
</g>
<image overflow="visible" width="180" height="180" xlink:href="../../../../Desktop/stock-vector-icon-factory-smokestack-tube-369333719.jpg"  transform="matrix(0.3666 0 0 0.3666 -58.6118 89.2539)">
</image>
<g>
	<g>
		<path fill="none" stroke="#000000" stroke-width="2" stroke-miterlimit="10" d="M19.848,79.556C19.298,79.558,19,79.108,19,78.559
			V63.026c0-0.55-0.471-1.318-0.859-1.707l-2.315-2.238c-0.389-0.389-0.423-1.021-0.03-1.406l11.115-10.875
			c0.394-0.384,1.041-0.397,1.449-0.029l5.887,5.309c0.409,0.368,1.052,0.344,1.433-0.053l11.91-12.436
			c0.38-0.397,1.011-0.405,1.402-0.019l6.177,6.117c0.391,0.387,1.032,0.39,1.426,0.005l11.937-11.639
			c0.394-0.384,1.032-0.378,1.418,0.014l11.307,11.465c0.386,0.392,0.368,1.013-0.041,1.381l-1.436,1.292
			c-0.409,0.368-0.745,1.119-0.748,1.669l-0.137,28.536c-0.003,0.55-0.379,1.001-0.929,1.002L19.848,79.556z"/>
	</g>
	<g>
		<path fill="none" stroke="#000000" stroke-width="2" stroke-miterlimit="10" d="M31.26,48.986l2.226-19.928
			C33.547,28.512,34.047,28,34.597,28h7.643c0.55,0,1.037,0.514,1.081,1.062l1.088,13.427"/>
	</g>
	<g>
		
			<line fill="none" stroke="#000000" stroke-width="2" stroke-linecap="round" stroke-miterlimit="10" x1="35" y1="25" x2="43" y2="25"/>
	</g>
	<g>
		<path fill="none" stroke="#000000" stroke-width="2" stroke-miterlimit="10" d="M34.859,20.119C34.67,20.636,34.965,21,35.515,21
			h6.433c0.55,0,0.884-0.377,0.743-0.908l-0.729-2.934C41.822,16.626,41.256,16,40.706,16h-3.479c-0.55,0-1.155,0.614-1.344,1.13
			L34.859,20.119z"/>
	</g>
	<g>
		<path fill="none" stroke="#000000" stroke-width="2" stroke-miterlimit="10" d="M33,69c0,0.552-0.448,1-1,1h-5
			c-0.552,0-1-0.448-1-1v-5c0-0.552,0.448-1,1-1h5c0.552,0,1,0.448,1,1V69z"/>
	</g>
	<g>
		<path fill="none" stroke="#000000" stroke-width="2" stroke-miterlimit="10" d="M50,69c0,0.552-0.448,1-1,1h-5
			c-0.552,0-1-0.448-1-1v-5c0-0.552,0.448-1,1-1h5c0.552,0,1,0.448,1,1V69z"/>
	</g>
	<g>
		<path fill="none" stroke="#000000" stroke-width="2" stroke-miterlimit="10" d="M69,69c0,0.552-0.448,1-1,1h-5
			c-0.552,0-1-0.448-1-1v-5c0-0.552,0.448-1,1-1h5c0.552,0,1,0.448,1,1V69z"/>
	</g>
</g>
</svg>
