<?xml version="1.0" encoding="utf-8"?>
<!-- Generator: Adobe Illustrator 16.0.0, SVG Export Plug-In . SVG Version: 6.00 Build 0)  -->
<!DOCTYPE svg PUBLIC "-//W3C//DTD SVG 1.1//EN" "http://www.w3.org/Graphics/SVG/1.1/DTD/svg11.dtd">
<svg version="1.1" id="Ebene_1" xmlns="http://www.w3.org/2000/svg" xmlns:xlink="http://www.w3.org/1999/xlink" x="0px" y="0px"
	 width="100px" height="100px" viewBox="-20 -20 100 100" enable-background="new -20 -20 100 100" xml:space="preserve">
<path fill="#777777" d="M46.409-7.5c0-5.156-4.222-9.376-9.378-9.376c0-1.719-1.406-3.124-3.125-3.124h-7.813
	c-1.72,0-3.125,1.405-3.125,3.124c-5.156,0-9.376,4.22-9.376,9.376v3.125c0,2.655,2.032,4.688,4.688,4.688h1.562
	c0,1.72,1.408,3.125,3.125,3.125v7.815c0,6.405-9.376,14.684-9.376,25v37.5c0,3.44,2.812,6.248,6.249,6.248h20.314
	c3.437,0,6.25-2.808,6.25-6.248V36.249c0-10.313-9.378-18.592-9.378-25.001V3.435c1.716,0,3.125-1.405,3.125-3.125h1.562
	c2.657,0,4.686-2.032,4.686-4.688V-7.5H46.409z M36.25,64.377c0,3.438-2.811,6.248-6.25,6.248c-3.439,0-6.249-2.811-6.249-6.248
	c0-1.721-1.408-3.127-3.125-3.127h-3.907V39.378h3.907c1.72,0,3.125-1.406,3.125-3.126C23.751,32.815,26.56,30,30,30
	c3.44,0,6.25,2.815,6.25,6.249c0,1.723,1.403,3.124,3.122,3.124h3.909v21.874h-3.909C37.653,61.25,36.25,62.661,36.25,64.377
	L36.25,64.377z M39.377,36.249c0-5.155-4.222-9.376-9.377-9.376s-9.376,4.221-9.376,9.376h-3.907c0-9.376,9.376-17.657,9.376-25.001
	V3.435h7.813v7.813c0,7.344,9.375,15.625,9.375,25.001H39.377z M43.281,64.377v9.373c0,1.721-1.406,3.127-3.125,3.127H19.843
	c-1.718,0-3.124-1.406-3.124-3.127v-9.373h3.907c0,5.159,4.22,9.373,9.376,9.373c5.156,0,9.375-4.214,9.375-9.373H43.281z
	 M22.968-7.5h14.063v7.812H22.968V-7.5z M26.093-16.876h7.813l-1.097,6.249h-5.623L26.093-16.876z M40.156-7.5
	c0-1.72-1.409-3.124-3.125-3.124H35.78l0.622-3.125h0.629c3.433,0,6.25,2.812,6.25,6.249v3.125c0,0.938-0.629,1.562-1.563,1.562
	h-1.563L40.156-7.5L40.156-7.5z M24.219-10.624h-1.251c-1.72,0-3.125,1.406-3.125,3.124v4.688H18.28
	c-0.939,0-1.563-0.625-1.563-1.562V-7.5c0-3.438,2.812-6.249,6.249-6.249h0.627L24.219-10.624z"/>
</svg>
