<?xml version="1.0" encoding="utf-8"?>
<!-- Generator: Adobe Illustrator 16.0.0, SVG Export Plug-In . SVG Version: 6.00 Build 0)  -->
<!DOCTYPE svg PUBLIC "-//W3C//DTD SVG 1.1//EN" "http://www.w3.org/Graphics/SVG/1.1/DTD/svg11.dtd">
<svg version="1.1" id="Ebene_1" xmlns="http://www.w3.org/2000/svg" xmlns:xlink="http://www.w3.org/1999/xlink" x="0px" y="0px"
	 width="100px" height="100px" viewBox="0 0 100 100" enable-background="new 0 0 100 100" xml:space="preserve">
<g>
	<path fill="#777777" d="M89.383,6.414H75.289c-0.029,0-0.055,0.007-0.082,0.008c-0.06,0.003-0.117,0.01-0.176,0.019
		c-0.055,0.009-0.108,0.019-0.161,0.032c-0.052,0.014-0.101,0.029-0.151,0.048c-0.053,0.019-0.106,0.04-0.156,0.063
		c-0.048,0.022-0.094,0.048-0.14,0.076c-0.047,0.028-0.092,0.058-0.136,0.09c-0.044,0.033-0.086,0.067-0.127,0.105
		c-0.041,0.036-0.079,0.074-0.118,0.116c-0.034,0.038-0.068,0.078-0.1,0.121c-0.036,0.049-0.069,0.1-0.103,0.151
		c-0.014,0.023-0.03,0.043-0.044,0.066l-4.327,8.114H43.069C42.217,6.777,34.906,0,26.04,0C16.604,0,8.926,7.678,8.926,17.114
		c0,7.903,5.497,14.766,13.033,16.618l-2.368,16.575l-0.017,0.239c0,16.166,12.707,29.417,28.655,30.299v15.771H35.592
		c-0.936,0-1.691,0.758-1.691,1.691c0,0.933,0.756,1.691,1.691,1.691h28.655c0.934,0,1.691-0.759,1.691-1.691
		c0-0.934-0.758-1.691-1.691-1.691H51.611V80.845c15.95-0.881,28.655-14.132,28.655-30.3l-5.002-35.122h-1.962l3-5.626h13.08
		c0.934,0,1.691-0.757,1.691-1.691S90.316,6.414,89.383,6.414 M23.214,48.855l2.318-16.228c0-0.002,0.001-0.003,0.002-0.006V32.61
		l1.972-13.804h40.159L51.64,48.855H23.214z M15.229,25.534c-1.495-1.919-2.489-4.229-2.802-6.729h9.531L15.229,25.534z
		 M15.222,8.688l6.736,6.737h-9.535C12.734,12.901,13.73,10.595,15.222,8.688 M27.731,3.497c2.521,0.312,4.828,1.309,6.735,2.799
		l-6.735,6.735V3.497z M24.349,13.031l-6.735-6.736c1.909-1.489,4.216-2.486,6.735-2.798V13.031z M30.123,15.423l6.735-6.735
		c1.49,1.907,2.487,4.214,2.799,6.735H30.123z M17.613,27.933l6.036-6.035l-1.209,8.458C20.656,29.871,19.023,29.038,17.613,27.933
		 M49.92,77.512c-14.3,0-26.031-11.191-26.908-25.274h53.816C75.95,66.32,64.219,77.512,49.92,77.512 M72.332,18.806l4.294,30.049
		H55.473l16.026-30.049H72.332z"/>
</g>
</svg>
