<?xml version="1.0" encoding="utf-8"?>
<!-- Generator: Adobe Illustrator 16.0.0, SVG Export Plug-In . SVG Version: 6.00 Build 0)  -->
<!DOCTYPE svg PUBLIC "-//W3C//DTD SVG 1.1//EN" "http://www.w3.org/Graphics/SVG/1.1/DTD/svg11.dtd">
<svg version="1.1" id="Ebene_1" xmlns="http://www.w3.org/2000/svg" xmlns:xlink="http://www.w3.org/1999/xlink" x="0px" y="0px"
	 width="100px" height="100px" viewBox="-20 -20 100 100" enable-background="new -20 -20 100 100" xml:space="preserve">
<path fill="#777777" d="M-2.978,30c0,19.187,15.209,34.685,34.042,34.685c18.831,0,34.042-15.498,34.042-34.685
	c0-19.186-15.211-34.685-34.042-34.685C12.231-4.685-2.978,10.814-2.978,30L-2.978,30z M-0.851,30
	c0-17.992,14.255-32.518,31.914-32.518c17.66,0,31.914,14.525,31.914,32.518c0,17.993-14.254,32.519-31.914,32.519
	C13.404,62.519-0.851,47.993-0.851,30L-0.851,30z M9.787,30c0,11.922,9.575,21.678,21.276,21.678
	c11.702,0,21.276-9.756,21.276-21.678S42.766,8.321,31.063,8.321C19.362,8.321,9.787,18.078,9.787,30L9.787,30z M11.915,30
	c0-10.73,8.618-19.511,19.149-19.511c10.528,0,19.149,8.78,19.149,19.511c0,10.731-8.621,19.512-19.149,19.512
	C20.532,49.512,11.915,40.731,11.915,30L11.915,30z M-20,16.994c0,2.384,1.915,4.335,4.255,4.335v37.938
	c0,1.842,1.383,3.252,3.191,3.252c1.809,0,3.192-1.41,3.192-3.252V21.329c2.337,0,4.255-1.951,4.255-4.335V-1.434
	c0-0.65-0.426-1.084-1.064-1.084c-0.641,0-1.063,0.434-1.063,1.084V9.405c0,0.651-0.532,1.084-1.063,1.084
	c-0.533,0-1.064-0.433-1.064-1.084V-1.434c0-0.65-0.426-1.084-1.065-1.084c-0.637,0-1.063,0.434-1.063,1.084V9.405
	c0,0.651-0.426,1.084-1.064,1.084c-0.531,0-1.064-0.433-1.064-1.084V-1.434c0-0.65-0.425-1.084-1.064-1.084
	c-0.638,0-1.063,0.434-1.063,1.084V9.405c0,0.651-0.425,1.084-1.063,1.084c-0.641,0-1.064-0.433-1.064-1.084V-1.434
	c0-0.65-0.425-1.084-1.064-1.084C-19.577-2.518-20-2.084-20-1.434V16.994z M-7.233,16.994c0,1.191-0.958,2.168-2.127,2.168
	c-1.279,0-2.128,0.866-2.128,2.167v37.938c0,0.65-0.426,1.083-1.064,1.083c-0.637,0-1.064-0.433-1.064-1.083V21.329
	c0-1.301-0.851-2.167-2.127-2.167c-1.17,0-2.127-0.977-2.127-2.168v-4.445c0.319,0.108,0.638,0.108,1.064,0.108
	c0.742,0,1.596-0.216,2.127-0.759c0.533,0.543,1.277,0.759,2.128,0.759c0.744,0,1.596-0.216,2.127-0.759
	c0.532,0.543,1.277,0.759,2.129,0.759c0.316,0,0.742,0,1.063-0.108V16.994z M77.871,59.267c0,0.65-0.422,1.083-1.061,1.083
	s-1.061-0.433-1.061-1.083V32.168c0-1.301-0.855-2.168-2.13-2.168c-1.173,0-2.126-0.974-2.126-2.167V6.154
	c0-3.577,2.87-6.504,6.381-6.504v59.616H77.871z M80-0.35c0-1.191-0.958-2.168-2.129-2.168c-4.68,0-8.511,3.902-8.511,8.672v21.679
	c0,2.383,1.913,4.335,4.255,4.335v27.099c0,1.842,1.385,3.252,3.193,3.252c1.807,0,3.191-1.41,3.191-3.252V-0.35L80-0.35z"/>
</svg>
