<?xml version="1.0" encoding="utf-8"?>
<!-- Generator: Adobe Illustrator 16.0.0, SVG Export Plug-In . SVG Version: 6.00 Build 0)  -->
<!DOCTYPE svg PUBLIC "-//W3C//DTD SVG 1.1//EN" "http://www.w3.org/Graphics/SVG/1.1/DTD/svg11.dtd">
<svg version="1.1" id="Ebene_1" xmlns="http://www.w3.org/2000/svg" xmlns:xlink="http://www.w3.org/1999/xlink" x="0px" y="0px"
	 width="100px" height="100px" viewBox="0 12.5 100 100" enable-background="new 0 12.5 100 100" xml:space="preserve">
<metadata><?xpacket begin="﻿" id="W5M0MpCehiHzreSzNTczkc9d"?>
<x:xmpmeta xmlns:x="adobe:ns:meta/" x:xmptk="Adobe XMP Core 5.3-c011 66.145661, 2012/02/06-14:56:27        ">
   <rdf:RDF xmlns:rdf="http://www.w3.org/1999/02/22-rdf-syntax-ns#">
      <rdf:Description rdf:about=""
            xmlns:xmp="http://ns.adobe.com/xap/1.0/"
            xmlns:xmpGImg="http://ns.adobe.com/xap/1.0/g/img/">
         <xmp:CreatorTool>Adobe Illustrator CS6 (Macintosh)</xmp:CreatorTool>
         <xmp:CreateDate>2016-03-18T20:49:02+01:00</xmp:CreateDate>
         <xmp:ModifyDate>2016-03-18T20:49:02+01:00</xmp:ModifyDate>
         <xmp:MetadataDate>2016-03-18T20:49:02+01:00</xmp:MetadataDate>
         <xmp:Thumbnails>
            <rdf:Alt>
               <rdf:li rdf:parseType="Resource">
                  <xmpGImg:width>164</xmpGImg:width>
                  <xmpGImg:height>256</xmpGImg:height>
                  <xmpGImg:format>JPEG</xmpGImg:format>
                  <xmpGImg:image>/9j/4AAQSkZJRgABAgEASABIAAD/7QAsUGhvdG9zaG9wIDMuMAA4QklNA+0AAAAAABAASAAAAAEA&#xA;AQBIAAAAAQAB/+4ADkFkb2JlAGTAAAAAAf/bAIQABgQEBAUEBgUFBgkGBQYJCwgGBggLDAoKCwoK&#xA;DBAMDAwMDAwQDA4PEA8ODBMTFBQTExwbGxscHx8fHx8fHx8fHwEHBwcNDA0YEBAYGhURFRofHx8f&#xA;Hx8fHx8fHx8fHx8fHx8fHx8fHx8fHx8fHx8fHx8fHx8fHx8fHx8fHx8fHx8f/8AAEQgBAACkAwER&#xA;AAIRAQMRAf/EAaIAAAAHAQEBAQEAAAAAAAAAAAQFAwIGAQAHCAkKCwEAAgIDAQEBAQEAAAAAAAAA&#xA;AQACAwQFBgcICQoLEAACAQMDAgQCBgcDBAIGAnMBAgMRBAAFIRIxQVEGE2EicYEUMpGhBxWxQiPB&#xA;UtHhMxZi8CRygvElQzRTkqKyY3PCNUQnk6OzNhdUZHTD0uIIJoMJChgZhJRFRqS0VtNVKBry4/PE&#xA;1OT0ZXWFlaW1xdXl9WZ2hpamtsbW5vY3R1dnd4eXp7fH1+f3OEhYaHiImKi4yNjo+Ck5SVlpeYmZ&#xA;qbnJ2en5KjpKWmp6ipqqusra6voRAAICAQIDBQUEBQYECAMDbQEAAhEDBCESMUEFURNhIgZxgZEy&#xA;obHwFMHR4SNCFVJicvEzJDRDghaSUyWiY7LCB3PSNeJEgxdUkwgJChgZJjZFGidkdFU38qOzwygp&#xA;0+PzhJSktMTU5PRldYWVpbXF1eX1RlZmdoaWprbG1ub2R1dnd4eXp7fH1+f3OEhYaHiImKi4yNjo&#xA;+DlJWWl5iZmpucnZ6fkqOkpaanqKmqq6ytrq+v/aAAwDAQACEQMRAD8A9U4q7FXYq7FXYq7FXYq7&#xA;FXYq7FXYq7FULqmp2Wl6fPf3sgitrdS8jH26ADuSdgMVfO3nPzrqfmbUGlmYxWMZpa2YPwovi38z&#xA;nucVemfkjf6nc6FeQ3LvJaW0ypaM+/Gq1dFJ7DY098Vej4q7FXYq7FXYq7FXYq7FXYq7FXYq7FXY&#xA;q7FXYq7FXYq7FXjv53+Y5HvLbQIXIihUXF2B3dqiNT/qrv8ATirC/JPlWfzLrkdipMdsg9W8mHVY&#xA;lIBpX9pq0GKvo7TtOstOsorKyhWC2hXjHGgoB7nxJ7nFURirsVdirsVdirsVdirsVdirsVdirsVd&#xA;irsVdirsVdirsVfN/wCZMkknnjV2k+0JQo/1VRVX8Bir0L8ibaBdG1K5FPXkuFjfx4IgZfxdsVen&#xA;Yq7FXYq7FXYq7FXYq7FXYq7FXYq7FXYq7FXYq7FXYq7FXYq8J/ObQ5bLzONSC/6PqUasGHQSxKEd&#xA;fuCn6cVQn5X+c4vLurvDeNx0y/4rO+59N1rwk+XxEN/Zir6AjkSRFkjYPG4DI6moIO4II7Yq3irs&#xA;VdirsVdirsVdirsVdirsVdirsVdirsVdirzf81/zAuNJUaLpUvp6hMoe5uFPxRRt0VT2dutew+eK&#xA;sC/LzzHr8Hm3T4Y7qaaK8nWK5gd2dWR9mYgk7qPirir6FxVJ/Nnlmy8x6NLp1z8DH47ecCpjlH2W&#xA;H6iPDFXzlrug6noeoyWGoRGOaM/Cw3R17Ojd1OKsq/L78y7vy/IlhqBa40ZjQDq8BJ3ZPFfFfu91&#xA;Xu9tcwXNvHcW7iWCZQ8UimoZWFQRiqpirsVdirsVdirsVdirsVdirsVdirsVdirsVfMXnC7mu/NW&#xA;rTymrtdyqPZUcoo+hVAxV6j+SvlzT49IfXXCy308jxRsdzFGmxA8GbqT4UxV6ZirsVSjzP5W0nzH&#xA;p5s7+PcVMFwtBJEx7qf1jocVfPHmjyzqPl3VZNPvRWnxQTqDwkjPRlr+I7HFWa/k/wCdZLO+Ty9e&#xA;vWzumP1JmP8AdzH9j/Vk/wCJfPFXtOKuxV2KuxV2KuxV2KuxV2KuxV2KuxV2KuxV4B+a3lefSPMk&#xA;18qE2Gpu08UnYStvIh9+XxD2OKpf5J89al5XvCYx6+nzMDdWhNAe3ND+yw/Hvir6D0jV7DV9Oh1C&#xA;xkEttOvJT3B7qw7Mp2IxVGYq7FWK/mP5Xh17y3OAv+nWatcWbgb8lFWT5OBT50xV87RySRSLLGxS&#xA;RCGRxsQwNQQcVfUfl/Uv0podhqBpyuoI5XA6B2Uch9DVxVMMVdirsVdirsVdirsVdirsVdirsVdi&#xA;rsVQesaPp2sWElhqEIntpeqnqD2ZT1DDsRir5789+TLnyvqvoFjLYz1ezuCNyoO6tT9pa7/firIf&#xA;yW8xTWuuvosjE2uoKzxoeizRryqP9ZFIP0Yq9vxV2Kpf5g1e20fRrvUbkgR28bMFP7TdFQe7NQYq&#xA;+WsVfTPka2ktvJ+kQyiji1jYg7Ecxyp/w2Kp5irsVdirsVdirsVdirsVdirsVdirsVdiqje3tpY2&#xA;st3dyrBbQryllc0VRirw380PP1j5kkt7LToybK0Zn+suvFpHIp8IO6qB49foxVCflLp89352s5UB&#xA;9OzWSeZvBeBQfezjFX0HiqReaPOugeW4gdQmJuHXlDaRjlK46Vp0Ue7EYq8N86+e9U80XK+sPq9h&#xA;CSbezQkgH+Zztyb3+7FV35f+TrjzJrKK6EaZbEPey7gcQaiMH+Z/1b4q+jQAoCqKAbADoBirsVdi&#xA;rsVdirsVdirsVdirsVdirsVdirsVYp+ZuialrHlOe105TJcJIk3oDrIqE1Ue+9foxV4to/kHzZql&#xA;0LeHTpoBWjzXKNDGnzZwPuFTir3LyV5LsPK+nGCFvWu5qNd3RFC5HRQOyr2GKsixV4p+bnlTzBL5&#xA;mfU7e1mvLO5jjCNCjSemY1ClGCgkVI5CvjiqD8qflDrupyJPqytplh1ZXH+kOPBYz9j5t9xxV7Vo&#xA;+jado9hHYadCIbaPoo3JJ6sxO5J8cVRuKuxV2KuxV2KuxV2KuxV2KuxV2KuxV2KuxV2KuxV2KuxV&#xA;2KuxV2KuxV2KuxV2KuxV2KuxV2KuxV2KuxV2KuxV2KuxV2KuxV2KuxV2KuxV2KuxV2KuxV2KuxV2&#xA;KuxV2KuxV2KuxV2KuxV2KuxV2KuxV2KuxV2KuxV2KuxV2KuxVjGq/mT5N0u9eyur+txESsqRI8gV&#xA;hsVLKCtR3FdsVQf/ACt7yL/y2yf8iJf+acVd/wAre8i/8tsn/IiX/mnFXf8AK3vIv/LbJ/yIl/5p&#xA;xV3/ACt7yL/y2yf8iJf+acVd/wAre8i/8tsn/IiX/mnFXf8AK3vIv/LbJ/yIl/5pxV3/ACt7yL/y&#xA;2yf8iJf+acVd/wAre8i/8tsn/IiX/mnFXf8AK3vIv/LbJ/yIl/5pxV3/ACt7yL/y2yf8iJf+acVd&#xA;/wAre8i/8tsn/IiX/mnFXf8AK3vIv/LbJ/yIl/5pxV3/ACt7yL/y2yf8iJf+acVd/wAre8i/8tsn&#xA;/IiX/mnFXf8AK3vIv/LbJ/yIl/5pxV3/ACt7yL/y2yf8iJf+acVd/wAre8i/8tsn/IiX/mnFXf8A&#xA;K3vIv/LbJ/yIl/5pxVVtfzW8jXE6QrqBjZzRWlikRKnxYrQfTirLeS8eVRxpXl2p44q+TGZmYsxL&#xA;MxqzHcknucVREemalKgkjtJnjbdXWNiCPYgYqu/Q+rf8sVx/yKf+mKu/Q+rf8sVx/wAin/pirv0P&#xA;q3/LFcf8in/piqGlilikMcqNHIv2kYFSPmDiqpBZXlwC1vBJMF2YxozAH3oDiqr+h9W/5Yrj/kU/&#xA;9MVd+h9W/wCWK4/5FP8A0xV36H1b/liuP+RT/wBMVd+h9W/5Yrj/AJFP/TFXfofVv+WK4/5FP/TF&#xA;XfofVv8AliuP+RT/ANMVd+h9W/5Yrj/kU/8ATFXfofVv+WK4/wCRT/0xV36H1b/liuP+RT/0xV36&#xA;H1b/AJYrj/kU/wDTFXfofVv+WK4/5FP/AExVx0nVVBZrOcAbkmJ6AfdiqExV9D+pJ/yqf1OR5/oO&#xA;vKu9fqvWuKvnjFX0n+Xn/KE6P/zDj9ZxVkWKuxV2KvnH8zSD561an+/E/wCTSYqz/wDIj/jk6p/x&#xA;nT/iGKvT8VdirsVdirsVdirsVdirsVdirsVQmsf8cm9/5h5f+IHFXyrir6F/8pJ/24/+xXFXz1ir&#xA;6T/Lz/lCdH/5hx+s4qyLFXYqxf8AMDzlD5Z0YyRlW1K5qllEd/i7yMP5Ur9JoMVfOs8008zzzOZJ&#xA;pWLySMaszMakknuTirIPIvm+48s60lzu9jNSO+hH7UdftAfzJ1H3d8VfR1tc291bxXNvIJYJlDxS&#xA;KahlYVBGKqmKuxV2KuxV2KuxV2KuxV2KuxVCax/xyb3/AJh5f+IHFXyrir6F/wDKSf8Abj/7FcVf&#xA;PWKvpP8ALz/lCdH/AOYcfrOKsixVC6rqdlpenz6heyenbW6l5G7+wA7knYDFXzZ5r8y3nmLWZtRu&#xA;fhVvht4a1EcQ+yo/WffFWU/ln+XMevxz6jqisumhXitgCVMkhBUuD4R/i3yOKsS8y+Xr3y/rE+m3&#xA;Yq0ZrFKBRZIz9l1+f68VZ5+T/nj6rOvl3UJKW87f7j5GOySMamL5Ofs/5XzxV7LirsVdirsVdirs&#xA;VdirsVdirsVQmsf8cm9/5h5f+IHFXyrir6F/8pJ/24/+xXFXz1ir6T/Lz/lCdH/5hx+s4qyLFXhP&#xA;5reeP01qH6KsZK6XZMeTqdpphsW91Xov34qx/wAleU7rzLrUdmlUtY6SXk4/YjB7f5TdFxV9IWVl&#xA;a2NpDZ2kYitoFCRRr0CjFWM/mL5Lj8y6OTAoGqWgL2knTl3aInwbt4H6cVfPLpLDMyOGjmiYhlNV&#xA;ZWU0IPcEHFXv35Zedx5h0r6tduP0tZKBPXrKnRZR+pvf54qzTFXYq7FXYq7FXYq7FXYq7FUJrH/H&#xA;Jvf+YeX/AIgcVfKuKvoX/wApJ/24/wDsVxV89Yq+k/y8/wCUJ0f/AJhx+s4q3+YV3cWnkvVp7dzH&#xA;KIeAcbECRgjU96McVfNeKvpbyV5TtfLWix2aUe6kpJeTj9uQjt/kr0XFU/xV2KvHfzq8qWtrJD5h&#xA;tqRm7lEF3EP2pCrMsg+YQhv9vFWHfl7dT23nPSWhcoZLhInp3SQ8WB+g4q+k8VdirsVdirsVdirs&#xA;VdirsVQmsf8AHJvf+YeX/iBxV8q4q+hf/KSf9uP/ALFcVfPWKvpP8vP+UJ0f/mHH6ziql+Zv/KC6&#xA;t/xjT/k6mKvnHFX1rirsVdirzv8APL/lE7T/AJj4/wDkzNiryryN/wApjo3/ADFxf8SGKvpnFXYq&#xA;7FXYq7FXYq7FXYq7FUJrH/HJvf8AmHl/4gcVfKuKvoX/AMpJ/wBuP/sVxV89Yq+k/wAvP+UJ0f8A&#xA;5hx+s4qpfmb/AMoLq3/GNP8Ak6mKvnHFX1rirsVdirzv88v+UTtP+Y+P/kzNiryryN/ymOjf8xcX&#xA;/Ehir6ZxV2KuxV2KuxV2KuxV2KuxVCax/wAcm9/5h5f+IHFXyrir6F/8pJ/24/8AsVxV89Yq+k/y&#xA;8/5QnR/+YcfrOKqX5m/8oLq3/GNP+TqYq+ccVfWuKuxV2KvO/wA8v+UTtP8AmPj/AOTM2KvKvI3/&#xA;ACmOjf8AMXF/xIYq+mcVdirsVdirsVdirsVdirsVQmsf8cm9/wCYeX/iBxV8q4q+hf8Aykn/AG4/&#xA;+xXFXz1ir6T/AC8/5QnR/wDmHH6ziql+Zv8Aygurf8Y0/wCTqYq+ccVfWuKuxV2KvO/zy/5RO0/5&#xA;j4/+TM2KvKvI3/KY6N/zFxf8SGKvpnFXYq7FXYq7FXYq7FXYq7FUJrH/AByb3/mHl/4gcVfKuKvo&#xA;X/ykn/bj/wCxXFXz1ir6T/Lz/lCdI/4wD9ZxVS/M3/lBdW/4xp/ydTFXzjir6I/5Wv5A/wCrp/yQ&#xA;uf8Aqnirv+Vr+QP+rp/yQuf+qeKu/wCVr+QP+rp/yQuf+qeKsM/NXzt5Y13y9b2mlXv1m4ju0ldP&#xA;SlSiCKRSayIo6sMVYN5G/wCUx0b/AJi4v+JDFX0zirsVdirsVdirsVdirsVdiqE1j/jkX3/MPL/x&#xA;A4q+VcVfQv8A5ST/ALcf/YrirwPU7N7LUbqycENbTSQsD1rGxX+GKvefyh1BLvyRaxA1ezklgk+f&#xA;MyL/AMLIMVTnzppNxq3lbUdPtt7iaL90p25MhDhf9lxpir5uuNL1K3maGe0milQ0eN42Ugj2IxVT&#xA;+p3f++JP+Bb+mKu+p3f++JP+Bb+mKu+p3f8AviT/AIFv6Yq76nd/74k/4Fv6Yqyr8tvLer3vmqwu&#xA;UtpEtbOVZ57h1KoBHvSp7k7UxV9C4q7FXYq7FXYq7FXYq7FXYqxv8xdWTTPJ2pSlqSTxG2hHcvN8&#xA;G3yUlvoxV83ojOwRQWZiAqjckntir6d/Qh/wj+g6jl+j/qVe1fR9LFXjX5waC+nea3vVWltqaiZC&#xA;OnqLRZF+daN9OKqn5SebYtG1p7C8cJYalxXmxoqTLsjE9g1eJ+jwxV7xirsVdirsVdirsVdirsVd&#xA;irsVdirsVdirsVdirsVeDfmv5zj1zVE0+xfnptgSBIOksx2Zx7L9lfpPfFUH+VnlxtY81QSOnKz0&#xA;8i5uCenJT+7X/ZP28AcVfQuKse89eU4vMuhSWYIS8iPq2Up6CQDof8lhsfv7Yq+cbu0ubO6ltbqM&#xA;xXEDFJY26qymhGKvSfIv5vPYwx6b5g5zWyALDfKOUiKNgJB1cDxG/wA8VetaZrGlapAJ9Ou4rqLu&#xA;0TBqezAbqfY4qjMVdirsVdirsVdirsVdirsVdirsVdiqXax5h0TRofV1O8itlpVVY/G3+qgqzfQM&#xA;VeP+efzZutYik07R1e0056rNM200q/y7fYU/efwxVgumaZfanfRWNjE091O3GONfxJPYDucVfRnk&#xA;rynbeWdFSyQiS5k/eXk4/bkI7f5K9Biqf4q7FWIeefy603zNGbiMi11ZFpHdAVVwOiSgdR79R+GK&#xA;vEPMHlPXtAnMepWrRpWiXCjlC/8AquNvo6+2KpZBcT28glgkaKVfsujFWHyIxVO7bz95ztwBHrFy&#xA;QOnqP6v/ACc5Yqil/M/z2rBhqz1HjHCR9xTFVT/la/n/AP6un/JC2/6p4q7/AJWv5/8A+rp/yQtv&#xA;+qeKqo/N3z2AAb5CR3MEVT9y4q3/AMre89f8tsf/ACIi/wCacVd/yt7z1/y2x/8AIiL/AJpxV3/K&#xA;3vPX/LbH/wAiIv8AmnFVI/mx5+JJ/SlPYQW//VPFWv8Ala/n/wD6un/JC2/6p4q7/la/n/8A6un/&#xA;ACQtv+qeKoK8/MDzpeKVm1e4APURMIf+TQTFUhllllkaSV2kkbdnYlmJ9ycVZB5Z8heY/MLqbS3M&#xA;VoftXswKRU/yTT4z/q4q9w8neRdI8sWxFuPXvpQBcXrijN34qP2Vr2++uKsjxV2KuxV2KrZYopY2&#xA;jlRZI3FGRgGUjwIOKsW1P8r/ACTflnbTxbSN+3bM0VPkgPD/AIXFXhfmuz0ey1+8s9JaWSztnMQk&#xA;mZWZnXZ6FVX4eWwxVF+TvJOqeaLx4rUrDbQUNzdOCVSvQAD7TGnTFWdf8qE/7Xv/AE6f9fsVd/yo&#xA;T/te/wDTp/1+xV3/ACoT/te/9On/AF+xV3/KhP8Ate/9On/X7FXf8qE/7Xv/AE6f9fsVd/yoT/te&#xA;/wDTp/1+xV3/ACoT/te/9On/AF+xV3/KhP8Ate/9On/X7FWJedvy31TyuiXJlF7p7nh9ZRShVz0D&#xA;pVqV7GuKsZ076j9ft/0gHNl6i/WfSID+nX4ipIbcDFX0Pov5feSrBUntNPinZgGSeYmckHcMOZZR&#xA;9AxVkwAAoNgOgxV2KuxV2KuxV2KuxVL/ADDqDadoOoX6/btreWVP9ZUJX8cVfLZJJJJqTuScVe4+&#xA;QvMfknQvK9nZvqlul06+vdipr6sgqQdv2RRfoxVkP/Kw/JP/AFeLf7z/AExV3/Kw/JP/AFeLf7z/&#xA;AExV3/Kw/JP/AFeLf7z/AExV3/Kw/JP/AFeLf7z/AExV3/Kw/JP/AFeLf7z/AExV3/Kw/JP/AFeL&#xA;f7z/AExV3/Kw/JP/AFeLf7z/AExV3/Kw/JP/AFeLf7z/AExVBa15v8g6tpN3ptxq1uYrqNoySSaE&#xA;j4WG3VWoRir56ZeLFag0NKjoflir6L/LHUnv/JOnPIeUkCtbsT4RMVT/AIQLirKcVdirsVdirsVd&#xA;irsVSbzlp9zqPlbU7K1XncTQMIk/mYbhR7mlMVfM0sMsMrRTI0cqEq8bgqykdQQdxiqzFXYq7FXY&#xA;q7FXYq7FXYq7FXYq4Ak0G5PQYq+g/wAptLv9O8nxJextFJPLJOkTghgjUC1B6V41xVmWKuxV2Kux&#xA;V//Z</xmpGImg:image>
               </rdf:li>
            </rdf:Alt>
         </xmp:Thumbnails>
      </rdf:Description>
      <rdf:Description rdf:about=""
            xmlns:xmpTPg="http://ns.adobe.com/xap/1.0/t/pg/"
            xmlns:stDim="http://ns.adobe.com/xap/1.0/sType/Dimensions#"
            xmlns:xmpG="http://ns.adobe.com/xap/1.0/g/">
         <xmpTPg:NPages>1</xmpTPg:NPages>
         <xmpTPg:HasVisibleTransparency>False</xmpTPg:HasVisibleTransparency>
         <xmpTPg:HasVisibleOverprint>False</xmpTPg:HasVisibleOverprint>
         <xmpTPg:MaxPageSize rdf:parseType="Resource">
            <stDim:w>100.000000</stDim:w>
            <stDim:h>100.000000</stDim:h>
            <stDim:unit>Pixels</stDim:unit>
         </xmpTPg:MaxPageSize>
         <xmpTPg:PlateNames>
            <rdf:Seq>
               <rdf:li>Cyan</rdf:li>
               <rdf:li>Magenta</rdf:li>
               <rdf:li>Yellow</rdf:li>
               <rdf:li>Black</rdf:li>
            </rdf:Seq>
         </xmpTPg:PlateNames>
         <xmpTPg:SwatchGroups>
            <rdf:Seq>
               <rdf:li rdf:parseType="Resource">
                  <xmpG:groupName>Standard-Farbfeldgruppe</xmpG:groupName>
                  <xmpG:groupType>0</xmpG:groupType>
               </rdf:li>
            </rdf:Seq>
         </xmpTPg:SwatchGroups>
      </rdf:Description>
      <rdf:Description rdf:about=""
            xmlns:dc="http://purl.org/dc/elements/1.1/">
         <dc:format>image/svg+xml</dc:format>
         <dc:title>
            <rdf:Alt>
               <rdf:li xml:lang="x-default">Tee</rdf:li>
            </rdf:Alt>
         </dc:title>
      </rdf:Description>
      <rdf:Description rdf:about=""
            xmlns:xmpMM="http://ns.adobe.com/xap/1.0/mm/"
            xmlns:stRef="http://ns.adobe.com/xap/1.0/sType/ResourceRef#"
            xmlns:stEvt="http://ns.adobe.com/xap/1.0/sType/ResourceEvent#">
         <xmpMM:RenditionClass>proof:pdf</xmpMM:RenditionClass>
         <xmpMM:DocumentID>xmp.did:038011740720681183D1DD4881E4FD58</xmpMM:DocumentID>
         <xmpMM:InstanceID>xmp.iid:038011740720681183D1DD4881E4FD58</xmpMM:InstanceID>
         <xmpMM:OriginalDocumentID>uuid:ff46830f-3a6a-4b4a-9016-3bfafd695218</xmpMM:OriginalDocumentID>
         <xmpMM:DerivedFrom rdf:parseType="Resource">
            <stRef:instanceID>uuid:40fdb91c-fd33-cd47-8ce1-4ce41691bbf2</stRef:instanceID>
            <stRef:documentID>xmp.did:30166516-0f88-4439-aa1b-3106c3a5c368</stRef:documentID>
            <stRef:originalDocumentID>uuid:ff46830f-3a6a-4b4a-9016-3bfafd695218</stRef:originalDocumentID>
            <stRef:renditionClass>proof:pdf</stRef:renditionClass>
         </xmpMM:DerivedFrom>
         <xmpMM:History>
            <rdf:Seq>
               <rdf:li rdf:parseType="Resource">
                  <stEvt:action>saved</stEvt:action>
                  <stEvt:instanceID>xmp.iid:db06bf54-743c-409c-96d0-4eebfe00f617</stEvt:instanceID>
                  <stEvt:when>2016-03-17T22:32:57+01:00</stEvt:when>
                  <stEvt:softwareAgent>Adobe Illustrator CC 2015 (Macintosh)</stEvt:softwareAgent>
                  <stEvt:changed>/</stEvt:changed>
               </rdf:li>
               <rdf:li rdf:parseType="Resource">
                  <stEvt:action>saved</stEvt:action>
                  <stEvt:instanceID>xmp.iid:038011740720681183D1DD4881E4FD58</stEvt:instanceID>
                  <stEvt:when>2016-03-18T20:49:02+01:00</stEvt:when>
                  <stEvt:softwareAgent>Adobe Illustrator CS6 (Macintosh)</stEvt:softwareAgent>
                  <stEvt:changed>/</stEvt:changed>
               </rdf:li>
            </rdf:Seq>
         </xmpMM:History>
      </rdf:Description>
      <rdf:Description rdf:about=""
            xmlns:pdf="http://ns.adobe.com/pdf/1.3/">
         <pdf:Producer>Adobe PDF library 15.00</pdf:Producer>
      </rdf:Description>
   </rdf:RDF>
</x:xmpmeta>
                                                                                                    
                                                                                                    
                                                                                                    
                                                                                                    
                                                                                                    
                                                                                                    
                                                                                                    
                                                                                                    
                                                                                                    
                                                                                                    
                                                                                                    
                                                                                                    
                                                                                                    
                                                                                                    
                                                                                                    
                                                                                                    
                                                                                                    
                                                                                                    
                                                                                                    
                                                                                                    
                           
<?xpacket end="w"?>
	</metadata>
<g>
	<g>
		<defs>
			<rect id="SVGID_1_" x="18.524" y="12.5" width="62.95" height="100"/>
		</defs>
		<clipPath id="SVGID_2_">
			<use xlink:href="#SVGID_1_"  overflow="visible"/>
		</clipPath>
		<path clip-path="url(#SVGID_2_)" fill="#777777" d="M75.104,97.627c-2.675,2.686-6.515,4.047-11.398,4.047
			c-2.281,0-4.624,0.004-6.979,0.01c-2.402,0.01-4.815,0.016-7.21,0.016c-4.478,0-10.284-0.021-15.437-0.178
			c-12.635-0.393-12.662-10.762-12.656-11.217V58.347h14.225v4.272l-7.337,10.098c-0.136,0.176-0.205,0.391-0.205,0.615v18.389
			c0,0.578,0.472,1.043,1.05,1.043h15.083c0.578,0,1.049-0.467,1.049-1.043V73.332c0-0.225-0.069-0.439-0.203-0.615l-7.345-10.098
			v-4.272h40.835c-0.005,4.706-0.026,23.937,0,31.017C78.588,92.344,77.286,95.432,75.104,97.627 M33.425,109.598
			c0.343-3.148,2.186-5.807,4.194-5.807H62.38c2.009,0,3.852,2.658,4.196,5.807H33.425z M36.699,64.744l6.497,8.926v17.002H30.201
			V73.668L36.699,64.744z M80.673,57.303c0-0.279-0.112-0.547-0.306-0.74c-0.195-0.197-0.467-0.31-0.742-0.31h-59.25
			c-0.579,0-1.045,0.471-1.045,1.05v32.982c0,0.131-0.039,12.725,14.44,13.316c-1.505,1.652-2.496,4.221-2.496,7.049
			c0,0.578,0.465,1.043,1.044,1.043h35.366h0.018c0.577,0,1.05-0.465,1.05-1.043c0-0.076-0.006-0.152-0.024-0.223
			c-0.047-2.723-1.016-5.193-2.473-6.807c4.241-0.434,7.787-1.965,10.332-4.518c2.571-2.58,4.097-6.227,4.087-9.746
			C80.64,81.301,80.673,57.543,80.673,57.303"/>
	</g>
	<g>
		<defs>
			<rect id="SVGID_3_" x="18.524" y="12.5" width="62.95" height="100"/>
		</defs>
		<clipPath id="SVGID_4_">
			<use xlink:href="#SVGID_3_"  overflow="visible"/>
		</clipPath>
		<path clip-path="url(#SVGID_4_)" fill="#777777" d="M67.697,112.5h-35.38c-1.02,0-1.852-0.834-1.852-1.852
			c0-2.344,0.634-4.584,1.763-6.352c-13.548-1.387-13.705-13.479-13.705-14.012V57.301c0-1.025,0.832-1.856,1.847-1.856h59.253
			c0.482,0,0.961,0.205,1.31,0.55c0.345,0.344,0.545,0.821,0.545,1.306l-0.006,0.457c0,3.348-0.032,24.167,0.006,31.598
			c0.009,3.732-1.606,7.594-4.326,10.314c-2.363,2.375-5.598,3.938-9.422,4.566c1.115,1.723,1.757,3.904,1.8,6.176v-0.004
			c0.013,0,0.022,0.115,0.022,0.242C69.554,111.666,68.722,112.5,67.697,112.5 M20.372,57.055c-0.131,0-0.235,0.11-0.235,0.246
			v32.984c0,0.492,0.146,11.965,13.662,12.516l1.721,0.068l-1.156,1.273c-1.433,1.578-2.286,4.01-2.286,6.506
			c0,0.137,0.104,0.24,0.24,0.24h35.364c0.156,0,0.26-0.104,0.26-0.24l-0.021-0.203c-0.042-2.408-0.89-4.754-2.263-6.283
			l-1.063-1.178l1.574-0.16c4.065-0.414,7.465-1.9,9.845-4.283c2.425-2.432,3.865-5.863,3.855-9.18
			c-0.031-7.432-0.006-28.256,0-31.604v-0.457c0-0.062-0.025-0.125-0.073-0.167L20.372,57.055z M67.468,110.408H32.532l0.095-0.891
			c0.397-3.658,2.589-6.533,4.995-6.533h24.761c2.402,0,4.591,2.871,4.989,6.533L67.468,110.408z M34.368,108.797h31.263
			c-0.497-2.355-1.877-4.201-3.248-4.201H37.622C36.247,104.596,34.865,106.441,34.368,108.797 M49.516,102.504
			c-4.472,0-10.272-0.023-15.461-0.18c-13.416-0.412-13.443-11.553-13.437-12.031V57.541h15.837v5.342l-0.157,0.208L28.96,73.186
			l-0.046,18.531c0,0.137,0.104,0.24,0.246,0.24h15.079c0.141,0,0.246-0.104,0.246-0.24V73.332l-7.548-10.45v-5.342h42.446v0.806
			c-0.006,4.706-0.026,23.935,0,31.013c0.011,3.186-1.375,6.486-3.708,8.832c-2.829,2.842-6.859,4.285-11.965,4.285l-6.919,0.01
			C54.329,102.498,51.911,102.504,49.516,102.504 M22.229,59.152v31.153c-0.005,0.42,0.02,10.049,11.878,10.41
			c5.163,0.162,10.947,0.18,15.409,0.18c2.396,0,4.813-0.006,7.203-0.018l6.99-0.012c4.666,0,8.309-1.277,10.823-3.801
			c2.041-2.057,3.251-4.936,3.238-7.697c-0.021-6.732-0.007-24.436,0-30.217H38.546v3.206l7.187,9.886
			c0.229,0.301,0.36,0.68,0.36,1.088v18.385c0,1.02-0.832,1.852-1.857,1.852H29.159c-1.026,0-1.857-0.832-1.857-1.852V73.332
			c0-0.408,0.131-0.789,0.371-1.104l7.171-9.869v-3.208H22.229z M44.002,91.477H29.394V73.41l0.158-0.207l7.15-9.822l7.301,10.031
			V91.477z M31.005,89.867h11.386V73.934l-5.689-7.822l-5.697,7.822V89.867z"/>
	</g>
	<g>
		<defs>
			<rect id="SVGID_5_" x="18.524" y="12.5" width="62.95" height="100"/>
		</defs>
		<clipPath id="SVGID_6_">
			<use xlink:href="#SVGID_5_"  overflow="visible"/>
		</clipPath>
		<path clip-path="url(#SVGID_6_)" fill="#777777" d="M69.001,36.107c0.53-3.455-1.487-7.086-6.002-10.782
			c-1.784-1.462-2.689-2.989-2.685-4.542c0.005-2.749,2.71-5.019,2.736-5.04c0.782-0.638,0.901-1.784,0.264-2.566
			c-0.634-0.783-1.784-0.9-2.566-0.268c-0.167,0.135-4.077,3.365-4.089,7.864c-0.005,2.705,1.353,5.184,4.025,7.375
			c3.395,2.78,5.023,5.335,4.711,7.398c-0.348,2.308-3.182,3.942-4.24,4.374c-0.934,0.381-1.385,1.448-1.004,2.38
			c0.284,0.706,0.971,1.134,1.688,1.134c0.227,0,0.457-0.037,0.677-0.128C62.752,43.215,68.258,40.955,69.001,36.107"/>
	</g>
	<g>
		<defs>
			<rect id="SVGID_7_" x="18.524" y="12.5" width="62.95" height="100"/>
		</defs>
		<clipPath id="SVGID_8_">
			<use xlink:href="#SVGID_7_"  overflow="visible"/>
		</clipPath>
		<path clip-path="url(#SVGID_8_)" fill="#777777" d="M55.252,38.796c0.333-2.164-0.852-4.371-3.514-6.556
			c-0.744-0.605-1.124-1.199-1.124-1.763c-0.006-0.877,0.856-1.805,1.161-2.055c0.765-0.65,0.871-1.795,0.235-2.567
			c-0.64-0.771-1.771-0.889-2.549-0.255c-0.25,0.208-2.49,2.104-2.495,4.862c-0.006,1.179,0.422,2.936,2.457,4.602
			c1.532,1.253,2.339,2.41,2.225,3.182c-0.123,0.792-1.323,1.504-1.748,1.675c-0.932,0.376-1.387,1.438-1.011,2.374
			c0.282,0.712,0.969,1.14,1.692,1.14c0.223,0,0.456-0.037,0.681-0.128C51.62,43.162,54.791,41.812,55.252,38.796"/>
	</g>
</g>
</svg>
