<?xml version="1.0" encoding="utf-8"?>
<!-- Generator: Adobe Illustrator 16.0.0, SVG Export Plug-In . SVG Version: 6.00 Build 0)  -->
<!DOCTYPE svg PUBLIC "-//W3C//DTD SVG 1.1//EN" "http://www.w3.org/Graphics/SVG/1.1/DTD/svg11.dtd">
<svg version="1.1" id="Ebene_1" xmlns="http://www.w3.org/2000/svg" xmlns:xlink="http://www.w3.org/1999/xlink" x="0px" y="0px"
	 width="100px" height="100px" viewBox="0 12.5 100 100" enable-background="new 0 12.5 100 100" xml:space="preserve">
<g>
	<path fill="#777777" d="M71.548,15.69c1.368,5.698,4.558,21.423-2.049,32.59c-3.649,6.153-9.571,10.029-17.776,11.623
		c-0.456,0.228-1.303,0.253-1.303,0.253s-0.75-0.253-1.433-0.253c-8.206-1.596-14.357-5.469-18.006-11.395
		c-6.837-11.167-4.101-27.121-2.734-32.819L71.548,15.69 M52.631,110.5c0-7.979-0.226-40.109-0.226-41.938v-5.467
		C88.187,55.802,74.056,12.5,74.056,12.5h-48.09c0,0-13.446,43.986,22.563,50.596c0,0-0.228,40.108-0.228,47.404"/>
	<line fill="none" stroke="#777777" stroke-width="2" stroke-miterlimit="10" x1="37.541" y1="111.5" x2="63.855" y2="111.5"/>
	<line fill="none" stroke="#777777" stroke-miterlimit="10" x1="26.536" y1="37.029" x2="75.724" y2="37.029"/>
</g>
</svg>
