<svg width="395" height="395" viewBox="0 0 395 395" fill="none" xmlns="http://www.w3.org/2000/svg">
<path d="M197.505 387.317C302.337 387.317 387.321 302.333 387.321 197.5C387.321 92.6673 302.337 7.68359 197.505 7.68359C92.6721 7.68359 7.68848 92.6673 7.68848 197.5C7.68848 302.333 92.6721 387.317 197.505 387.317Z" fill="#191919"/>
<path d="M197.5 12.5905C222.465 12.5905 246.684 17.4775 269.47 27.114C291.491 36.4268 311.264 49.7629 328.251 66.7495C345.238 83.7361 358.574 103.51 367.886 125.531C377.523 148.317 382.41 172.536 382.41 197.5C382.41 222.465 377.523 246.684 367.886 269.47C358.574 291.491 345.238 311.265 328.251 328.251C311.264 345.238 291.491 358.574 269.47 367.887C246.684 377.523 222.465 382.41 197.5 382.41C172.535 382.41 148.317 377.523 125.53 367.887C103.51 358.574 83.7361 345.238 66.7494 328.251C49.7628 311.265 36.4267 291.491 27.114 269.47C17.4775 246.684 12.5905 222.465 12.5905 197.5C12.5905 172.536 17.4775 148.317 27.114 125.531C36.4267 103.51 49.7628 83.7361 66.7494 66.7495C83.7361 49.7629 103.51 36.4268 125.53 27.114C148.317 17.4775 172.535 12.5905 197.5 12.5905ZM197.5 2.77734C89.9576 2.77734 2.77734 89.9577 2.77734 197.5C2.77734 305.043 89.9576 392.224 197.5 392.224C305.043 392.224 392.223 305.043 392.223 197.5C392.223 89.9577 305.043 2.77734 197.5 2.77734Z" fill="#A4937D"/>
<path d="M95.5018 306.427L92.5677 312.727L97.4939 317.427L90.7522 316.554L87.7985 322.834L86.4737 315.985L79.6143 315.151L85.6886 311.814L84.4031 305.014L89.4078 309.763L95.5116 306.437L95.5018 306.427Z" fill="#A4937D"/>
<path d="M122.243 323.747C123.096 324.306 123.195 324.797 122.645 325.621L121.055 328.016C120.486 328.87 120.005 328.968 119.151 328.398L112.135 323.747L110.565 326.112L116.168 329.831C117.022 330.391 117.12 330.881 116.571 331.706L114.981 334.1C114.412 334.954 113.931 335.052 113.077 334.483L107.474 330.763L105.786 333.315L113.038 338.123C113.862 338.673 113.98 339.134 113.411 339.978L111.811 342.392C111.262 343.216 110.781 343.315 109.957 342.765L98.5831 335.219C97.7293 334.659 97.6312 334.169 98.1807 333.344L109.221 316.711C109.77 315.887 110.251 315.789 111.105 316.348L122.243 323.737V323.747Z" fill="#A4937D"/>
<path d="M145.853 335.288C146.785 335.71 146.972 336.151 146.54 337.074L138.218 355.287C137.806 356.19 137.355 356.327 136.423 355.905L133.263 354.463C132.33 354.041 132.173 353.619 132.586 352.716L134.48 348.565C135.431 346.475 137.021 344.149 139.229 341.548L138.915 341.401C138.542 341.823 137.895 342.481 136.972 343.354C136.05 344.227 135.323 344.885 134.784 345.297L131.663 347.829C131.035 348.28 130.613 348.369 129.887 348.035L127.944 347.152C127.159 346.789 126.953 346.484 126.933 345.67L126.717 341.607C126.6 340.253 126.747 338.398 127.1 336.004L126.806 335.867C126.148 339.389 125.383 342.127 124.509 344.041L122.625 348.162C122.213 349.065 121.762 349.203 120.839 348.781L117.876 347.426C116.943 347.005 116.757 346.563 117.169 345.67L125.491 327.457C125.913 326.524 126.364 326.387 127.296 326.809L130.024 328.055C131.035 328.516 131.222 328.811 131.33 329.733L131.82 341.323L140.888 334.139C141.624 333.531 141.977 333.521 142.938 333.953L145.843 335.278L145.853 335.288Z" fill="#A4937D"/>
<path d="M160.435 339.566C165.273 340.871 167.609 344.581 166.294 349.409C164.998 354.217 161.191 356.19 156.353 354.885L152.565 353.864L151.142 359.134C150.887 360.086 150.485 360.341 149.503 360.076L146.02 359.134C145.038 358.869 144.783 358.437 145.048 357.485L150.259 338.212C150.514 337.26 150.946 337.015 151.937 337.28L160.435 339.576V339.566ZM157.079 349.301C158.522 349.693 159.631 349.036 159.994 347.682C160.357 346.327 159.748 345.169 158.296 344.777L155.244 343.953L154.017 348.476L157.069 349.301H157.079Z" fill="#A4937D"/>
<path d="M185.9 344.002C186.911 344.129 187.215 344.522 187.088 345.503L186.725 348.349C186.597 349.36 186.205 349.664 185.194 349.536L176.843 348.476L176.382 352.146L183.055 352.99C184.065 353.118 184.369 353.511 184.242 354.492L183.879 357.338C183.751 358.348 183.359 358.653 182.348 358.525L175.675 357.681L174.861 364.07C174.733 365.051 174.38 365.355 173.359 365.227L169.787 364.776C168.776 364.648 168.472 364.256 168.6 363.275L171.112 343.472C171.239 342.49 171.632 342.186 172.643 342.314L185.9 343.992V344.002Z" fill="#A4937D"/>
<path d="M189.58 352.853C189.502 347.269 193.035 343.874 199.286 343.786C205.507 343.707 209.118 347.004 209.197 352.588L209.275 358.329C209.354 363.912 205.821 367.308 199.6 367.396C193.349 367.475 189.728 364.177 189.659 358.594L189.58 352.853ZM202.877 352.392C202.848 350.38 201.562 349.35 199.364 349.379C197.097 349.409 195.871 350.478 195.9 352.49L195.988 358.81C196.018 360.821 197.274 361.852 199.541 361.822C201.739 361.793 203.005 360.723 202.975 358.711L202.887 352.392H202.877Z" fill="#A4937D"/>
<path d="M229.559 340.979C230.53 340.822 230.933 341.106 231.1 342.117L234.348 361.812C234.505 362.784 234.22 363.196 233.249 363.353L229.667 363.942C228.695 364.099 228.283 363.814 228.126 362.843L226.929 355.61L220.825 356.621L222.022 363.853C222.179 364.825 221.924 365.227 220.923 365.394L217.371 365.983C216.36 366.15 215.958 365.865 215.801 364.884L212.553 345.189C212.386 344.178 212.68 343.776 213.681 343.609L217.234 343.02C218.244 342.853 218.607 343.148 218.774 344.158L219.922 351.116L226.026 350.105L224.878 343.157C224.711 342.147 224.996 341.744 225.977 341.587L229.569 340.998L229.559 340.979Z" fill="#A4937D"/>
<path d="M239.402 338.231C240.373 337.927 240.786 338.163 241.08 339.115L245.771 354.119L253.111 351.823C254.053 351.528 254.485 351.724 254.789 352.706L255.653 355.473C255.947 356.415 255.721 356.857 254.769 357.151L242.719 360.919C241.747 361.224 241.306 360.998 241.011 360.046L235.055 340.989C234.76 340.047 234.986 339.605 235.967 339.301L239.412 338.222L239.402 338.231Z" fill="#A4937D"/>
<path d="M265.23 327.957C266.152 327.525 266.623 327.702 267.035 328.595L268.232 331.195C268.664 332.128 268.488 332.589 267.565 333.011L259.921 336.534L261.108 339.115L267.222 336.298C268.144 335.867 268.615 336.043 269.027 336.936L270.224 339.547C270.656 340.469 270.48 340.94 269.557 341.362L263.444 344.178L264.729 346.955L272.629 343.305C273.531 342.893 273.983 343.03 274.405 343.962L275.622 346.592C276.034 347.495 275.867 347.956 274.964 348.369L262.57 354.09C261.648 354.521 261.177 354.345 260.765 353.452L252.404 335.327C251.992 334.424 252.158 333.963 253.091 333.531L265.22 327.937L265.23 327.957Z" fill="#A4937D"/>
<path d="M284.308 316.162C285.132 315.622 285.623 315.73 286.162 316.554L297.055 333.295C297.595 334.12 297.496 334.61 296.662 335.15L293.64 337.113C293.13 337.446 292.659 337.486 292.197 337.289L283.954 333.629C282.816 333.109 281.874 332.589 281.089 332.03C280.284 331.49 279.273 330.695 278.017 329.655L277.801 329.792C278.753 330.734 279.46 331.411 279.843 331.814C280.215 332.216 280.745 332.785 281.344 333.541C281.962 334.316 282.561 335.18 283.169 336.112L286.005 340.469C286.545 341.293 286.447 341.784 285.583 342.343L282.885 344.1C282.031 344.659 281.54 344.551 281.001 343.727L270.108 326.986C269.568 326.161 269.676 325.671 270.53 325.111L273.68 323.06C274.19 322.727 274.681 322.678 275.152 322.864L283.994 326.858C285.112 327.349 286.172 327.987 286.78 328.389C287.359 328.811 288.616 329.743 289.42 330.283L289.636 330.145C288.194 328.919 287.104 327.947 286.388 327.201C285.642 326.465 284.867 325.455 284.033 324.169L281.177 319.783C280.637 318.949 280.716 318.487 281.57 317.928L284.298 316.152L284.308 316.162Z" fill="#A4937D"/>
<path d="M298.575 307.281L304.64 310.666L309.684 306.103L308.32 312.756L314.365 316.171L307.437 316.986L306.102 323.767L303.217 317.467L296.338 318.252L301.441 313.61L298.575 307.281Z" fill="#A4937D"/>
<path d="M261.079 146.04L226.988 90.9486C224.682 87.3668 220.639 85.2766 216.38 85.4827L159.209 94.609C154.95 94.815 151.123 97.2683 149.17 101.056L130.633 148.513C128.68 152.301 128.896 156.854 131.202 160.436L193.996 262.277C197.009 266.958 203.967 266.634 206.518 261.678L261.629 157.953C263.582 154.165 263.366 149.622 261.06 146.03L261.079 146.04ZM230.963 142.458L217.293 158.159C216.694 158.846 216.478 159.778 216.704 160.662L221.885 180.828C222.455 183.045 220.237 184.949 218.127 184.056L198.962 175.901C198.128 175.548 197.166 175.627 196.401 176.107L178.825 187.275C176.892 188.502 174.39 186.98 174.596 184.704L176.431 163.959C176.509 163.056 176.136 162.163 175.44 161.584L159.385 148.317C157.619 146.854 158.296 144.009 160.524 143.498L180.817 138.827C181.7 138.621 182.436 137.993 182.77 137.149L190.434 117.788C191.278 115.658 194.193 115.423 195.37 117.385L206.076 135.245C206.547 136.021 207.362 136.521 208.275 136.58L229.059 137.885C231.345 138.032 232.474 140.731 230.972 142.458H230.963Z" fill="#A4937D"/>
<path d="M59.7134 296.898C57.1718 293.385 56.9853 290.568 58.7713 287.222C58.948 286.859 59.2522 286.8 59.6447 287.016L60.5868 287.556C60.9597 287.801 61.0283 287.948 60.8419 288.4C59.5269 290.931 59.6349 293.051 61.4896 295.603C63.7172 298.674 66.141 299.479 68.3392 297.889C69.87 296.623 70.1154 295.338 69.4775 293.522C69.0653 292.246 68.7023 291.52 67.8583 290.087C66.9359 288.429 66.4648 287.556 66.0134 285.956C65.7779 285.142 65.7092 284.445 65.7681 283.817C65.8957 282.58 66.6611 281.079 68.241 279.941C71.656 277.478 75.4635 278.498 78.7509 283.042C81.4201 286.731 81.5183 289.852 79.3692 293.257C79.1042 293.601 78.8 293.669 78.4467 293.453L77.5832 292.855C77.2692 292.649 77.2103 292.335 77.4065 291.962C78.9668 289.381 78.8196 286.849 76.9846 284.317C74.5018 280.883 72.0485 280.058 69.6443 281.795C68.1135 283.061 67.8583 284.268 68.4079 285.956C68.8102 287.163 69.2027 287.86 69.9878 289.224C70.4882 290.078 70.871 290.823 71.1457 291.373C71.4205 291.923 71.6756 292.649 71.9406 293.512C72.2154 294.376 72.3233 295.131 72.2644 295.76C72.1761 297.045 71.4499 298.556 69.821 299.734C66.5924 302.069 62.7457 301.108 59.7036 296.898H59.7134Z" fill="#A4937D"/>
<path d="M40.5085 262.699C40.3221 262.326 40.43 262.13 40.8618 262.051L62.598 257.361C62.9513 257.282 63.2555 257.459 63.4616 257.851L63.913 258.734C64.1289 259.156 64.0994 259.461 63.8345 259.706L51.9998 270.491C51.303 271.089 50.4689 271.766 49.5072 272.473L49.5661 272.591C50.3806 272.286 51.411 272.012 52.6082 271.756L68.3191 268.587C68.6724 268.508 68.9766 268.685 69.163 269.048L69.6242 269.961C69.8303 270.363 69.8009 270.657 69.5359 270.903L52.9418 285.76C52.618 286.035 52.3727 285.976 52.2157 285.662L51.6367 284.523C51.3914 284.043 51.3914 283.827 51.7545 283.493L63.7167 273.032C64.0111 272.777 64.541 272.394 65.2672 271.855C66.0032 271.335 66.435 271.05 66.5037 270.971L66.4448 270.854C64.7471 271.393 63.6284 271.717 63.0985 271.806L47.7605 274.857C47.3778 274.946 47.0736 274.779 46.8577 274.347L46.4063 273.464C46.1904 273.042 46.2296 272.699 46.524 272.434L58.0741 261.865C58.4569 261.492 59.3499 260.785 60.7728 259.706L60.7139 259.588C59.2517 260.079 58.1625 260.422 57.4657 260.599L41.9118 264.151C41.4408 264.279 41.274 264.151 41.0188 263.67L40.5085 262.679V262.699Z" fill="#A4937D"/>
<path d="M39.626 257.4C39.1746 257.567 38.9686 257.469 38.8017 257.027L38.4386 256.046C38.2718 255.594 38.3798 255.418 38.8214 255.251L58.8501 247.803C59.3015 247.636 59.4879 247.704 59.6547 248.146L60.0178 249.127C60.1847 249.579 60.0865 249.785 59.6449 249.952L39.6162 257.4H39.626Z" fill="#A4937D"/>
<path d="M33.7673 242.994C32.6094 238.814 33.4042 236.115 36.2501 233.603C36.5346 233.328 36.8487 233.367 37.1431 233.721L37.8398 234.555C38.1047 234.908 38.1146 235.075 37.7809 235.428C35.6613 237.342 35.0332 239.373 35.887 242.415C36.9075 246.075 38.8996 247.665 41.5099 246.939C43.3842 246.281 44.0613 245.173 44.0908 243.239C44.1497 241.895 44.0613 241.1 43.7669 239.452C43.4824 237.577 43.3352 236.596 43.4726 234.937C43.5314 234.094 43.7081 233.416 43.9828 232.847C44.5324 231.738 45.7688 230.6 47.6432 230.07C51.696 228.942 54.9147 231.228 56.4161 236.635C57.6428 241.031 56.6418 243.985 53.4427 246.429C53.0797 246.664 52.7656 246.615 52.5105 246.291L51.9021 245.428C51.6862 245.124 51.7353 244.81 52.0493 244.525C54.4044 242.641 55.1502 240.217 54.3161 237.204C53.1778 233.122 51.1759 231.493 48.3105 232.288C46.4361 232.936 45.7688 233.986 45.7001 235.762C45.6609 237.028 45.7787 237.823 46.0436 239.373C46.2202 240.354 46.3184 241.179 46.3871 241.797C46.4558 242.415 46.4361 243.171 46.3871 244.083C46.338 244.986 46.181 245.732 45.916 246.301C45.3861 247.479 44.1791 248.637 42.2459 249.176C38.409 250.246 35.1314 248.009 33.7477 243.004L33.7673 242.994Z" fill="#A4937D"/>
<path d="M29.2437 221.268C28.6353 216.97 29.7834 214.399 32.9335 212.279C33.2573 212.043 33.5517 212.122 33.8068 212.514L34.3858 213.427C34.6017 213.82 34.5919 213.977 34.219 214.291C31.8736 215.91 30.9806 217.843 31.4222 220.964C31.9522 224.722 33.7283 226.567 36.4073 226.184C38.3503 225.782 39.1747 224.761 39.4494 222.858C39.6849 221.533 39.6947 220.728 39.6261 219.06C39.5868 217.166 39.577 216.165 39.9205 214.536C40.0971 213.702 40.3522 213.054 40.6957 212.524C41.3924 211.494 42.7663 210.522 44.6897 210.257C48.8603 209.669 51.7551 212.357 52.5304 217.912C53.1682 222.426 51.7944 225.232 48.3009 227.234C47.9084 227.421 47.6042 227.332 47.3981 226.979L46.9074 226.047C46.7308 225.713 46.8191 225.419 47.1724 225.173C49.7533 223.613 50.8131 221.307 50.3813 218.216C49.7925 214.016 48.0065 212.142 45.0724 212.554C43.1294 212.956 42.3345 213.908 42.0303 215.655C41.8242 216.911 41.834 217.715 41.9027 219.286C41.942 220.277 41.9322 221.121 41.9223 221.729C41.9125 222.337 41.7948 223.103 41.6279 223.996C41.4611 224.889 41.206 225.595 40.8625 226.135C40.1756 227.234 38.841 228.225 36.8489 228.51C32.904 229.069 29.9503 226.42 29.2241 221.278L29.2437 221.268Z" fill="#A4937D"/>
<path d="M28.1832 189.571C28.2225 189.09 28.3893 188.982 28.8603 189.012L48.6437 190.435L49.4189 179.65C49.4484 179.238 49.6839 179.061 50.096 179.091L50.989 179.159C51.4012 179.189 51.6073 179.395 51.5778 179.807L50.6848 192.24C50.6456 192.721 50.4788 192.868 49.9979 192.829L28.6837 191.298C28.2028 191.259 28.0557 191.092 28.0949 190.611L28.1734 189.561L28.1832 189.571Z" fill="#A4937D"/>
<path d="M36.8777 175.45C31.9613 174.508 29.6062 170.867 30.6758 165.322C31.7356 159.807 35.2684 157.305 40.1848 158.247L47.5741 159.67C52.4905 160.612 54.8457 164.253 53.7859 169.758C52.726 175.302 49.1835 177.805 44.2671 176.863L36.8777 175.44V175.45ZM39.7432 160.514C36.0829 159.807 33.5511 161.633 32.766 165.735C31.981 169.836 33.6394 172.496 37.3095 173.202L44.6988 174.625C48.3592 175.332 50.891 173.477 51.6858 169.375C52.4709 165.273 50.8026 162.643 47.1423 161.947L39.753 160.524L39.7432 160.514Z" fill="#A4937D"/>
<path d="M41.3137 154.057C36.5641 152.477 34.6996 148.591 36.4758 143.233C37.9772 138.729 40.4894 136.835 44.3263 136.913C44.8268 136.913 44.9936 137.031 44.9936 137.542L45.0132 138.592C44.974 139.013 44.7679 139.22 44.3852 139.259C41.4118 139.21 39.6356 140.505 38.4973 143.92C37.1725 147.885 38.4973 150.672 42.0104 151.849L49.2133 154.244C52.697 155.402 55.4741 153.91 56.7792 150.004C57.9372 146.521 57.2601 144.421 54.7872 142.654C54.4731 142.379 54.4437 142.065 54.6596 141.742L55.3367 140.927C55.6115 140.613 55.896 140.574 56.2101 140.819C59.3601 143.076 60.3218 146.118 58.8008 150.691C57.0344 155.98 53.1974 158.031 48.4478 156.452L41.3039 154.077L41.3137 154.057Z" fill="#A4937D"/>
<path d="M69.3687 123.832C69.8102 123.871 69.928 124.068 69.7219 124.499L69.3196 125.333C69.0252 125.932 68.6915 126.197 68.299 126.119L61.8027 125.618L57.4358 134.597L61.8419 139.396C62.2148 139.72 62.205 139.965 61.8714 140.652L61.4985 141.427C61.3022 141.829 61.0765 141.859 60.7723 141.535L45.0909 124.401C44.8357 124.136 44.767 123.822 44.9535 123.449L45.3754 122.586C45.5619 122.213 45.8268 122.026 46.1997 122.066L69.3883 123.842L69.3687 123.832ZM49.3203 124.509C48.4175 124.391 47.6913 124.215 47.1418 123.95L47.0731 124.097C47.6717 124.391 48.2801 124.823 48.8886 125.402L56.0031 133.155L59.8008 125.353L49.3203 124.509Z" fill="#A4937D"/>
<path d="M57.9473 101.017C58.2024 100.615 58.4183 100.566 58.8305 100.821L59.5861 101.292C59.9884 101.547 60.0375 101.763 59.7922 102.175L56.3674 107.631L73.1675 118.171C73.5699 118.426 73.6189 118.642 73.3736 119.054L72.8143 119.947C72.5591 120.349 72.3432 120.398 71.9311 120.143L55.1309 109.604L51.7061 115.06C51.451 115.462 51.2351 115.511 50.8229 115.266L50.0673 114.795C49.665 114.54 49.6159 114.324 49.8612 113.912L57.9473 101.027V101.017Z" fill="#A4937D"/>
<path d="M61.3028 97.7003C60.9201 97.4157 60.8907 97.19 61.1753 96.8073L61.8033 95.9634C62.0879 95.5807 62.294 95.5709 62.6767 95.8554L79.8203 108.613C80.203 108.897 80.2521 109.093 79.9675 109.476L79.3395 110.32C79.0549 110.703 78.8292 110.732 78.4465 110.448L61.3028 97.6905V97.7003Z" fill="#A4937D"/>
<path d="M70.7045 96.4046C66.9657 93.0682 66.8087 88.7405 70.5671 84.5307C74.3059 80.3405 78.6237 80.0068 82.3625 83.3335L87.9855 88.348C91.7243 91.6845 91.8813 96.0121 88.1425 100.202C84.3841 104.412 80.0663 104.756 76.3274 101.419L70.7045 96.4046ZM80.8317 85.0508C78.0447 82.568 74.9438 82.833 72.1667 85.9536C69.3895 89.0742 69.4484 92.2046 72.2353 94.6971L77.8583 99.7019C80.6452 102.185 83.7658 101.89 86.543 98.7794C89.3201 95.6588 89.2416 92.5481 86.4546 90.0653L80.8317 85.0508Z" fill="#A4937D"/>
<path d="M93.411 63.5595C93.7741 63.2455 93.9998 63.2651 94.3138 63.6282L108.19 79.8789C108.504 80.2419 108.484 80.4676 108.121 80.7817L107.346 81.4391C107.1 81.6452 106.855 81.6943 106.61 81.606L89.3876 77.1017C88.6124 76.8858 87.6409 76.5326 86.4829 76.0615C85.325 75.5807 84.6577 75.355 84.481 75.2961L84.3829 75.3746C84.4908 75.4924 85.0306 76.0321 86.0021 76.9742C86.9441 77.926 87.7194 78.7405 88.318 79.4373L96.9143 89.5056C97.1793 89.8196 97.1793 90.114 96.8653 90.379L96.1097 91.0168C95.7466 91.3308 95.5209 91.3112 95.2068 90.9481L81.331 74.6975C81.017 74.3344 81.0366 74.1087 81.3997 73.7947L82.1749 73.1372C82.3908 72.9507 82.6263 72.8821 82.8913 72.9409L99.7307 77.3961C100.555 77.6218 101.585 77.9457 102.822 78.4069C104.029 78.8877 104.755 79.1527 105.02 79.2116L105.089 79.1527C104.942 78.9859 104.382 78.4167 103.371 77.4354C102.38 76.4737 101.566 75.6199 100.948 74.8938L92.5573 65.0707C92.2923 64.7567 92.3316 64.4623 92.6456 64.1974L93.4012 63.5595H93.411Z" fill="#A4937D"/>
<path d="M138.944 61.7932C139.278 62.0876 139.249 62.3133 138.827 62.539L138.002 62.961C137.404 63.2652 136.982 63.275 136.717 62.9806L131.81 58.6922L122.939 63.275L123.597 69.7615C123.705 70.2423 123.548 70.4288 122.87 70.7821L122.105 71.1746C121.712 71.3807 121.506 71.2727 121.457 70.8311L119.141 47.7211C119.092 47.3482 119.23 47.0636 119.603 46.8771L120.456 46.4356C120.829 46.2491 121.153 46.2589 121.428 46.5042L138.954 61.7932H138.944ZM122.468 50.3412C121.82 49.7033 121.34 49.1244 121.065 48.5945L120.927 48.673C121.232 49.2716 121.457 49.9781 121.595 50.8024L122.655 61.2731L130.368 57.2889L122.478 50.3412H122.468Z" fill="#A4937D"/>
<path d="M154.812 32.9622C155.205 32.8248 155.391 32.9622 155.401 33.4038L157.001 55.5718C157.02 55.9349 156.814 56.2096 156.392 56.3568L155.46 56.6807C155.009 56.8377 154.714 56.769 154.508 56.4648L145.49 43.2464C144.989 42.4712 144.44 41.5487 143.871 40.4987L143.753 40.538C143.939 41.3819 144.077 42.4516 144.155 43.6684L145.088 59.6639C145.107 60.027 144.901 60.3017 144.509 60.4391L143.547 60.7728C143.125 60.92 142.831 60.8513 142.624 60.5471L130.25 42.0394C130.024 41.6763 130.113 41.4408 130.446 41.3328L131.653 40.9207C132.164 40.7441 132.38 40.7735 132.654 41.1857L141.329 54.4923C141.545 54.826 141.839 55.3951 142.281 56.19C142.693 56.9947 142.919 57.4559 142.978 57.5344L143.096 57.4952C142.801 55.7386 142.634 54.5807 142.624 54.0507L141.751 38.438C141.722 38.0454 141.928 37.7707 142.379 37.6137L143.311 37.2898C143.763 37.1328 144.096 37.2211 144.312 37.5548L153.154 50.4689C153.468 50.9007 154.047 51.882 154.911 53.4423L155.028 53.4031C154.744 51.882 154.557 50.7633 154.489 50.047L153.154 34.1594C153.085 33.6786 153.242 33.5216 153.753 33.3449L154.812 32.9818V32.9622Z" fill="#A4937D"/>
<path d="M180.238 50.7241C180.474 51.097 180.385 51.3129 179.914 51.4013L179.002 51.5681C178.344 51.6858 177.932 51.5681 177.765 51.2148L174.301 45.6998L164.488 47.5349L163.252 53.9331C163.212 54.4237 163.016 54.5611 162.26 54.6985L161.416 54.8555C160.975 54.934 160.818 54.777 160.896 54.3354L165.332 31.5492C165.391 31.1763 165.607 30.9407 166.019 30.8721L166.961 30.6954C167.373 30.6169 167.677 30.7249 167.874 31.0487L180.248 50.734L180.238 50.7241ZM167.766 35.0132C167.324 34.2184 167.03 33.5314 166.922 32.9328L166.765 32.9623C166.882 33.6198 166.892 34.3656 166.794 35.1997L164.802 45.533L173.33 43.9432L167.775 35.023L167.766 35.0132Z" fill="#A4937D"/>
<path d="M190.748 28.1536C194.958 27.9377 197.559 30.234 197.775 34.4144C197.951 37.8883 196.156 40.2435 192.956 40.9206C193.8 41.264 194.546 41.9608 195.135 43.0108L199.05 49.7819C199.355 50.1842 199.247 50.4099 198.766 50.4394L197.716 50.4884C197.049 50.5179 196.627 50.351 196.44 49.9781L193.045 43.9823C191.926 42 190.807 41.3131 188.344 41.4407L184.046 41.6566L184.488 50.5179C184.507 50.9987 184.39 51.1655 183.919 51.1852L182.869 51.2342C182.388 51.2539 182.221 51.1067 182.201 50.6258L181.132 29.2821C181.112 28.8013 181.259 28.6345 181.74 28.6148L190.758 28.1634L190.748 28.1536ZM190.631 30.3321L183.497 30.6952L183.938 39.4878L191.072 39.1248C193.908 38.9874 195.518 37.3388 195.38 34.5322C195.233 31.6962 193.535 30.1849 190.631 30.3321Z" fill="#A4937D"/>
<path d="M210.689 28.5562C216.538 29.0371 219.649 32.4815 219.227 37.7021L218.756 43.4919C218.334 48.7027 214.703 51.6074 208.854 51.1364L202.152 50.5868C201.671 50.5476 201.533 50.3807 201.573 49.8999L203.31 28.6053C203.349 28.1244 203.516 27.987 203.997 28.0165L210.699 28.566L210.689 28.5562ZM216.901 37.5058C217.225 33.5315 214.958 31.0782 210.513 30.7151L205.459 30.303L203.977 48.5457L209.031 48.9578C213.486 49.3209 216.116 47.2601 216.43 43.2858L216.901 37.496V37.5058Z" fill="#A4937D"/>
<path d="M223.436 36.1914C223.77 34.533 224.643 33.2082 226.105 32.2661C227.528 31.3143 229.088 31.01 230.747 31.3339C232.405 31.6675 233.691 32.5409 234.643 33.9638C235.594 35.3867 235.899 36.947 235.575 38.6055C235.241 40.2639 234.358 41.5789 232.965 42.5405C231.542 43.4924 229.981 43.7966 228.323 43.4728C226.664 43.149 225.34 42.256 224.398 40.8331C223.416 39.4003 223.112 37.84 223.436 36.1816V36.1914ZM224.466 36.3975C224.182 37.8008 224.447 39.1256 225.251 40.2933C226.027 41.4905 227.145 42.2265 228.549 42.5111C229.922 42.7859 231.218 42.5209 232.386 41.7162C233.553 40.9116 234.289 39.8223 234.574 38.4092C234.858 36.9961 234.594 35.7106 233.818 34.5232C233.043 33.3652 231.954 32.6194 230.58 32.3446C229.177 32.0601 227.852 32.325 226.694 33.1003C225.497 33.8755 224.761 34.9942 224.476 36.3975H224.466ZM230.786 34.376C232.16 34.6507 232.817 35.5928 232.562 36.8783C232.356 37.9087 231.757 38.4779 230.776 38.5073L231.561 40.7447C231.669 40.9901 231.561 41.098 231.277 41.0489L230.835 40.9606C230.649 40.9214 230.531 40.833 230.472 40.6564L229.716 38.3896L227.813 38.0069L227.41 40.0382C227.381 40.1952 227.273 40.2344 227.116 40.205L226.674 40.1167C226.517 40.0872 226.439 40.0087 226.468 39.8517L227.626 34.0619C227.665 33.8461 227.813 33.7774 228.028 33.8166L230.786 34.3662V34.376ZM227.979 37.1629L230.109 37.5849C230.953 37.7517 231.434 37.4573 231.591 36.6821C231.748 35.897 231.414 35.4456 230.57 35.2788L228.441 34.8568L227.979 37.1727V37.1629Z" fill="#A4937D"/>
<path d="M258.881 39.5078C262.551 40.8816 263.915 43.6097 262.61 47.1032C261.727 49.4583 260.196 50.734 258.008 50.8322L257.988 50.8911C260.118 52.4023 260.657 54.5808 259.588 57.4463C258.234 61.0575 255.064 62.2547 251.266 60.8318L242.513 57.5542C242.061 57.3874 241.973 57.1813 242.14 56.7299L249.637 36.7208C249.804 36.2694 250.01 36.1811 250.461 36.3479L258.881 39.5078ZM257.39 56.3864C257.87 55.1009 257.9 54.0215 257.468 53.0794C257.026 52.1668 256.134 51.4504 254.848 50.9696L247.743 48.3004L244.819 56.092L251.924 58.7612C253.209 59.2421 254.348 59.2911 255.28 58.8986C256.212 58.4963 256.899 57.6622 257.38 56.3864H257.39ZM257.851 41.4311L251.247 38.9582L248.469 46.3672L255.074 48.8401C257.556 49.7724 259.372 49.0167 260.294 46.5438C261.217 44.0905 260.383 42.3928 257.851 41.441V41.4311Z" fill="#A4937D"/>
<path d="M284.828 51.9415C285.191 52.1377 285.201 52.4616 284.808 52.6578L271.472 60.1158L267.488 67.6818C267.262 68.1038 267.047 68.1725 266.625 67.9468L265.692 67.4561C265.27 67.2304 265.202 67.0145 265.427 66.5925L269.431 59.007L268.028 43.8161C267.969 43.3844 268.244 43.2077 268.607 43.404L269.765 44.0124C270.442 44.3657 270.579 44.5129 270.57 45.082L271.57 57.4663L282.414 51.3232C282.875 50.9896 283.081 51.019 283.758 51.3821L284.828 51.9513V51.9415Z" fill="#A4937D"/>
<path d="M306.396 67.456C306.72 67.7112 306.74 68.0055 306.485 68.3294L305.935 69.0359C305.68 69.3598 305.395 69.4285 305.062 69.1733L296.151 62.2943L291.323 68.5551L299.095 74.5509C299.419 74.8061 299.439 75.1005 299.184 75.4243L298.634 76.1309C298.379 76.4547 298.094 76.5234 297.761 76.2683L289.989 70.2724L284.964 76.7884L294.208 83.9225C294.532 84.1777 294.552 84.4721 294.297 84.7959L293.747 85.5025C293.492 85.8263 293.207 85.8852 292.874 85.6398L282.325 77.4949C281.942 77.2005 281.912 76.9748 282.207 76.6019L295.258 59.684C295.553 59.3012 295.778 59.2718 296.151 59.5662L306.377 67.456H306.396Z" fill="#A4937D"/>
<path d="M323.619 83.9319C323.913 84.2263 323.864 84.452 323.482 84.6483L302.481 94.069C302.118 94.2063 301.804 94.1573 301.51 93.8629L300.833 93.1858C300.538 92.8914 300.47 92.597 300.607 92.2339L309.998 71.1944C310.175 70.7921 310.401 70.743 310.724 71.057L311.382 71.7047C311.833 72.1561 311.971 72.5584 311.794 72.9215L304.405 89.1918C304.228 89.5549 303.983 90.0259 303.659 90.5656C303.345 91.1054 303.188 91.4488 303.139 91.5371L303.208 91.6058C303.296 91.5568 303.639 91.3998 304.179 91.0857C304.719 90.7717 305.17 90.497 305.533 90.3203L321.784 82.8721C322.118 82.666 322.53 82.8034 322.981 83.2548L323.639 83.9123L323.619 83.9319Z" fill="#A4937D"/>
<path d="M335.248 98.6024C335.503 98.9263 335.444 99.2207 335.11 99.4758L334.404 100.025C334.08 100.28 333.786 100.261 333.53 99.937L326.622 91.0463L320.371 95.9038L326.396 103.666C326.651 103.99 326.593 104.284 326.269 104.539L325.562 105.089C325.238 105.344 324.944 105.334 324.689 105.001L318.663 97.2384L312.167 102.282L319.331 111.507C319.586 111.831 319.527 112.125 319.203 112.38L318.497 112.93C318.173 113.185 317.878 113.165 317.623 112.841L309.449 102.312C309.155 101.939 309.184 101.713 309.557 101.419L326.436 88.3084C326.808 88.014 327.034 88.0434 327.329 88.4262L335.248 98.6319V98.6024Z" fill="#A4937D"/>
<path d="M347.259 117.778C347.504 118.19 347.446 118.406 347.033 118.651L328.673 129.573C328.261 129.818 328.045 129.759 327.8 129.347L327.28 128.474C327.113 128.199 327.113 127.944 327.24 127.718L334.59 111.507C334.934 110.781 335.444 109.888 336.111 108.818C336.779 107.758 337.122 107.14 337.21 106.983L337.142 106.875C337.004 106.954 336.376 107.405 335.297 108.2C334.198 108.965 333.266 109.593 332.471 110.064L321.097 116.836C320.744 117.051 320.45 116.993 320.243 116.639L319.733 115.785C319.488 115.373 319.547 115.157 319.959 114.912L338.319 103.99C338.732 103.745 338.947 103.804 339.193 104.216L339.713 105.089C339.86 105.334 339.889 105.58 339.782 105.825L332.549 121.673C332.186 122.439 331.686 123.41 331.028 124.549C330.351 125.658 329.968 126.325 329.86 126.58L329.909 126.659C330.106 126.541 330.753 126.08 331.892 125.255C333.01 124.441 333.992 123.783 334.806 123.293L345.905 116.688C346.258 116.472 346.543 116.571 346.749 116.924L347.259 117.778Z" fill="#A4937D"/>
<path d="M356.101 137.227C356.287 137.669 356.209 137.875 355.767 138.061L354.952 138.415C354.511 138.601 354.305 138.523 354.108 138.081L351.547 132.173L333.344 140.053C332.902 140.24 332.696 140.161 332.5 139.72L332.078 138.758C331.891 138.317 331.97 138.11 332.412 137.914L350.615 130.034L348.054 124.127C347.867 123.685 347.946 123.479 348.387 123.283L349.212 122.929C349.653 122.743 349.859 122.822 350.046 123.263L356.091 137.227H356.101Z" fill="#A4937D"/>
<path d="M358.308 143.783C358.446 144.234 358.338 144.411 357.876 144.548L338.908 150.368L342.077 160.701C342.195 161.093 342.038 161.349 341.645 161.466L340.792 161.731C340.399 161.849 340.124 161.731 340.007 161.339L336.346 149.416C336.209 148.955 336.307 148.758 336.768 148.621L357.199 142.35C357.661 142.213 357.857 142.311 357.994 142.772L358.308 143.783Z" fill="#A4937D"/>
<path d="M355.296 160.112C360.222 159.229 363.725 161.771 364.726 167.325C365.718 172.85 363.323 176.451 358.397 177.344L350.988 178.679C346.062 179.562 342.558 177.02 341.567 171.495C340.566 165.941 342.971 162.34 347.897 161.447L355.306 160.112H355.296ZM357.985 175.087C361.655 174.43 363.362 171.819 362.617 167.708C361.881 163.596 359.368 161.712 355.698 162.369L348.289 163.704C344.619 164.361 342.922 167.001 343.658 171.113C344.394 175.224 346.896 177.079 350.576 176.412L357.985 175.077V175.087Z" fill="#A4937D"/>
<path d="M345.219 199.09C344.816 199.335 344.591 199.247 344.561 198.776L344.512 197.755C344.473 196.96 344.561 196.734 345.022 196.45L351.911 192.564C353.903 191.445 354.58 190.326 354.453 187.873L354.286 184.625L344.512 185.116C344.031 185.135 343.864 185.017 343.845 184.546L343.796 183.496C343.776 183.016 343.923 182.849 344.404 182.829L365.748 181.76C366.229 181.74 366.395 181.887 366.415 182.368L366.464 183.418C366.484 183.899 366.337 184.026 365.856 184.056L356.396 184.527L356.553 187.589L356.592 188.285L366.503 194.939C366.866 195.213 367.082 195.616 367.112 196.185L367.171 197.333C367.2 197.814 366.886 197.922 366.582 197.686L356.268 190.631C355.905 192.25 354.786 193.575 352.892 194.664L345.228 199.099L345.219 199.09Z" fill="#A4937D"/>
<path d="M343.52 220.061C343.098 220.188 342.911 220.041 342.95 219.56L343.029 218.638C343.088 217.971 343.313 217.607 343.696 217.539L349.937 215.674L350.791 205.733L344.962 202.839C344.491 202.672 344.422 202.436 344.481 201.681L344.55 200.827C344.589 200.375 344.785 200.268 345.188 200.464L365.972 210.817C366.306 210.974 366.482 211.249 366.443 211.661L366.365 212.613C366.325 213.025 366.149 213.299 365.786 213.398L343.52 220.071V220.061ZM361.988 212.23C362.871 212.014 363.617 211.916 364.216 211.975V211.818C363.558 211.759 362.842 211.572 362.066 211.249L352.636 206.568L351.9 215.213L361.978 212.23H361.988Z" fill="#A4937D"/>
<path d="M364.206 228.157C364.108 228.628 363.921 228.716 363.46 228.618L344.04 224.565L341.832 235.144C341.743 235.546 341.488 235.693 341.086 235.605L340.212 235.428C339.81 235.34 339.624 235.114 339.712 234.702L342.263 222.494C342.362 222.023 342.548 221.906 343.019 222.004L363.941 226.371C364.412 226.469 364.529 226.655 364.431 227.126L364.215 228.157H364.206Z" fill="#A4937D"/>
<path d="M356.247 257.243C356.12 257.635 355.845 257.753 355.453 257.616L354.609 257.331C354.216 257.204 354.059 256.948 354.196 256.556L357.719 245.86L350.203 243.387L347.131 252.719C347.003 253.112 346.729 253.229 346.336 253.092L345.492 252.817C345.1 252.69 344.943 252.434 345.08 252.042L348.152 242.71L340.33 240.129L336.68 251.218C336.552 251.61 336.278 251.728 335.885 251.59L335.031 251.306C334.639 251.178 334.482 250.923 334.619 250.531L338.79 237.862C338.937 237.41 339.143 237.302 339.594 237.459L359.898 244.152C360.349 244.299 360.457 244.505 360.3 244.957L356.257 257.223L356.247 257.243Z" fill="#A4937D"/>
<path d="M334.344 257.429C333.952 258.332 333.579 258.45 332.676 258.057L332.499 257.979C331.597 257.586 331.459 257.174 331.832 256.33L331.911 256.154C332.303 255.251 332.686 255.094 333.589 255.496L333.765 255.575C334.668 255.967 334.825 256.35 334.423 257.253L334.344 257.429Z" fill="#A4937D"/>
<path d="M343.795 267.4C348.201 269.784 349.359 273.935 346.661 278.901C344.394 283.081 341.597 284.494 337.819 283.758C337.318 283.67 337.181 283.523 337.269 283.022L337.436 281.992C337.554 281.58 337.78 281.423 338.172 281.442C341.097 282.011 343.069 281.05 344.786 277.88C346.778 274.21 345.964 271.227 342.716 269.46L336.043 265.839C332.814 264.092 329.821 265.074 327.859 268.695C326.112 271.923 326.406 274.112 328.536 276.28C328.801 276.604 328.771 276.918 328.506 277.203L327.702 277.89C327.378 278.155 327.093 278.145 326.818 277.851C324.11 275.083 323.688 271.914 325.984 267.674C328.644 262.768 332.785 261.423 337.191 263.808L343.805 267.4H343.795Z" fill="#A4937D"/>
<path d="M329.762 303.767C329.516 304.101 329.222 304.12 328.888 303.875L311.637 291.255C311.303 291.01 311.234 290.725 311.48 290.392L312.098 289.538C312.383 289.155 312.599 289.116 312.991 289.401L320.871 295.161L328.044 285.358L320.164 279.597C319.782 279.313 319.723 279.116 320.007 278.734L320.626 277.88C320.91 277.497 321.126 277.458 321.519 277.743L338.77 290.362C339.153 290.647 339.192 290.873 338.908 291.255L338.289 292.109C338.005 292.492 337.799 292.502 337.416 292.217L329.791 286.643L322.618 296.456L330.233 302.03C330.616 302.315 330.655 302.54 330.37 302.923L329.752 303.777L329.762 303.767Z" fill="#A4937D"/>
<path d="M142.602 287.232C142.106 288.541 142.467 289.173 143.776 289.67L148.561 291.43C149.96 291.836 150.321 291.656 150.998 290.211C152.037 288.045 153.075 287.232 154.926 287.232C156.867 287.232 157.995 288.451 157.995 290.211C157.995 291.52 157.318 292.739 156.686 293.416C156.37 293.778 155.783 294.184 155.016 294.59C154.203 295.041 153.616 295.357 153.21 295.538C152.804 295.719 152.082 296.035 151.043 296.486C149.689 297.073 148.606 297.569 147.838 297.976C147.071 298.427 146.168 299.059 145.175 299.826C143.189 301.451 142.286 303.663 142.286 306.552V310.164C142.286 311.563 142.783 312.06 144.227 312.06H164.54C165.985 312.06 166.482 311.563 166.482 310.164V306.372C166.482 304.927 165.985 304.431 164.54 304.431H151.585V304.16C151.585 303.754 151.991 303.392 152.804 303.077C153.752 302.715 155.512 302.219 156.912 301.813C160.568 300.503 163.186 299.014 164.766 297.344C166.346 295.673 167.113 293.146 167.113 289.805C167.113 286.781 166.03 284.298 163.908 282.312C161.787 280.326 158.853 279.333 155.196 279.333C148.877 279.333 144.679 281.951 142.602 287.232Z" fill="#A4937D"/>
<path d="M170.241 300.955C170.241 308.313 174.981 312.737 183.106 312.737C191.231 312.737 195.971 308.313 195.971 300.955V291.069C195.971 283.847 191.231 279.333 183.106 279.333C174.981 279.333 170.241 283.847 170.241 291.069V300.955ZM187.033 301.316C187.033 303.528 185.589 304.837 183.106 304.837C180.623 304.837 179.179 303.528 179.179 301.316V290.708C179.179 288.496 180.623 287.232 183.106 287.232C185.589 287.232 187.033 288.496 187.033 290.708V301.316Z" fill="#A4937D"/>
<path d="M199.557 287.232C199.06 288.541 199.421 289.173 200.731 289.67L205.515 291.43C206.915 291.836 207.276 291.656 207.953 290.211C208.991 288.045 210.03 287.232 211.88 287.232C213.821 287.232 214.95 288.451 214.95 290.211C214.95 291.52 214.273 292.739 213.641 293.416C213.325 293.778 212.738 294.184 211.971 294.59C211.158 295.041 210.571 295.357 210.165 295.538C209.759 295.719 209.036 296.035 207.998 296.486C206.644 297.073 205.561 297.569 204.793 297.976C204.026 298.427 203.123 299.059 202.13 299.826C200.144 301.451 199.241 303.663 199.241 306.552V310.164C199.241 311.563 199.737 312.06 201.182 312.06H221.495C222.94 312.06 223.436 311.563 223.436 310.164V306.372C223.436 304.927 222.94 304.431 221.495 304.431H208.54V304.16C208.54 303.754 208.946 303.392 209.759 303.077C210.707 302.715 212.467 302.219 213.866 301.813C217.523 300.503 220.141 299.014 221.721 297.344C223.301 295.673 224.068 293.146 224.068 289.805C224.068 286.781 222.985 284.298 220.863 282.312C218.742 280.326 215.808 279.333 212.151 279.333C205.831 279.333 201.633 281.951 199.557 287.232Z" fill="#A4937D"/>
<path d="M249.134 281.86C247.193 280.19 244.439 279.333 240.873 279.333C233.967 279.333 229.543 281.951 227.557 287.232C227.06 288.541 227.466 289.263 228.776 289.67L233.199 291.25C234.508 291.746 235.14 291.43 235.637 290.031C236.495 287.864 237.488 287.097 239.88 287.097C241.911 287.097 242.95 287.909 242.95 289.579C242.95 291.25 241.911 292.062 239.88 292.062H237.894C236.449 292.062 235.998 292.559 235.998 294.003V297.75C235.998 299.149 236.449 299.646 237.894 299.646H240.648C242.634 299.646 243.627 300.549 243.627 302.309C243.627 304.07 242.453 304.972 240.106 304.972C237.804 304.972 236.269 303.979 235.547 302.038C235.005 300.594 234.508 300.323 233.109 300.819L228.685 302.399C227.421 302.806 227.015 303.618 227.466 304.837C229.408 310.118 233.831 312.737 240.783 312.737C248.908 312.737 252.971 309.171 252.971 302.851C252.971 299.375 251.481 296.847 248.502 295.267C250.849 293.732 252.023 291.521 252.023 288.677C252.023 285.833 251.075 283.531 249.134 281.86Z" fill="#A4937D"/>
</svg>
