<?xml version="1.0" encoding="UTF-8" standalone="no"?>
<svg
   xmlns:dc="http://purl.org/dc/elements/1.1/"
   xmlns:cc="http://creativecommons.org/ns#"
   xmlns:rdf="http://www.w3.org/1999/02/22-rdf-syntax-ns#"
   xmlns:svg="http://www.w3.org/2000/svg"
   xmlns="http://www.w3.org/2000/svg"
   xmlns:sodipodi="http://sodipodi.sourceforge.net/DTD/sodipodi-0.dtd"
   xmlns:inkscape="http://www.inkscape.org/namespaces/inkscape"
   inkscape:version="1.0 (4035a4fb49, 2020-05-01)"
   sodipodi:docname="abonianer-1.svg"
   xml:space="preserve"
   enable-background="new 0 0 100 100"
   viewBox="0 0 100 100"
   height="100px"
   width="100px"
   y="0px"
   x="0px"
   id="Ebene_1"
   version="1.1"><metadata
   id="metadata74"><rdf:RDF><cc:Work
       rdf:about=""><dc:format>image/svg+xml</dc:format><dc:type
         rdf:resource="http://purl.org/dc/dcmitype/StillImage" /><dc:title></dc:title></cc:Work></rdf:RDF></metadata><defs
   id="defs72" /><sodipodi:namedview
   inkscape:current-layer="Ebene_1"
   inkscape:window-maximized="0"
   inkscape:window-y="504"
   inkscape:window-x="660"
   inkscape:cy="40.355433"
   inkscape:cx="58.594117"
   inkscape:zoom="4.25"
   showgrid="false"
   id="namedview70"
   inkscape:window-height="791"
   inkscape:window-width="1063"
   inkscape:pageshadow="2"
   inkscape:pageopacity="0"
   guidetolerance="10"
   gridtolerance="10"
   objecttolerance="10"
   borderopacity="1"
   bordercolor="#666666"
   pagecolor="#ffffff" />


<g
   id="g59">
	<path
   id="path57"
   d="   M50.012,83.719c-13.534,0-27.067,0.006-40.601-0.004c-3.97-0.004-4.987-1.032-5.001-5.003c-0.013-3.408,0.066-6.818-0.033-10.223   c-0.046-1.61,0.428-2.401,2.077-2.888c3.954-1.166,6.155-4.17,6.13-7.884c-0.025-3.693-2.25-6.665-6.238-7.82   c-1.558-0.451-1.988-1.175-1.96-2.654c0.068-3.602-0.021-7.206,0.036-10.807c0.044-2.872,1.241-4.134,4.084-4.136   c27.651-0.027,55.304-0.026,82.955,0c2.85,0.002,4.069,1.259,4.115,4.112c0.061,3.698-0.052,7.401,0.048,11.098   c0.044,1.626-0.464,2.394-2.095,2.877c-3.955,1.174-6.142,4.161-6.114,7.893c0.027,3.701,2.244,6.663,6.237,7.819   c1.562,0.452,1.991,1.177,1.961,2.652c-0.067,3.31-0.011,6.622-0.023,9.931c-0.015,3.98-1.04,5.031-4.976,5.035   C77.079,83.725,63.545,83.719,50.012,83.719z"
   stroke-miterlimit="10"
   stroke-width="2"
   stroke="#000000"
   fill="none"
   clip-rule="evenodd"
   fill-rule="evenodd" />
</g>

<path
   id="path63"
   d="M9.5,28  c0-3,2.239-5,5-5h70c2.762,0,5,2,5,5H9.5z"
   stroke-miterlimit="10"
   stroke-width="2"
   stroke="#000000"
   fill="none"
   clip-rule="evenodd"
   fill-rule="evenodd" />
<path
   id="path65"
   d="M20.5,18  c0-3,2.239-5,5-5h50c2.761,0,5,2,5,5H20.5z"
   stroke-miterlimit="10"
   stroke-width="2"
   stroke="#000000"
   fill="none"
   clip-rule="evenodd"
   fill-rule="evenodd" />
<text
   style="stroke-width:2.78657"
   y="69.82151"
   x="38.576065"
   id="text67"
   font-size="33.439px"
   font-family="YeniZaman-Regular"><tspan
     id="tspan110"
     style="font-style:normal;font-variant:normal;font-weight:normal;font-stretch:normal;font-family:sans-serif;-inkscape-font-specification:sans-serif">4</tspan></text>
<g
   transform="matrix(0.09754639,0,0,0.09754639,27.398528,35.144452)"
   id="g216"><g
     id="g161">
</g><g
     id="g163">
</g><g
     id="g165">
</g><g
     id="g167">
</g><g
     id="g169">
</g><g
     id="g171">
</g><g
     id="g173">
</g><g
     id="g175">
</g><g
     id="g177">
</g><g
     id="g179">
</g><g
     id="g181">
</g><g
     id="g183">
</g><g
     id="g185">
</g><g
     id="g187">
</g><g
     id="g189">
</g><g
     transform="matrix(0,1.0210448,1.0210448,0,-11.553497,-26.099848)"
     id="g322"><g
       id="g265">
	<g
   id="g263">
		<path
   d="M 482.195,226.196 C 482.195,101.471 380.725,0 256.001,0 131.277,0 29.805,101.471 29.805,226.196 c 0,7.409 6.007,13.416 13.416,13.416 7.409,0 13.416,-6.008 13.416,-13.416 0,-109.93 89.434,-199.363 199.363,-199.363 109.929,0 199.363,89.434 199.363,199.363 0,109.928 -89.434,199.362 -199.363,199.362 h -23.276 l 33.282,-37.255 c 4.937,-5.525 4.458,-14.007 -1.067,-18.944 -5.525,-4.937 -14.008,-4.457 -18.944,1.068 l -47.576,53.255 c -7.788,8.718 -7.788,21.866 0,30.584 l 47.576,53.255 c 2.651,2.968 6.322,4.478 10.01,4.478 3.181,0 6.375,-1.126 8.934,-3.41 5.526,-4.937 6.004,-13.419 1.067,-18.944 L 232.724,452.39 H 256 c 124.725,0 226.195,-101.471 226.195,-226.194 z"
   id="path261" />
	</g>
</g><g
       id="g267">
</g><g
       id="g269">
</g><g
       id="g271">
</g><g
       id="g273">
</g><g
       id="g275">
</g><g
       id="g277">
</g><g
       id="g279">
</g><g
       id="g281">
</g><g
       id="g283">
</g><g
       id="g285">
</g><g
       id="g287">
</g><g
       id="g289">
</g><g
       id="g291">
</g><g
       id="g293">
</g><g
       id="g295">
</g></g></g></svg>
