<?xml version="1.0" encoding="utf-8"?>
<!-- Generator: Adobe Illustrator 16.0.4, SVG Export Plug-In . SVG Version: 6.00 Build 0)  -->
<!DOCTYPE svg PUBLIC "-//W3C//DTD SVG 1.1//EN" "http://www.w3.org/Graphics/SVG/1.1/DTD/svg11.dtd">
<svg version="1.1" id="Ebene_1" xmlns="http://www.w3.org/2000/svg" xmlns:xlink="http://www.w3.org/1999/xlink" x="0px" y="0px"
	 width="100px" height="100px" viewBox="0 0 100 100" enable-background="new 0 0 100 100" xml:space="preserve">
<g>
	<path d="M-46.414,59.218c-0.68,0-1.257,0.074-1.257-0.605v-7.988c0-2.29-2.364-4.3-5.06-4.3h-5.882v-2.462h5.882
		c4.075,0,7.518,3.097,7.518,6.762v7.988C-45.213,59.292-45.735,59.218-46.414,59.218z"/>
	<path d="M-28.056,59.843h-19.006c-0.326,0-0.638-0.129-0.868-0.36l-12.454-12.472c-0.23-0.23-0.36-0.543-0.36-0.871V15.287
		c0-5.022,4.08-9.107,9.094-9.107h23.595c5.014,0,9.091,4.085,9.091,9.107v35.449C-18.965,55.757-23.042,59.843-28.056,59.843z
		 M-46.553,57.382h18.497c3.657,0,6.633-2.981,6.633-6.646V15.287c0-3.665-2.976-6.646-6.633-6.646H-51.65
		c-3.659,0-6.636,2.981-6.636,6.646v30.344L-46.553,57.382z"/>
	<path d="M-30.389,23.164h-19.66c-0.68,0-1.229-0.55-1.229-1.23c0-0.681,0.55-1.231,1.229-1.231h19.66
		c0.68,0,1.229,0.55,1.229,1.231C-29.16,22.614-29.709,23.164-30.389,23.164z"/>
	<path d="M-30.389,30.549h-19.66c-0.68,0-1.229-0.55-1.229-1.231c0-0.68,0.55-1.23,1.229-1.23h19.66c0.68,0,1.229,0.55,1.229,1.23
		C-29.16,29.999-29.709,30.549-30.389,30.549z"/>
	<path d="M-30.389,37.935h-19.66c-0.68,0-1.229-0.551-1.229-1.23c0-0.682,0.55-1.231,1.229-1.231h19.66
		c0.68,0,1.229,0.55,1.229,1.231C-29.16,37.384-29.709,37.935-30.389,37.935z"/>
</g>
<path fill="none" stroke="#000000" stroke-width="3" stroke-miterlimit="10" d="M239.5,38.5c0,2.761-2.238,5-5,5h-70
	c-2.762,0-5-2.239-5-5V32c0,0,4.625-0.125,4.625-9s-4.625-9-4.625-9V8.5c0-2.761,2.238-5,5-5h70c2.762,0,5,2.239,5,5V14
	c0,0-3.625,0.125-3.625,9s3.625,8.75,3.625,8.75V38.5z"/>
<g>
	<path fill-rule="evenodd" clip-rule="evenodd" fill="none" stroke="#000000" stroke-width="2" stroke-miterlimit="10" d="
		M50.012,83.719c-13.534,0-27.067,0.006-40.601-0.004c-3.97-0.004-4.987-1.032-5.001-5.003c-0.013-3.408,0.066-6.818-0.033-10.223
		c-0.046-1.61,0.428-2.401,2.077-2.888c3.954-1.166,6.155-4.17,6.13-7.884c-0.025-3.693-2.25-6.665-6.238-7.82
		c-1.558-0.451-1.988-1.175-1.96-2.654c0.068-3.602-0.021-7.206,0.036-10.807c0.044-2.872,1.241-4.134,4.084-4.136
		c27.651-0.027,55.304-0.026,82.955,0c2.85,0.002,4.069,1.259,4.115,4.112c0.061,3.698-0.052,7.401,0.048,11.098
		c0.044,1.626-0.464,2.394-2.095,2.877c-3.955,1.174-6.142,4.161-6.114,7.893c0.027,3.701,2.244,6.663,6.237,7.819
		c1.562,0.452,1.991,1.177,1.961,2.652c-0.067,3.31-0.011,6.622-0.023,9.931c-0.015,3.98-1.04,5.031-4.976,5.035
		C77.079,83.725,63.545,83.719,50.012,83.719z"/>
</g>
<path fill="none" stroke="#000000" stroke-width="2" stroke-miterlimit="10" d="M82,72.873C82,75.522,79.377,78,76.408,78H22.632
	C19.663,78,16,75.522,16,72.873V44.086C16,41.437,19.663,40,22.632,40h53.775C79.377,40,82,41.437,82,44.086V72.873z"/>
<path fill-rule="evenodd" clip-rule="evenodd" fill="none" stroke="#000000" stroke-width="2" stroke-miterlimit="10" d="M9.5,28
	c0-3,2.239-5,5-5h70c2.762,0,5,2,5,5H9.5z"/>
<path fill="none" stroke="#000000" stroke-width="2" stroke-miterlimit="10" d="M46.229,58.156c0,0-3.283-1.996-3.283-6.299
	c0-4.304,2.32-7.14,7.105-7.14c4.785,0,7.538,3.177,7.577,7.206c0.039,4.029-3.304,6.255-3.304,6.255
	c5.151,1.208,8.956,6.205,8.817,10.08C63.003,72.132,58.596,73,58.596,73H42.541c0,0-5.011-0.775-5.011-4.812
	C37.53,64.151,41.845,58.829,46.229,58.156z"/>
<path fill="none" stroke="#000000" stroke-width="2" stroke-miterlimit="10" d="M56.275,44.774c4.786,0,7.998,3.177,8.036,7.206
	c0.038,4.028-3.304,6.254-3.304,6.254c5.152,1.208,8.813,5.89,8.816,9.768c0.004,4.154-6.077,3.968-6.077,3.968"/>
<path fill="none" stroke="#000000" stroke-width="2" stroke-miterlimit="10" d="M43.725,44.774c-4.785,0-7.998,3.177-8.035,7.206
	c-0.039,4.028,3.304,6.254,3.304,6.254c-5.152,1.208-8.813,5.89-8.817,9.768c-0.004,4.154,6.077,3.968,6.077,3.968"/>
</svg>
