<?xml version="1.0" encoding="utf-8"?>
<!-- Generator: Adobe Illustrator 16.0.0, SVG Export Plug-In . SVG Version: 6.00 Build 0)  -->
<!DOCTYPE svg PUBLIC "-//W3C//DTD SVG 1.1//EN" "http://www.w3.org/Graphics/SVG/1.1/DTD/svg11.dtd">
<svg version="1.1" id="Ebene_1" xmlns="http://www.w3.org/2000/svg" xmlns:xlink="http://www.w3.org/1999/xlink" x="0px" y="0px"
	 width="100px" height="100px" viewBox="0 0 100 100" enable-background="new 0 0 100 100" xml:space="preserve">
<g>
	<path d="M-46.414,59.218c-0.68,0-1.257,0.074-1.257-0.605v-7.988c0-2.29-2.364-4.3-5.06-4.3h-5.882v-2.462h5.882
		c4.075,0,7.518,3.097,7.518,6.762v7.988C-45.213,59.292-45.735,59.218-46.414,59.218z"/>
	<path d="M-28.056,59.843h-19.006c-0.326,0-0.638-0.129-0.868-0.36l-12.454-12.472c-0.23-0.23-0.36-0.543-0.36-0.871V15.287
		c0-5.022,4.08-9.107,9.094-9.107h23.595c5.014,0,9.091,4.085,9.091,9.107v35.449C-18.965,55.757-23.042,59.843-28.056,59.843z
		 M-46.553,57.382h18.497c3.657,0,6.633-2.981,6.633-6.646V15.287c0-3.665-2.976-6.646-6.633-6.646H-51.65
		c-3.659,0-6.636,2.981-6.636,6.646v30.344L-46.553,57.382z"/>
	<path d="M-30.389,23.164h-19.66c-0.68,0-1.229-0.55-1.229-1.23c0-0.681,0.55-1.231,1.229-1.231h19.66
		c0.68,0,1.229,0.55,1.229,1.231C-29.16,22.614-29.709,23.164-30.389,23.164z"/>
	<path d="M-30.389,30.549h-19.66c-0.68,0-1.229-0.55-1.229-1.231c0-0.68,0.55-1.23,1.229-1.23h19.66c0.68,0,1.229,0.55,1.229,1.23
		C-29.16,29.999-29.709,30.549-30.389,30.549z"/>
	<path d="M-30.389,37.935h-19.66c-0.68,0-1.229-0.551-1.229-1.23c0-0.682,0.55-1.231,1.229-1.231h19.66
		c0.68,0,1.229,0.55,1.229,1.231C-29.16,37.384-29.709,37.935-30.389,37.935z"/>
</g>
<path fill="none" stroke="#000000" stroke-width="3" stroke-miterlimit="10" d="M239.5,38.5c0,2.761-2.238,5-5,5h-70
	c-2.762,0-5-2.239-5-5V32c0,0,4.625-0.125,4.625-9s-4.625-9-4.625-9V8.5c0-2.761,2.238-5,5-5h70c2.762,0,5,2.239,5,5V14
	c0,0-3.625,0.125-3.625,9s3.625,8.75,3.625,8.75V38.5z"/>
<g>
	<path fill-rule="evenodd" clip-rule="evenodd" fill="none" stroke="#000000" stroke-width="2" stroke-miterlimit="10" d="
		M50.012,74.719c-13.534,0-27.067,0.005-40.601-0.004c-3.97-0.004-4.987-1.033-5.001-5.004c-0.013-3.408,0.066-6.818-0.033-10.223
		c-0.046-1.61,0.428-2.401,2.077-2.888c3.954-1.166,6.155-4.17,6.13-7.884c-0.025-3.693-2.25-6.665-6.238-7.82
		c-1.558-0.451-1.988-1.175-1.96-2.654c0.068-3.602-0.021-7.206,0.036-10.807c0.044-2.872,1.241-4.134,4.084-4.136
		c27.651-0.027,55.304-0.026,82.955,0c2.85,0.002,4.069,1.259,4.115,4.112c0.061,3.698-0.052,7.401,0.048,11.098
		c0.044,1.626-0.464,2.394-2.095,2.877c-3.955,1.174-6.142,4.161-6.114,7.893c0.027,3.701,2.244,6.663,6.237,7.819
		c1.562,0.452,1.991,1.177,1.961,2.652c-0.067,3.31-0.011,6.622-0.023,9.931c-0.015,3.98-1.04,5.032-4.976,5.036
		C77.079,74.725,63.545,74.719,50.012,74.719z"/>
</g>
<path fill="none" stroke="#000000" stroke-width="2" stroke-miterlimit="10" d="M82,63.873C82,66.522,79.377,69,76.408,69H22.632
	C19.663,69,16,66.522,16,63.873V35.086C16,32.437,19.663,31,22.632,31h53.775C79.377,31,82,32.437,82,35.086V63.873z"/>
<g>
	<path d="M38.134,46.16h9.058l2.8-8.619l2.8,8.619h9.058l-7.32,5.33l2.8,8.619l-7.337-5.33l-7.337,5.33l2.8-8.619L38.134,46.16z"/>
</g>
</svg>
