<?xml version="1.0" encoding="UTF-8" standalone="no"?>
<svg
   xmlns:dc="http://purl.org/dc/elements/1.1/"
   xmlns:cc="http://creativecommons.org/ns#"
   xmlns:rdf="http://www.w3.org/1999/02/22-rdf-syntax-ns#"
   xmlns:svg="http://www.w3.org/2000/svg"
   xmlns="http://www.w3.org/2000/svg"
   viewBox="0 0 112.66667 111.2"
   height="111.2"
   width="112.66667"
   xml:space="preserve"
   id="svg2"
   version="1.1"><metadata
     id="metadata8"><rdf:RDF><cc:Work
         rdf:about=""><dc:format>image/svg+xml</dc:format><dc:type
           rdf:resource="http://purl.org/dc/dcmitype/StillImage" /></cc:Work></rdf:RDF></metadata><defs
     id="defs6" /><g
     transform="matrix(1.3333333,0,0,-1.3333333,0,111.2)"
     id="g10"><g
       transform="scale(0.1)"
       id="g12"><path
         id="path14"
         style="fill:#040606;fill-opacity:1;fill-rule:nonzero;stroke:none"
         d="m 773.992,784.484 c 6.238,6.25 16.375,6.25 22.625,0 6.242,-6.246 6.242,-16.375 0,-22.625 -6.25,-6.246 -16.387,-6.246 -22.625,0 -6.25,6.25 -6.25,16.379 0,22.625" /><path
         id="path16"
         style="fill:#040606;fill-opacity:1;fill-rule:nonzero;stroke:none"
         d="M 39.9961,377 409.996,748 c 13.004,13 29.008,19 45,19 16.008,0 33,-6 45,-19 L 607,642 c 2.004,-1.996 4.004,-3 7.004,-3 2.996,0 5,1.004 7,3 l 138,158.004 C 766.004,808 775,812 785,812 c 10,0 20,-4 27,-11 7.004,-7 10.996,-17 10.996,-27 0,-10 -3.992,-20 -11.992,-26 l -157,-137.996 c -2.004,-2.004 -3,-4.008 -3,-7.004 0,-2.996 0.996,-5 3,-7.004 L 747.996,502 c 25,-25 25,-66.004 0,-91.004 L 377,38.9961 c -25,-25 -66,-25 -91,0 L 39.9961,285.996 C 27,298 21,314 21,332 c 0,17 6,33.004 18.9961,45 z M 272,25.0039 C 288,8.99609 309.996,0.00390625 332,0.00390625 354.004,0.00390625 374.996,8 392,25.0039 L 762.996,395.996 c 16.008,16.004 25,37.004 25,60 0,23.004 -8.992,44.008 -25,60.004 L 677,602 827,734 c 12.004,11.004 18,25 18,41.004 0,15.996 -5.996,30 -17.004,41.996 -10.996,11 -25,17 -40,17 H 787 c -15.996,0 -30,-7 -40.996,-18.996 L 615,665.004 517,763 c -15.996,16 -37.004,25 -60,25 -22.996,0 -44,-9 -60,-25 L 24.9961,390.996 C 9,375.004 -0.00390625,354 -0.00390625,330.996 -0.00390625,309 9,287.004 24.9961,270.996 L 272,25.0039" /><path
         id="path18"
         style="fill:#040606;fill-opacity:1;fill-rule:nonzero;stroke:none"
         d="m 452.996,680.004 c 39.004,0 70,-32.004 70,-70 0,-38.004 -31.992,-70 -70,-70 -38,0 -69.996,31.996 -69.996,70 0,37.996 31.004,70 69.996,70 z m 0,-161.004 c 50,0 90,41.004 90,90 0,49 -40.996,90 -90,90 C 404.004,699 363,658 363,609 c 0,-48.996 40,-90 89.996,-90" /><path
         id="path20"
         style="fill:#040606;fill-opacity:1;fill-rule:nonzero;stroke:none"
         d="m 678.953,484.383 c 4.735,2.84 10.879,1.308 13.723,-3.43 2.84,-4.734 1.304,-10.879 -3.43,-13.719 -4.734,-2.843 -10.879,-1.308 -13.723,3.426 -2.839,4.735 -1.304,10.875 3.43,13.723" /><path
         id="path22"
         style="fill:#040606;fill-opacity:1;fill-rule:nonzero;stroke:none"
         d="m 169.004,424 c 10,19 26.996,34 46.996,40 l 107,35 c 21.004,6.996 43,5 61.996,-5 19.008,-10 34.008,-27 40,-47 C 427,442 426,437 424.004,433 422,428 418,425.004 413,424 c -5,-2 -8.004,-7 -6,-13.004 L 417,379 C 316,315.004 263,268 236,235.996 L 201,344 c -1.004,3 -3,5 -5,6.004 -1.004,0.992 -3,0.992 -5,0.992 -1.004,0 -1.996,0 -3,0 C 178,348 167,353 164.004,363 c -6.004,20 -5,42.004 5,61 z m 293.992,-41 8.008,-14 c 0.996,-2 3.992,-3.996 5.996,-5 2.996,-1 5,0 7.996,1.004 l 29.008,16.996 7,-11.996 -286.008,-171.008 c 1.004,2 2.004,4.004 4.008,6.008 0.992,0.992 1.996,2 2.996,2.996 19,27.996 67.996,77.996 194,157.996 1,1.004 1.996,1.004 1.996,2.004 8.008,5 16.008,10 25,15 z M 677,493 c 4.004,2.996 9.004,2.996 14.004,2.004 5,-1.004 8.996,-4.008 10.996,-8.004 5,-9 2.004,-20 -5.996,-25 l -150,-90 L 527,404 Z m -411,-347.996 -13,40.992 191.004,115 L 472.996,213 Z M 184.996,329 222,215.996 c -15,-23.992 -12.996,-37 -11,-42 1,-3 3.004,-5 6,-5.996 1,0 2.004,-0.996 2.996,-0.996 2.004,0 4.008,0 5,0.996 l 10,5.996 15,-45.996 c 1.004,-2.996 3.004,-5 5,-5.996 1.004,-1.008 3.004,-1.008 5,-1.008 1.004,0 2.004,0 3.004,0 l 226.004,73 c 5,2 7.996,7 5.992,13.008 l -32.996,103 70.996,42.996 1.008,-2.004 c 2,-2.996 5,-5 8.992,-5 2.004,0 4.004,0 5,1.004 L 707,442 c 18,11 24.004,35 13,53.004 -5,8.996 -13.996,15 -23.996,17.996 -10,2.004 -20,1 -29.004,-4 L 507,415.004 c -2.004,-1.004 -4.004,-4.008 -5,-6.004 -0.996,-3.004 0,-5 0.996,-8.004 v 0 l -20,-11.996 -8,14 c -0.992,2.004 -3.992,4 -5.992,5 -3,1 -5,0 -8,-1 -9.004,-5 -18.008,-11.004 -26.008,-16.004 l -5.992,19.008 c 5.992,3.996 10,8.996 13.992,15 5,8.996 6.008,20 2,30 C 437,480.996 419.004,502 394.996,514 371,526 343,528 318,520.004 l -107,-35 C 184.996,477 164.004,459 152,435.004 139.996,410.996 138,383 146,358 c 5,-19 21,-30 38.996,-29" /></g></g></svg>