<?xml version="1.0" encoding="utf-8"?>
<!-- Generator: Adobe Illustrator 16.0.0, SVG Export Plug-In . SVG Version: 6.00 Build 0)  -->
<!DOCTYPE svg PUBLIC "-//W3C//DTD SVG 1.1//EN" "http://www.w3.org/Graphics/SVG/1.1/DTD/svg11.dtd">
<svg version="1.1" id="Layer_1" xmlns="http://www.w3.org/2000/svg" xmlns:xlink="http://www.w3.org/1999/xlink" x="0px" y="0px"
	 width="100px" height="100px" viewBox="-20 -20 100 100" enable-background="new -20 -20 100 100" xml:space="preserve">
<g>
	<g>
		<path fill="#777777" d="M-9.236,26.309v20.426c0,18.196,14.846,33.042,33.041,33.042h0.444c0.337,0,0.672,0,1.007,0
			c0.227,0.113,0.446,0.113,0.781,0.113h25.004c1.115,0,2.01-0.895,2.01-2.012c0-1.113-0.895-2.006-2.01-2.006H39.209
			c7.592-4.021,13.395-10.828,16.074-19.201h2.344c6.475,0,11.609-5.246,11.609-11.724c0-6.47-5.248-11.493-11.721-11.493
			c-0.223,0-0.67,0-0.67,0.111v-7.255c0-2.567-2.01-4.688-4.576-4.688H-4.548C-7.004,21.621-9.236,23.853-9.236,26.309z
			 M56.287,52.988c0.447-2.121,0.67-4.356,0.67-6.586v-9.157c-0.111,0.113,0.336,0.113,0.559,0.113c4.242,0,7.812,3.459,7.812,7.812
			s-3.459,7.812-7.703,7.812h-1.338V52.988z M-5.329,46.847V26.309c0-0.335,0.446-0.781,0.781-0.781H52.27
			c0.334,0,0.668,0.446,0.668,0.781v20.093c0,16.074-12.947,29.354-28.798,29.469h-0.335C7.73,75.871-5.329,62.811-5.329,46.847
			L-5.329,46.847z"/>
		<path fill="#777777" d="M36.307,5.435c0.559-3.684-1.562-7.591-6.475-11.609c-1.897-1.562-2.902-3.237-2.902-4.911
			c0-2.902,2.902-5.358,2.902-5.358c0.895-0.67,1.004-1.897,0.336-2.79c-0.667-0.894-1.896-1.005-2.788-0.335
			c-0.227,0.111-4.354,3.571-4.354,8.483c0,2.902,1.451,5.581,4.354,7.925c3.683,3.015,5.356,5.693,5.019,7.926
			c-0.334,2.456-3.456,4.242-4.572,4.688c-1.008,0.446-1.454,1.562-1.116,2.567c0.337,0.781,1.005,1.228,1.786,1.228
			c0.222,0,0.446,0,0.781-0.111C29.609,13.024,35.525,10.569,36.307,5.435z"/>
		<path fill="#777777" d="M21.572,8.337c0.335-2.345-0.893-4.688-3.795-7.032c-0.782-0.67-1.229-1.34-1.229-1.898
			c0-0.893,0.894-1.897,1.229-2.232C18.559-3.495,18.67-4.724,18-5.616c-0.67-0.894-1.897-1.005-2.79-0.224
			c-0.224,0.224-2.68,2.232-2.68,5.246c0,1.229,0.446,3.126,2.68,4.912c1.672,1.339,2.567,2.567,2.344,3.46
			c-0.113,0.894-1.453,1.675-1.897,1.786c-1.005,0.446-1.451,1.562-1.116,2.567c0.335,0.781,1.005,1.228,1.786,1.228
			c0.223,0,0.446,0,0.781-0.111C17.663,13.024,21.126,11.575,21.572,8.337z"/>
	</g>
	<path fill="#777777" d="M11.191,75.871H-4.325c-1.116,0-2.009,0.893-2.009,2.008c0,1.114,0.893,2.012,2.009,2.012L26.037,80"/>
</g>
</svg>
