<?xml version="1.0" encoding="utf-8"?>
<!-- Generator: Adobe Illustrator 16.0.0, SVG Export Plug-In . SVG Version: 6.00 Build 0)  -->
<!DOCTYPE svg PUBLIC "-//W3C//DTD SVG 1.1//EN" "http://www.w3.org/Graphics/SVG/1.1/DTD/svg11.dtd">
<svg version="1.1" id="Ebene_1" xmlns="http://www.w3.org/2000/svg" xmlns:xlink="http://www.w3.org/1999/xlink" x="0px" y="0px"
	 width="100px" height="100px" viewBox="0 12.5 100 100" enable-background="new 0 12.5 100 100" xml:space="preserve">
<g>
	<path fill="#777777" d="M90.451,12.5H74.89l-8.504,18.497H42.983c-0.7-9.039-8.263-16.185-17.479-16.185
		c-9.676,0-17.548,7.873-17.548,17.548c0,8.688,6.479,16.158,15.069,17.375c0.033,0.004,0.065,0.003,0.097,0.007l3.02,58.228
		c0.13,2.498,2.271,4.53,4.772,4.53h38.15c2.502,0,4.642-2.032,4.771-4.53l3.746-72.263c0.064-1.248-0.368-2.428-1.218-3.322
		c-0.85-0.896-2.005-1.388-3.254-1.388h-2.908l6.909-15.029h13.34c0.958,0,1.734-0.776,1.734-1.734S91.409,12.5,90.451,12.5
		 M27.272,62.789l-1.414-27.261c-0.015-0.288,0.081-0.556,0.268-0.755c0.189-0.198,0.452-0.308,0.741-0.308H64.79L51.768,62.789
		H27.272z M14.419,40.994c-1.533-1.968-2.553-4.336-2.873-6.899h9.772L14.419,40.994z M14.412,23.72l6.907,6.908h-9.776
		C11.862,28.041,12.884,25.676,14.412,23.72 M27.238,18.398c2.585,0.319,4.951,1.341,6.907,2.869l-6.907,6.907V18.398z
		 M23.77,28.174l-6.906-6.908c1.957-1.527,4.322-2.549,6.906-2.868V28.174z M29.32,30.997l7.277-7.277
		c1.601,2.051,2.654,4.548,2.918,7.277H29.32z M16.864,43.453l5.639-5.639l0.435,8.379C20.671,45.773,18.603,44.814,16.864,43.453
		 M70.373,107.789c-0.033,0.662-0.646,1.243-1.309,1.243h-38.15c-0.663,0-1.274-0.581-1.308-1.243l-2.154-41.532h45.073
		L70.373,107.789z M73.11,34.465c0.288,0,0.551,0.11,0.74,0.308c0.188,0.198,0.282,0.466,0.268,0.755l-1.414,27.261H55.585
		L68.61,34.465H73.11z"/>
</g>
</svg>
